AsbirMono-Thin.ufo
<glyph name="exclam" format="2">
  <advance width="600"/>
  <unicode hex="0021"/>
  <outline>
    <contour>
      <point x="289" y="205" type="curve"/>
      <point x="311" y="205" type="line"/>
      <point x="313" y="295"/>
      <point x="316" y="378"/>
      <point x="316" y="460" type="curve" smooth="yes"/>
      <point x="316" y="710" type="line"/>
      <point x="284" y="710" type="line"/>
      <point x="284" y="460" type="line" smooth="yes"/>
      <point x="284" y="378"/>
      <point x="287" y="295"/>
    </contour>
    <component base="period"/>
  </outline>
</glyph>
<glyph name="quotedbl" format="2">
  <advance width="600"/>
  <unicode hex="0022"/>
  <outline>
    <contour>
      <point x="344" y="353" type="line"/>
      <point x="374" y="353" type="line"/>
      <point x="384" y="610" type="line"/>
      <point x="384" y="710" type="line"/>
      <point x="342" y="710" type="line"/>
    </contour>
    <contour>
      <point x="226" y="353" type="line"/>
      <point x="256" y="353" type="line"/>
      <point x="258" y="710" type="line"/>
      <point x="216" y="710" type="line"/>
      <point x="216" y="611" type="line"/>
    </contour>
  </outline>
</glyph>
<glyph name="numbersign" format="2">
  <advance width="600"/>
  <unicode hex="0023"/>
  <outline>
    <contour>
      <point x="316" y="0" type="line"/>
      <point x="348" y="0" type="line"/>
      <point x="480" y="710" type="line"/>
      <point x="448" y="710" type="line"/>
    </contour>
    <contour>
      <point x="50" y="216" type="line"/>
      <point x="502" y="216" type="line"/>
      <point x="510" y="246" type="line"/>
      <point x="58" y="246" type="line"/>
    </contour>
    <contour>
      <point x="120" y="0" type="line"/>
      <point x="152" y="0" type="line"/>
      <point x="284" y="710" type="line"/>
      <point x="252" y="710" type="line"/>
    </contour>
    <contour>
      <point x="90" y="461" type="line"/>
      <point x="542" y="461" type="line"/>
      <point x="550" y="491" type="line"/>
      <point x="98" y="491" type="line"/>
    </contour>
  </outline>
</glyph>
<glyph name="dollar" format="2">
  <advance width="600"/>
  <unicode hex="0024"/>
  <outline>
    <contour>
      <point x="284" y="-91" type="line"/>
      <point x="314" y="-91" type="line"/>
      <point x="314" y="800" type="line"/>
      <point x="284" y="800" type="line"/>
    </contour>
    <contour>
      <point x="309" y="-16" type="curve" smooth="yes"/>
      <point x="434" y="-16"/>
      <point x="542" y="56"/>
      <point x="542" y="170" type="curve" smooth="yes"/>
      <point x="542" y="272"/>
      <point x="492" y="320"/>
      <point x="296" y="372" type="curve" smooth="yes"/>
      <point x="152" y="410"/>
      <point x="107" y="439"/>
      <point x="107" y="526" type="curve" smooth="yes"/>
      <point x="107" y="616"/>
      <point x="178" y="680"/>
      <point x="291" y="680" type="curve" smooth="yes"/>
      <point x="417" y="680"/>
      <point x="489" y="593"/>
      <point x="489" y="491" type="curve"/>
      <point x="523" y="494" type="line"/>
      <point x="523" y="602"/>
      <point x="441" y="712"/>
      <point x="293" y="712" type="curve" smooth="yes"/>
      <point x="156" y="712"/>
      <point x="73" y="630"/>
      <point x="73" y="528" type="curve" smooth="yes"/>
      <point x="73" y="416"/>
      <point x="142" y="380"/>
      <point x="286" y="342" type="curve" smooth="yes"/>
      <point x="466" y="294"/>
      <point x="508" y="253"/>
      <point x="508" y="172" type="curve" smooth="yes"/>
      <point x="508" y="74"/>
      <point x="419" y="16"/>
      <point x="311" y="16" type="curve" smooth="yes"/>
      <point x="184" y="16"/>
      <point x="91" y="112"/>
      <point x="91" y="222" type="curve"/>
      <point x="58" y="219" type="line"/>
      <point x="58" y="89"/>
      <point x="170" y="-16"/>
    </contour>
  </outline>
</glyph>
<glyph name="percent" format="2">
  <advance width="600"/>
  <unicode hex="0025"/>
  <outline>
    <contour>
      <point x="144" y="398" type="curve" smooth="yes"/>
      <point x="218" y="398"/>
      <point x="268" y="458"/>
      <point x="268" y="558" type="curve" smooth="yes"/>
      <point x="268" y="658"/>
      <point x="218" y="718"/>
      <point x="144" y="718" type="curve" smooth="yes"/>
      <point x="70" y="718"/>
      <point x="20" y="658"/>
      <point x="20" y="558" type="curve" smooth="yes"/>
      <point x="20" y="458"/>
      <point x="70" y="398"/>
    </contour>
    <contour>
      <point x="144" y="426" type="curve" smooth="yes"/>
      <point x="86" y="426"/>
      <point x="50" y="470"/>
      <point x="50" y="558" type="curve" smooth="yes"/>
      <point x="50" y="646"/>
      <point x="86" y="690"/>
      <point x="144" y="690" type="curve" smooth="yes"/>
      <point x="202" y="690"/>
      <point x="238" y="646"/>
      <point x="238" y="558" type="curve" smooth="yes"/>
      <point x="238" y="470"/>
      <point x="202" y="426"/>
    </contour>
    <contour>
      <point x="59" y="0" type="line"/>
      <point x="89" y="0" type="line"/>
      <point x="541" y="710" type="line"/>
      <point x="511" y="710" type="line"/>
    </contour>
    <contour>
      <point x="456" y="-8" type="curve" smooth="yes"/>
      <point x="530" y="-8"/>
      <point x="580" y="52"/>
      <point x="580" y="152" type="curve" smooth="yes"/>
      <point x="580" y="252"/>
      <point x="530" y="312"/>
      <point x="456" y="312" type="curve" smooth="yes"/>
      <point x="382" y="312"/>
      <point x="332" y="252"/>
      <point x="332" y="152" type="curve" smooth="yes"/>
      <point x="332" y="52"/>
      <point x="382" y="-8"/>
    </contour>
    <contour>
      <point x="456" y="20" type="curve" smooth="yes"/>
      <point x="398" y="20"/>
      <point x="362" y="64"/>
      <point x="362" y="152" type="curve" smooth="yes"/>
      <point x="362" y="240"/>
      <point x="398" y="284"/>
      <point x="456" y="284" type="curve" smooth="yes"/>
      <point x="514" y="284"/>
      <point x="550" y="240"/>
      <point x="550" y="152" type="curve" smooth="yes"/>
      <point x="550" y="64"/>
      <point x="514" y="20"/>
    </contour>
  </outline>
</glyph>
<glyph name="ampersand" format="2">
  <advance width="600"/>
  <unicode hex="0026"/>
  <outline>
    <contour>
      <point x="258" y="-16" type="curve" smooth="yes"/>
      <point x="344" y="-16"/>
      <point x="411" y="20"/>
      <point x="457" y="70" type="curve"/>
      <point x="512" y="0" type="line"/>
      <point x="552" y="0" type="line"/>
      <point x="477" y="95" type="line"/>
      <point x="507" y="131"/>
      <point x="532" y="188"/>
      <point x="540" y="242" type="curve"/>
      <point x="506" y="246" type="line"/>
      <point x="500" y="198"/>
      <point x="483" y="155"/>
      <point x="458" y="120" type="curve"/>
      <point x="247" y="384" type="line"/>
      <point x="357" y="452"/>
      <point x="399" y="506"/>
      <point x="399" y="584" type="curve" smooth="yes"/>
      <point x="399" y="676"/>
      <point x="338" y="726"/>
      <point x="254" y="726" type="curve" smooth="yes"/>
      <point x="167" y="726"/>
      <point x="110" y="671"/>
      <point x="110" y="584" type="curve" smooth="yes"/>
      <point x="110" y="524"/>
      <point x="134" y="486"/>
      <point x="203" y="395" type="curve"/>
      <point x="108" y="335"/>
      <point x="48" y="272"/>
      <point x="48" y="170" type="curve" smooth="yes"/>
      <point x="48" y="50"/>
      <point x="134" y="-16"/>
    </contour>
    <contour>
      <point x="262" y="16" type="curve" smooth="yes"/>
      <point x="156" y="16"/>
      <point x="82" y="68"/>
      <point x="82" y="170" type="curve" smooth="yes"/>
      <point x="82" y="246"/>
      <point x="121" y="306"/>
      <point x="221" y="370" type="curve"/>
      <point x="437" y="96" type="line"/>
      <point x="398" y="48"/>
      <point x="331" y="16"/>
    </contour>
    <contour>
      <point x="230" y="408" type="curve"/>
      <point x="164" y="494"/>
      <point x="144" y="534"/>
      <point x="144" y="584" type="curve" smooth="yes"/>
      <point x="144" y="652"/>
      <point x="187" y="694"/>
      <point x="254" y="694" type="curve" smooth="yes"/>
      <point x="323" y="694"/>
      <point x="365" y="651"/>
      <point x="365" y="582" type="curve" smooth="yes"/>
      <point x="365" y="512"/>
      <point x="332" y="476"/>
    </contour>
  </outline>
</glyph>
<glyph name="quotesingle" format="2">
  <advance width="600"/>
  <unicode hex="0027"/>
  <outline>
    <contour>
      <point x="284" y="353" type="line"/>
      <point x="316" y="353" type="line"/>
      <point x="322" y="610" type="line"/>
      <point x="322" y="710" type="line"/>
      <point x="278" y="710" type="line"/>
      <point x="278" y="610" type="line"/>
    </contour>
  </outline>
</glyph>
<glyph name="parenleft" format="2">
  <advance width="600"/>
  <unicode hex="0028"/>
  <outline>
    <contour>
      <point x="390" y="-110" type="curve"/>
      <point x="420" y="-110" type="line"/>
      <point x="250" y="34"/>
      <point x="214" y="177"/>
      <point x="214" y="320" type="curve" smooth="yes"/>
      <point x="214" y="463"/>
      <point x="250" y="607"/>
      <point x="420" y="750" type="curve"/>
      <point x="390" y="750" type="line"/>
      <point x="214" y="607"/>
      <point x="180" y="463"/>
      <point x="180" y="320" type="curve" smooth="yes"/>
      <point x="180" y="177"/>
      <point x="214" y="34"/>
    </contour>
  </outline>
</glyph>
<glyph name="asterisk" format="2">
  <advance width="600"/>
  <unicode hex="002A"/>
  <outline>
    <contour>
      <point x="183" y="294" type="line"/>
      <point x="300" y="477" type="line"/>
      <point x="417" y="294" type="line"/>
      <point x="445" y="314" type="line"/>
      <point x="330" y="487" type="line"/>
      <point x="520" y="487" type="line"/>
      <point x="520" y="517" type="line"/>
      <point x="330" y="517" type="line"/>
      <point x="445" y="690" type="line"/>
      <point x="417" y="710" type="line"/>
      <point x="300" y="527" type="line"/>
      <point x="183" y="710" type="line"/>
      <point x="155" y="690" type="line"/>
      <point x="270" y="517" type="line"/>
      <point x="80" y="517" type="line"/>
      <point x="80" y="487" type="line"/>
      <point x="270" y="487" type="line"/>
      <point x="155" y="314" type="line"/>
    </contour>
  </outline>
</glyph>
<glyph name="plus" format="2">
  <advance width="600"/>
  <unicode hex="002B"/>
  <outline>
    <contour>
      <point x="61" y="271" type="line"/>
      <point x="539" y="271" type="line"/>
      <point x="539" y="299" type="line"/>
      <point x="61" y="299" type="line"/>
    </contour>
    <contour>
      <point x="286" y="46" type="line"/>
      <point x="314" y="46" type="line"/>
      <point x="314" y="524" type="line"/>
      <point x="286" y="524" type="line"/>
    </contour>
  </outline>
</glyph>
<glyph name="comma" format="2">
  <advance width="600"/>
  <unicode hex="002C"/>
  <outline>
    <contour>
      <point x="262" y="-162" type="line"/>
      <point x="292" y="-162" type="line"/>
      <point x="340" y="8" type="line"/>
      <point x="340" y="80" type="line"/>
      <point x="260" y="80" type="line"/>
      <point x="260" y="0" type="line"/>
      <point x="304" y="0" type="line"/>
    </contour>
  </outline>
</glyph>
<glyph name="hyphen" format="2">
  <advance width="600"/>
  <unicode hex="002D"/>
  <outline>
    <contour>
      <point x="130" y="266" type="line"/>
      <point x="470" y="266" type="line"/>
      <point x="470" y="296" type="line"/>
      <point x="130" y="296" type="line"/>
    </contour>
  </outline>
</glyph>
<glyph name="period" format="2">
  <advance width="600"/>
  <unicode hex="002E"/>
  <outline>
    <contour>
      <point x="260" y="0" type="line"/>
      <point x="340" y="0" type="line"/>
      <point x="340" y="80" type="line"/>
      <point x="260" y="80" type="line"/>
    </contour>
  </outline>
</glyph>
<glyph name="slash" format="2">
  <advance width="600"/>
  <unicode hex="002F"/>
  <outline>
    <contour>
      <point x="136" y="-110" type="line"/>
      <point x="168" y="-110" type="line"/>
      <point x="464" y="746" type="line"/>
      <point x="432" y="746" type="line"/>
    </contour>
  </outline>
</glyph>
<glyph name="zero" format="2">
  <advance width="600"/>
  <unicode hex="0030"/>
  <outline>
    <contour>
      <point x="132" y="90" type="line"/>
      <point x="160" y="84" type="line"/>
      <point x="468" y="620" type="line"/>
      <point x="440" y="626" type="line"/>
    </contour>
    <component base="zero.ss09"/>
  </outline>
</glyph>
<glyph name="one" format="2">
  <advance width="600"/>
  <unicode hex="0031"/>
  <outline>
    <contour>
      <point x="298" y="0" type="line"/>
      <point x="330" y="0" type="line"/>
      <point x="330" y="710" type="line"/>
      <point x="304" y="710" type="line"/>
      <point x="304" y="610"/>
      <point x="275" y="590"/>
      <point x="200" y="590" type="curve" smooth="yes"/>
      <point x="137" y="590" type="line"/>
      <point x="137" y="564" type="line"/>
      <point x="298" y="564" type="line"/>
    </contour>
    <contour>
      <point x="80" y="0" type="line"/>
      <point x="520" y="0" type="line"/>
      <point x="520" y="28" type="line"/>
      <point x="80" y="28" type="line"/>
    </contour>
  </outline>
</glyph>
<glyph name="two" format="2">
  <advance width="600"/>
  <unicode hex="0032"/>
  <outline>
    <contour>
      <point x="60" y="0" type="curve"/>
      <point x="540" y="0" type="line"/>
      <point x="540" y="30" type="line"/>
      <point x="96" y="30" type="line"/>
      <point x="102" y="122"/>
      <point x="176" y="213"/>
      <point x="330" y="288" type="curve" smooth="yes"/>
      <point x="466" y="354"/>
      <point x="533" y="412"/>
      <point x="533" y="522" type="curve" smooth="yes"/>
      <point x="533" y="637"/>
      <point x="451" y="726"/>
      <point x="315" y="726" type="curve" smooth="yes"/>
      <point x="175" y="726"/>
      <point x="80" y="639"/>
      <point x="62" y="496" type="curve"/>
      <point x="96" y="493" type="line"/>
      <point x="116" y="625"/>
      <point x="194" y="694"/>
      <point x="315" y="694" type="curve" smooth="yes"/>
      <point x="434" y="694"/>
      <point x="499" y="618"/>
      <point x="499" y="520" type="curve" smooth="yes"/>
      <point x="499" y="426"/>
      <point x="440" y="379"/>
      <point x="312" y="315" type="curve" smooth="yes"/>
      <point x="132" y="225"/>
      <point x="60" y="130"/>
    </contour>
  </outline>
</glyph>
<glyph name="three" format="2">
  <advance width="600"/>
  <unicode hex="0033"/>
  <outline>
    <contour>
      <point x="304" y="-16" type="curve" smooth="yes"/>
      <point x="438" y="-16"/>
      <point x="540" y="69"/>
      <point x="540" y="195" type="curve" smooth="yes"/>
      <point x="540" y="299"/>
      <point x="461" y="374"/>
      <point x="340" y="392" type="curve"/>
      <point x="340" y="376" type="line"/>
      <point x="450" y="389"/>
      <point x="516" y="452"/>
      <point x="516" y="543" type="curve" smooth="yes"/>
      <point x="516" y="654"/>
      <point x="429" y="726"/>
      <point x="308" y="726" type="curve" smooth="yes"/>
      <point x="188" y="726"/>
      <point x="109" y="663"/>
      <point x="90" y="564" type="curve"/>
      <point x="124" y="561" type="line"/>
      <point x="140" y="643"/>
      <point x="210" y="694"/>
      <point x="308" y="694" type="curve" smooth="yes"/>
      <point x="411" y="694"/>
      <point x="482" y="635"/>
      <point x="482" y="543" type="curve" smooth="yes"/>
      <point x="482" y="454"/>
      <point x="409" y="397"/>
      <point x="298" y="397" type="curve" smooth="yes"/>
      <point x="231" y="397" type="line"/>
      <point x="231" y="367" type="line"/>
      <point x="298" y="367" type="line" smooth="yes"/>
      <point x="420" y="367"/>
      <point x="506" y="300"/>
      <point x="506" y="199" type="curve" smooth="yes"/>
      <point x="506" y="85"/>
      <point x="420" y="16"/>
      <point x="304" y="16" type="curve" smooth="yes"/>
      <point x="181" y="16"/>
      <point x="101" y="80"/>
      <point x="91" y="177" type="curve"/>
      <point x="60" y="174" type="line"/>
      <point x="70" y="60"/>
      <point x="163" y="-16"/>
    </contour>
  </outline>
</glyph>
<glyph name="four" format="2">
  <advance width="600"/>
  <unicode hex="0034"/>
  <outline>
    <contour>
      <point x="428" y="0" type="line"/>
      <point x="460" y="0" type="line"/>
      <point x="460" y="175" type="line"/>
      <point x="550" y="175" type="line"/>
      <point x="550" y="205" type="line"/>
      <point x="460" y="205" type="line"/>
      <point x="460" y="710" type="line"/>
      <point x="428" y="710" type="line"/>
      <point x="50" y="201" type="line"/>
      <point x="50" y="175" type="line"/>
      <point x="428" y="175" type="line"/>
    </contour>
    <contour>
      <point x="88" y="205" type="line"/>
      <point x="428" y="660" type="line"/>
      <point x="428" y="205" type="line"/>
    </contour>
  </outline>
</glyph>
<glyph name="five" format="2">
  <advance width="600"/>
  <unicode hex="0035"/>
  <outline>
    <contour>
      <point x="305" y="-16" type="curve" smooth="yes"/>
      <point x="436" y="-16"/>
      <point x="530" y="76"/>
      <point x="530" y="228" type="curve" smooth="yes"/>
      <point x="530" y="367"/>
      <point x="449" y="471"/>
      <point x="304" y="471" type="curve" smooth="yes"/>
      <point x="216" y="471"/>
      <point x="134" y="418"/>
      <point x="104" y="344" type="curve"/>
      <point x="112" y="336" type="line"/>
      <point x="152" y="680" type="line"/>
      <point x="508" y="680" type="line"/>
      <point x="508" y="710" type="line"/>
      <point x="124" y="710" type="line"/>
      <point x="80" y="327" type="line"/>
      <point x="119" y="327" type="line"/>
      <point x="151" y="395"/>
      <point x="226" y="439"/>
      <point x="304" y="439" type="curve" smooth="yes"/>
      <point x="430" y="439"/>
      <point x="496" y="349"/>
      <point x="496" y="228" type="curve" smooth="yes"/>
      <point x="496" y="91"/>
      <point x="419" y="16"/>
      <point x="305" y="16" type="curve" smooth="yes"/>
      <point x="191" y="16"/>
      <point x="116" y="76"/>
      <point x="102" y="176" type="curve"/>
      <point x="70" y="173" type="line"/>
      <point x="82" y="63"/>
      <point x="171" y="-16"/>
    </contour>
  </outline>
</glyph>
<glyph name="six" format="2">
  <advance width="600"/>
  <unicode hex="0036"/>
  <outline>
    <contour>
      <point x="307" y="-16" type="curve" smooth="yes"/>
      <point x="443" y="-16"/>
      <point x="530" y="84"/>
      <point x="530" y="234" type="curve" smooth="yes"/>
      <point x="530" y="376"/>
      <point x="447" y="472"/>
      <point x="307" y="472" type="curve" smooth="yes"/>
      <point x="201" y="472"/>
      <point x="114" y="404"/>
      <point x="90" y="302" type="curve"/>
      <point x="100" y="298" type="line"/>
      <point x="106" y="568"/>
      <point x="199" y="694"/>
      <point x="321" y="694" type="curve" smooth="yes"/>
      <point x="412" y="694"/>
      <point x="465" y="633"/>
      <point x="485" y="559" type="curve"/>
      <point x="518" y="563" type="line"/>
      <point x="488" y="659"/>
      <point x="425" y="726"/>
      <point x="321" y="726" type="curve" smooth="yes"/>
      <point x="148" y="726"/>
      <point x="70" y="533"/>
      <point x="70" y="298" type="curve" smooth="yes"/>
      <point x="70" y="78"/>
      <point x="172" y="-16"/>
    </contour>
    <contour>
      <point x="307" y="16" type="curve" smooth="yes"/>
      <point x="187" y="16"/>
      <point x="108" y="113"/>
      <point x="108" y="242" type="curve" smooth="yes"/>
      <point x="108" y="362"/>
      <point x="200" y="441"/>
      <point x="307" y="441" type="curve" smooth="yes"/>
      <point x="427" y="441"/>
      <point x="496" y="357"/>
      <point x="496" y="234" type="curve" smooth="yes"/>
      <point x="496" y="96"/>
      <point x="423" y="16"/>
    </contour>
  </outline>
</glyph>
<glyph name="seven" format="2">
  <advance width="600"/>
  <unicode hex="0037"/>
  <outline>
    <contour>
      <point x="234" y="0" type="curve"/>
      <point x="268" y="0" type="line"/>
      <point x="268" y="258"/>
      <point x="382" y="508"/>
      <point x="530" y="682" type="curve"/>
      <point x="530" y="710" type="line"/>
      <point x="70" y="710" type="line"/>
      <point x="70" y="680" type="line"/>
      <point x="493" y="680" type="line"/>
      <point x="340" y="500"/>
      <point x="234" y="240"/>
    </contour>
  </outline>
</glyph>
<glyph name="eight" format="2">
  <advance width="600"/>
  <unicode hex="0038"/>
  <outline>
    <contour>
      <point x="300" y="-16" type="curve" smooth="yes"/>
      <point x="441" y="-16"/>
      <point x="540" y="67"/>
      <point x="540" y="193" type="curve" smooth="yes"/>
      <point x="540" y="298"/>
      <point x="465" y="374"/>
      <point x="351" y="392" type="curve"/>
      <point x="349" y="378" type="line"/>
      <point x="444" y="398"/>
      <point x="506" y="446"/>
      <point x="506" y="541" type="curve" smooth="yes"/>
      <point x="506" y="651"/>
      <point x="427" y="726"/>
      <point x="300" y="726" type="curve" smooth="yes"/>
      <point x="173" y="726"/>
      <point x="94" y="651"/>
      <point x="94" y="541" type="curve" smooth="yes"/>
      <point x="94" y="446"/>
      <point x="156" y="399"/>
      <point x="252" y="378" type="curve"/>
      <point x="250" y="392" type="line"/>
      <point x="136" y="374"/>
      <point x="60" y="298"/>
      <point x="60" y="193" type="curve" smooth="yes"/>
      <point x="60" y="67"/>
      <point x="159" y="-16"/>
    </contour>
    <contour>
      <point x="300" y="16" type="curve" smooth="yes"/>
      <point x="173" y="16"/>
      <point x="94" y="82"/>
      <point x="94" y="194" type="curve" smooth="yes"/>
      <point x="94" y="297"/>
      <point x="172" y="370"/>
      <point x="300" y="370" type="curve" smooth="yes"/>
      <point x="428" y="370"/>
      <point x="506" y="297"/>
      <point x="506" y="194" type="curve" smooth="yes"/>
      <point x="506" y="82"/>
      <point x="427" y="16"/>
    </contour>
    <contour>
      <point x="300" y="400" type="curve" smooth="yes"/>
      <point x="203" y="400"/>
      <point x="128" y="449"/>
      <point x="128" y="543" type="curve" smooth="yes"/>
      <point x="128" y="634"/>
      <point x="193" y="694"/>
      <point x="300" y="694" type="curve" smooth="yes"/>
      <point x="407" y="694"/>
      <point x="472" y="634"/>
      <point x="472" y="543" type="curve" smooth="yes"/>
      <point x="472" y="449"/>
      <point x="397" y="400"/>
    </contour>
  </outline>
</glyph>
<glyph name="equal" format="2">
  <advance width="600"/>
  <unicode hex="003D"/>
  <outline>
    <contour>
      <point x="90" y="377" type="line"/>
      <point x="510" y="377" type="line"/>
      <point x="510" y="407" type="line"/>
      <point x="90" y="407" type="line"/>
    </contour>
    <contour>
      <point x="90" y="171" type="line"/>
      <point x="510" y="171" type="line"/>
      <point x="510" y="201" type="line"/>
      <point x="90" y="201" type="line"/>
    </contour>
  </outline>
</glyph>
<glyph name="greater" format="2">
  <advance width="600"/>
  <unicode hex="003E"/>
  <outline>
    <contour>
      <point x="78" y="55" type="line"/>
      <point x="522" y="273" type="line"/>
      <point x="522" y="311" type="line"/>
      <point x="78" y="529" type="line"/>
      <point x="78" y="495" type="line"/>
      <point x="501" y="287" type="line"/>
      <point x="501" y="297" type="line"/>
      <point x="78" y="89" type="line"/>
    </contour>
  </outline>
</glyph>
<glyph name="question" format="2">
  <advance width="600"/>
  <unicode hex="003F"/>
  <outline>
    <contour>
      <point x="281" y="216" type="curve"/>
      <point x="313" y="216" type="line"/>
      <point x="313" y="288"/>
      <point x="334" y="322"/>
      <point x="380" y="356" type="curve" smooth="yes"/>
      <point x="479" y="429"/>
      <point x="508" y="464"/>
      <point x="508" y="544" type="curve" smooth="yes"/>
      <point x="508" y="642"/>
      <point x="438" y="726"/>
      <point x="312" y="726" type="curve" smooth="yes"/>
      <point x="179" y="726"/>
      <point x="100" y="639"/>
      <point x="92" y="499" type="curve"/>
      <point x="124" y="497" type="line"/>
      <point x="132" y="619"/>
      <point x="196" y="694"/>
      <point x="312" y="694" type="curve" smooth="yes"/>
      <point x="416" y="694"/>
      <point x="476" y="630"/>
      <point x="476" y="544" type="curve" smooth="yes"/>
      <point x="476" y="474"/>
      <point x="459" y="450"/>
      <point x="366" y="380" type="curve" smooth="yes"/>
      <point x="308" y="336"/>
      <point x="281" y="294"/>
    </contour>
    <component base="period" xOffset="-3"/>
  </outline>
</glyph>
<glyph name="at" format="2">
  <advance width="600"/>
  <unicode hex="0040"/>
  <outline>
    <contour>
      <point x="431" y="-59" type="curve"/>
      <point x="417" y="-32" type="line"/>
      <point x="375" y="-58"/>
      <point x="327" y="-71"/>
      <point x="276" y="-71" type="curve" smooth="yes"/>
      <point x="141" y="-71"/>
      <point x="62" y="46"/>
      <point x="62" y="276" type="curve" smooth="yes"/>
      <point x="62" y="505"/>
      <point x="180" y="680"/>
      <point x="334" y="680" type="curve" smooth="yes"/>
      <point x="460" y="680"/>
      <point x="538" y="550"/>
      <point x="538" y="342" type="curve" smooth="yes"/>
      <point x="538" y="202"/>
      <point x="508" y="111"/>
      <point x="462" y="111" type="curve" smooth="yes"/>
      <point x="430" y="111"/>
      <point x="410" y="150"/>
      <point x="410" y="224" type="curve" smooth="yes"/>
      <point x="410" y="269"/>
      <point x="419" y="351"/>
      <point x="431" y="490" type="curve"/>
      <point x="401" y="490" type="line"/>
      <point x="394" y="378" type="line"/>
      <point x="404" y="378" type="line"/>
      <point x="407" y="440"/>
      <point x="363" y="499"/>
      <point x="298" y="499" type="curve" smooth="yes"/>
      <point x="202" y="499"/>
      <point x="150" y="383"/>
      <point x="150" y="263" type="curve" smooth="yes"/>
      <point x="150" y="142"/>
      <point x="196" y="81"/>
      <point x="267" y="81" type="curve" smooth="yes"/>
      <point x="320" y="81"/>
      <point x="375" y="127"/>
      <point x="390" y="200" type="curve"/>
      <point x="384" y="200" type="line"/>
      <point x="388" y="124"/>
      <point x="418" y="81"/>
      <point x="460" y="81" type="curve" smooth="yes"/>
      <point x="523" y="81"/>
      <point x="570" y="194"/>
      <point x="570" y="345" type="curve" smooth="yes"/>
      <point x="570" y="570"/>
      <point x="480" y="710"/>
      <point x="336" y="710" type="curve" smooth="yes"/>
      <point x="159" y="710"/>
      <point x="30" y="526"/>
      <point x="30" y="275" type="curve" smooth="yes"/>
      <point x="30" y="23"/>
      <point x="119" y="-103"/>
      <point x="276" y="-103" type="curve" smooth="yes"/>
      <point x="335" y="-103"/>
      <point x="386" y="-89"/>
    </contour>
    <contour>
      <point x="270" y="109" type="curve" smooth="yes"/>
      <point x="208" y="109"/>
      <point x="182" y="174"/>
      <point x="182" y="269" type="curve" smooth="yes"/>
      <point x="182" y="369"/>
      <point x="220" y="470"/>
      <point x="296" y="470" type="curve" smooth="yes"/>
      <point x="356" y="470"/>
      <point x="388" y="419"/>
      <point x="388" y="336" type="curve" smooth="yes"/>
      <point x="388" y="257"/>
      <point x="360" y="109"/>
    </contour>
  </outline>
</glyph>
<glyph name="A" format="2">
  <advance width="600"/>
  <unicode hex="0041"/>
  <anchor x="300" y="0" name="bottom"/>
  <anchor x="552" y="0" name="ogonek"/>
  <anchor x="300" y="710" name="top"/>
  <outline>
    <contour>
      <point x="48" y="0" type="line"/>
      <point x="81" y="0" type="line"/>
      <point x="300" y="678" type="line"/>
      <point x="519" y="0" type="line"/>
      <point x="552" y="0" type="line"/>
      <point x="319" y="710" type="line"/>
      <point x="281" y="710" type="line"/>
    </contour>
    <contour>
      <point x="146" y="235" type="line"/>
      <point x="454" y="235" type="line"/>
      <point x="444" y="265" type="line"/>
      <point x="156" y="265" type="line"/>
    </contour>
  </outline>
</glyph>
<glyph name="B" format="2">
  <advance width="600"/>
  <unicode hex="0042"/>
  <anchor x="300" y="0" name="bottom"/>
  <anchor x="300" y="710" name="top"/>
  <outline>
    <contour>
      <point x="100" y="0" type="line"/>
      <point x="320" y="0" type="line" smooth="yes"/>
      <point x="468" y="0"/>
      <point x="546" y="67"/>
      <point x="546" y="189" type="curve" smooth="yes"/>
      <point x="546" y="294"/>
      <point x="466" y="360"/>
      <point x="340" y="360" type="curve"/>
      <point x="340" y="354" type="line"/>
      <point x="443" y="354"/>
      <point x="517" y="423"/>
      <point x="517" y="520" type="curve" smooth="yes"/>
      <point x="517" y="642"/>
      <point x="437" y="710"/>
      <point x="283" y="710" type="curve" smooth="yes"/>
      <point x="100" y="710" type="line"/>
    </contour>
    <contour>
      <point x="132" y="28" type="line"/>
      <point x="132" y="340" type="line"/>
      <point x="317" y="340" type="line" smooth="yes"/>
      <point x="437" y="340"/>
      <point x="512" y="281"/>
      <point x="512" y="189" type="curve" smooth="yes"/>
      <point x="512" y="85"/>
      <point x="448" y="28"/>
      <point x="318" y="28" type="curve" smooth="yes"/>
    </contour>
    <contour>
      <point x="132" y="368" type="line"/>
      <point x="132" y="682" type="line"/>
      <point x="283" y="682" type="line" smooth="yes"/>
      <point x="415" y="682"/>
      <point x="483" y="623"/>
      <point x="483" y="520" type="curve" smooth="yes"/>
      <point x="483" y="423"/>
      <point x="409" y="368"/>
      <point x="300" y="368" type="curve" smooth="yes"/>
    </contour>
  </outline>
</glyph>
<glyph name="C" format="2">
  <advance width="600"/>
  <unicode hex="0043"/>
  <anchor x="304" y="0" name="bottom"/>
  <anchor x="304" y="710" name="top"/>
  <outline>
    <contour>
      <point x="304" y="-16" type="curve" smooth="yes"/>
      <point x="430" y="-16"/>
      <point x="514" y="78"/>
      <point x="542" y="226" type="curve"/>
      <point x="508" y="230" type="line"/>
      <point x="484" y="90"/>
      <point x="408" y="16"/>
      <point x="304" y="16" type="curve" smooth="yes"/>
      <point x="178" y="16"/>
      <point x="82" y="146"/>
      <point x="82" y="354" type="curve" smooth="yes"/>
      <point x="82" y="563"/>
      <point x="178" y="694"/>
      <point x="304" y="694" type="curve" smooth="yes"/>
      <point x="408" y="694"/>
      <point x="478" y="622"/>
      <point x="502" y="494" type="curve"/>
      <point x="536" y="498" type="line"/>
      <point x="506" y="642"/>
      <point x="430" y="726"/>
      <point x="304" y="726" type="curve" smooth="yes"/>
      <point x="154" y="726"/>
      <point x="48" y="583"/>
      <point x="48" y="354" type="curve" smooth="yes"/>
      <point x="48" y="127"/>
      <point x="153" y="-16"/>
    </contour>
  </outline>
</glyph>
<glyph name="D" format="2">
  <advance width="600"/>
  <unicode hex="0044"/>
  <anchor x="300" y="0" name="bottom"/>
  <anchor x="190" y="355" name="center"/>
  <anchor x="300" y="710" name="top"/>
  <outline>
    <contour>
      <point x="100" y="0" type="line"/>
      <point x="240" y="0" type="line" smooth="yes"/>
      <point x="438" y="0"/>
      <point x="552" y="128"/>
      <point x="552" y="354" type="curve" smooth="yes"/>
      <point x="552" y="580"/>
      <point x="438" y="710"/>
      <point x="240" y="710" type="curve" smooth="yes"/>
      <point x="100" y="710" type="line"/>
    </contour>
    <contour>
      <point x="132" y="30" type="line"/>
      <point x="132" y="680" type="line"/>
      <point x="236" y="680" type="line" smooth="yes"/>
      <point x="416" y="680"/>
      <point x="518" y="564"/>
      <point x="518" y="354" type="curve" smooth="yes"/>
      <point x="518" y="144"/>
      <point x="417" y="30"/>
      <point x="236" y="30" type="curve" smooth="yes"/>
    </contour>
  </outline>
</glyph>
<glyph name="E" format="2">
  <advance width="600"/>
  <unicode hex="0045"/>
  <anchor x="306" y="0" name="bottom"/>
  <anchor x="520" y="0" name="ogonek"/>
  <anchor x="306" y="710" name="top"/>
  <outline>
    <contour>
      <point x="100" y="0" type="line"/>
      <point x="520" y="0" type="line"/>
      <point x="520" y="30" type="line"/>
      <point x="132" y="30" type="line"/>
      <point x="132" y="339" type="line"/>
      <point x="500" y="339" type="line"/>
      <point x="500" y="369" type="line"/>
      <point x="132" y="369" type="line"/>
      <point x="132" y="680" type="line"/>
      <point x="512" y="680" type="line"/>
      <point x="512" y="710" type="line"/>
      <point x="100" y="710" type="line"/>
    </contour>
  </outline>
</glyph>
<glyph name="F" format="2">
  <advance width="600"/>
  <unicode hex="0046"/>
  <anchor x="300" y="0" name="bottom"/>
  <anchor x="300" y="710" name="top"/>
  <outline>
    <contour>
      <point x="110" y="0" type="line"/>
      <point x="142" y="0" type="line"/>
      <point x="142" y="339" type="line"/>
      <point x="512" y="339" type="line"/>
      <point x="512" y="369" type="line"/>
      <point x="142" y="369" type="line"/>
      <point x="142" y="694" type="line"/>
      <point x="128" y="680" type="line"/>
      <point x="530" y="680" type="line"/>
      <point x="530" y="710" type="line"/>
      <point x="110" y="710" type="line"/>
    </contour>
  </outline>
</glyph>
<glyph name="G" format="2">
  <advance width="600"/>
  <unicode hex="0047"/>
  <anchor x="306" y="0" name="bottom"/>
  <anchor x="294" y="710" name="top"/>
  <outline>
    <contour>
      <point x="300" y="-16" type="curve" smooth="yes"/>
      <point x="415" y="-16"/>
      <point x="496" y="78"/>
      <point x="518" y="210" type="curve"/>
      <point x="512" y="212" type="line"/>
      <point x="512" y="0" type="line"/>
      <point x="540" y="0" type="line"/>
      <point x="540" y="330" type="line"/>
      <point x="304" y="330" type="line"/>
      <point x="304" y="302" type="line"/>
      <point x="510" y="302" type="line"/>
      <point x="506" y="134"/>
      <point x="421" y="16"/>
      <point x="302" y="16" type="curve" smooth="yes"/>
      <point x="168" y="16"/>
      <point x="82" y="147"/>
      <point x="82" y="354" type="curve" smooth="yes"/>
      <point x="82" y="554"/>
      <point x="172" y="694"/>
      <point x="300" y="694" type="curve" smooth="yes"/>
      <point x="410" y="694"/>
      <point x="474" y="626"/>
      <point x="502" y="496" type="curve"/>
      <point x="536" y="500" type="line"/>
      <point x="504" y="648"/>
      <point x="426" y="726"/>
      <point x="300" y="726" type="curve" smooth="yes"/>
      <point x="150" y="726"/>
      <point x="48" y="575"/>
      <point x="48" y="354" type="curve" smooth="yes"/>
      <point x="48" y="125"/>
      <point x="144" y="-16"/>
    </contour>
  </outline>
</glyph>
<glyph name="H" format="2">
  <advance width="600"/>
  <unicode hex="0048"/>
  <anchor x="300" y="0" name="bottom"/>
  <anchor x="300" y="560" name="center"/>
  <anchor x="300" y="710" name="top"/>
  <outline>
    <contour>
      <point x="80" y="0" type="line"/>
      <point x="112" y="0" type="line"/>
      <point x="112" y="359" type="line"/>
      <point x="103" y="349" type="line"/>
      <point x="496" y="349" type="line"/>
      <point x="488" y="359" type="line"/>
      <point x="488" y="0" type="line"/>
      <point x="520" y="0" type="line"/>
      <point x="520" y="710" type="line"/>
      <point x="488" y="710" type="line"/>
      <point x="488" y="370" type="line"/>
      <point x="496" y="379" type="line"/>
      <point x="103" y="379" type="line"/>
      <point x="112" y="370" type="line"/>
      <point x="112" y="710" type="line"/>
      <point x="80" y="710" type="line"/>
    </contour>
  </outline>
</glyph>
<glyph name="I" format="2">
  <advance width="600"/>
  <unicode hex="0049"/>
  <anchor x="300" y="0" name="bottom"/>
  <anchor x="510" y="0" name="ogonek"/>
  <anchor x="300" y="710" name="top"/>
  <outline>
    <contour>
      <point x="90" y="0" type="line"/>
      <point x="510" y="0" type="line"/>
      <point x="510" y="30" type="line"/>
      <point x="316" y="30" type="line"/>
      <point x="316" y="680" type="line"/>
      <point x="510" y="680" type="line"/>
      <point x="510" y="710" type="line"/>
      <point x="90" y="710" type="line"/>
      <point x="90" y="680" type="line"/>
      <point x="284" y="680" type="line"/>
      <point x="284" y="30" type="line"/>
      <point x="90" y="30" type="line"/>
    </contour>
  </outline>
</glyph>
<glyph name="J" format="2">
  <advance width="600"/>
  <unicode hex="004A"/>
  <anchor x="484" y="710" name="top"/>
  <outline>
    <contour>
      <point x="272" y="-16" type="curve" smooth="yes"/>
      <point x="417" y="-16"/>
      <point x="500" y="83"/>
      <point x="500" y="254" type="curve" smooth="yes"/>
      <point x="500" y="710" type="line"/>
      <point x="468" y="710" type="line"/>
      <point x="468" y="254" type="line" smooth="yes"/>
      <point x="468" y="99"/>
      <point x="400" y="16"/>
      <point x="272" y="16" type="curve" smooth="yes"/>
      <point x="156" y="16"/>
      <point x="88" y="96"/>
      <point x="84" y="236" type="curve"/>
      <point x="50" y="232" type="line"/>
      <point x="54" y="82"/>
      <point x="142" y="-16"/>
    </contour>
  </outline>
</glyph>
<glyph name="K" format="2">
  <advance width="600"/>
  <unicode hex="004B"/>
  <anchor x="293" y="0" name="bottom"/>
  <anchor x="293" y="710" name="top"/>
  <outline>
    <contour>
      <point x="105" y="226" type="line"/>
      <point x="539" y="710" type="line"/>
      <point x="501" y="710" type="line"/>
      <point x="105" y="268" type="line"/>
    </contour>
    <contour>
      <point x="80" y="0" type="line"/>
      <point x="112" y="0" type="line"/>
      <point x="112" y="710" type="line"/>
      <point x="80" y="710" type="line"/>
    </contour>
    <contour>
      <point x="512" y="0" type="line"/>
      <point x="550" y="0" type="line"/>
      <point x="254" y="410" type="line"/>
      <point x="234" y="388" type="line"/>
    </contour>
  </outline>
</glyph>
<glyph name="L" format="2">
  <advance width="600"/>
  <unicode hex="004C"/>
  <anchor x="317" y="0" name="bottom"/>
  <anchor x="150" y="382" name="center"/>
  <anchor x="126" y="710" name="top"/>
  <anchor x="330" y="530" name="topright"/>
  <outline>
    <contour>
      <point x="110" y="0" type="line"/>
      <point x="530" y="0" type="line"/>
      <point x="530" y="30" type="line"/>
      <point x="134" y="30" type="line"/>
      <point x="142" y="20" type="line"/>
      <point x="142" y="710" type="line"/>
      <point x="110" y="710" type="line"/>
    </contour>
  </outline>
</glyph>
<glyph name="M" format="2">
  <advance width="600"/>
  <unicode hex="004D"/>
  <anchor x="300" y="0" name="bottom"/>
  <anchor x="300" y="710" name="top"/>
  <outline>
    <contour>
      <point x="284" y="80" type="line"/>
      <point x="316" y="80" type="line"/>
      <point x="518" y="702" type="line"/>
      <point x="508" y="702" type="line"/>
      <point x="508" y="0" type="line"/>
      <point x="540" y="0" type="line"/>
      <point x="540" y="710" type="line"/>
      <point x="490" y="710" type="line"/>
      <point x="293" y="96" type="line"/>
      <point x="307" y="96" type="line"/>
      <point x="110" y="710" type="line"/>
      <point x="60" y="710" type="line"/>
      <point x="60" y="0" type="line"/>
      <point x="92" y="0" type="line"/>
      <point x="92" y="702" type="line"/>
      <point x="82" y="702" type="line"/>
    </contour>
  </outline>
</glyph>
<glyph name="N" format="2">
  <advance width="600"/>
  <unicode hex="004E"/>
  <anchor x="310" y="0" name="bottom"/>
  <anchor x="308" y="710" name="top"/>
  <outline>
    <contour>
      <point x="80" y="0" type="line"/>
      <point x="112" y="0" type="line"/>
      <point x="112" y="694" type="line"/>
      <point x="105" y="693" type="line"/>
      <point x="473" y="0" type="line"/>
      <point x="520" y="0" type="line"/>
      <point x="520" y="710" type="line"/>
      <point x="488" y="710" type="line"/>
      <point x="488" y="16" type="line"/>
      <point x="495" y="17" type="line"/>
      <point x="127" y="710" type="line"/>
      <point x="80" y="710" type="line"/>
    </contour>
  </outline>
</glyph>
<glyph name="O" format="2">
  <advance width="600"/>
  <unicode hex="004F"/>
  <anchor x="300" y="0" name="bottom"/>
  <anchor x="300" y="355" name="center"/>
  <anchor x="380" y="0" name="ogonek"/>
  <anchor x="300" y="710" name="top"/>
  <anchor x="370" y="710" name="topright"/>
  <outline>
    <contour>
      <point x="300" y="-16" type="curve" smooth="yes"/>
      <point x="456" y="-16"/>
      <point x="552" y="127"/>
      <point x="552" y="354" type="curve" smooth="yes"/>
      <point x="552" y="583"/>
      <point x="456" y="726"/>
      <point x="300" y="726" type="curve" smooth="yes"/>
      <point x="144" y="726"/>
      <point x="48" y="583"/>
      <point x="48" y="354" type="curve" smooth="yes"/>
      <point x="48" y="127"/>
      <point x="144" y="-16"/>
    </contour>
    <contour>
      <point x="300" y="16" type="curve" smooth="yes"/>
      <point x="160" y="16"/>
      <point x="82" y="146"/>
      <point x="82" y="354" type="curve" smooth="yes"/>
      <point x="82" y="563"/>
      <point x="160" y="694"/>
      <point x="300" y="694" type="curve" smooth="yes"/>
      <point x="440" y="694"/>
      <point x="518" y="563"/>
      <point x="518" y="354" type="curve" smooth="yes"/>
      <point x="518" y="146"/>
      <point x="440" y="16"/>
    </contour>
  </outline>
</glyph>
<glyph name="P" format="2">
  <advance width="600"/>
  <unicode hex="0050"/>
  <anchor x="300" y="0" name="bottom"/>
  <anchor x="300" y="710" name="top"/>
  <outline>
    <contour>
      <point x="110" y="0" type="line"/>
      <point x="142" y="0" type="line"/>
      <point x="142" y="305" type="line"/>
      <point x="304" y="305" type="line" smooth="yes"/>
      <point x="448" y="305"/>
      <point x="540" y="377"/>
      <point x="540" y="505" type="curve" smooth="yes"/>
      <point x="540" y="633"/>
      <point x="448" y="710"/>
      <point x="304" y="710" type="curve" smooth="yes"/>
      <point x="110" y="710" type="line"/>
    </contour>
    <contour>
      <point x="142" y="335" type="line"/>
      <point x="142" y="680" type="line"/>
      <point x="300" y="680" type="line" smooth="yes"/>
      <point x="430" y="680"/>
      <point x="506" y="619"/>
      <point x="506" y="505" type="curve" smooth="yes"/>
      <point x="506" y="391"/>
      <point x="430" y="335"/>
      <point x="300" y="335" type="curve" smooth="yes"/>
    </contour>
  </outline>
</glyph>
<glyph name="Q" format="2">
  <advance width="600"/>
  <unicode hex="0051"/>
  <anchor x="300" y="0" name="bottom"/>
  <anchor x="300" y="710" name="top"/>
  <outline>
    <contour>
      <point x="416" y="-119" type="line"/>
      <point x="450" y="-119" type="line"/>
      <point x="306" y="228" type="line"/>
      <point x="272" y="228" type="line"/>
    </contour>
    <contour>
      <point x="300" y="-16" type="curve" smooth="yes"/>
      <point x="456" y="-16"/>
      <point x="552" y="127"/>
      <point x="552" y="354" type="curve" smooth="yes"/>
      <point x="552" y="583"/>
      <point x="456" y="726"/>
      <point x="300" y="726" type="curve" smooth="yes"/>
      <point x="144" y="726"/>
      <point x="48" y="583"/>
      <point x="48" y="354" type="curve" smooth="yes"/>
      <point x="48" y="127"/>
      <point x="144" y="-16"/>
    </contour>
    <contour>
      <point x="300" y="16" type="curve" smooth="yes"/>
      <point x="160" y="16"/>
      <point x="82" y="146"/>
      <point x="82" y="354" type="curve" smooth="yes"/>
      <point x="82" y="563"/>
      <point x="160" y="694"/>
      <point x="300" y="694" type="curve" smooth="yes"/>
      <point x="440" y="694"/>
      <point x="518" y="563"/>
      <point x="518" y="354" type="curve" smooth="yes"/>
      <point x="518" y="146"/>
      <point x="440" y="16"/>
    </contour>
  </outline>
</glyph>
<glyph name="R" format="2">
  <advance width="600"/>
  <unicode hex="0052"/>
  <anchor x="298" y="0" name="bottom"/>
  <anchor x="294" y="710" name="top"/>
  <outline>
    <contour>
      <point x="86" y="0" type="line"/>
      <point x="118" y="0" type="line"/>
      <point x="118" y="311" type="line"/>
      <point x="316" y="311" type="line" smooth="yes"/>
      <point x="421" y="311"/>
      <point x="461" y="269"/>
      <point x="466" y="201" type="curve" smooth="yes"/>
      <point x="482" y="0" type="line"/>
      <point x="514" y="0" type="line"/>
      <point x="497" y="207" type="line" smooth="yes"/>
      <point x="490" y="294"/>
      <point x="423" y="332"/>
      <point x="340" y="332" type="curve"/>
      <point x="346" y="322" type="line"/>
      <point x="447" y="337"/>
      <point x="514" y="400"/>
      <point x="514" y="510" type="curve" smooth="yes"/>
      <point x="514" y="639"/>
      <point x="428" y="710"/>
      <point x="294" y="710" type="curve" smooth="yes"/>
      <point x="86" y="710" type="line"/>
    </contour>
    <contour>
      <point x="118" y="341" type="line"/>
      <point x="118" y="682" type="line"/>
      <point x="292" y="682" type="line" smooth="yes"/>
      <point x="411" y="682"/>
      <point x="480" y="625"/>
      <point x="480" y="510" type="curve" smooth="yes"/>
      <point x="480" y="398"/>
      <point x="411" y="341"/>
      <point x="292" y="341" type="curve" smooth="yes"/>
    </contour>
  </outline>
</glyph>
<glyph name="S" format="2">
  <advance width="600"/>
  <unicode hex="0053"/>
  <anchor x="299" y="0" name="bottom"/>
  <anchor x="299" y="710" name="top"/>
  <outline>
    <contour>
      <point x="309" y="-16" type="curve" smooth="yes"/>
      <point x="434" y="-16"/>
      <point x="542" y="56"/>
      <point x="542" y="170" type="curve" smooth="yes"/>
      <point x="542" y="272"/>
      <point x="492" y="330"/>
      <point x="296" y="382" type="curve" smooth="yes"/>
      <point x="152" y="420"/>
      <point x="107" y="453"/>
      <point x="107" y="540" type="curve" smooth="yes"/>
      <point x="107" y="630"/>
      <point x="178" y="694"/>
      <point x="291" y="694" type="curve" smooth="yes"/>
      <point x="417" y="694"/>
      <point x="489" y="607"/>
      <point x="489" y="505" type="curve"/>
      <point x="523" y="508" type="line"/>
      <point x="523" y="616"/>
      <point x="441" y="726"/>
      <point x="293" y="726" type="curve" smooth="yes"/>
      <point x="156" y="726"/>
      <point x="73" y="644"/>
      <point x="73" y="542" type="curve" smooth="yes"/>
      <point x="73" y="430"/>
      <point x="142" y="390"/>
      <point x="286" y="352" type="curve" smooth="yes"/>
      <point x="466" y="304"/>
      <point x="508" y="253"/>
      <point x="508" y="172" type="curve" smooth="yes"/>
      <point x="508" y="74"/>
      <point x="419" y="16"/>
      <point x="311" y="16" type="curve" smooth="yes"/>
      <point x="184" y="16"/>
      <point x="91" y="112"/>
      <point x="91" y="222" type="curve"/>
      <point x="58" y="219" type="line"/>
      <point x="58" y="89"/>
      <point x="170" y="-16"/>
    </contour>
  </outline>
</glyph>
<glyph name="U" format="2">
  <advance width="600"/>
  <unicode hex="0055"/>
  <anchor x="300" y="0" name="bottom"/>
  <anchor x="386" y="0" name="ogonek"/>
  <anchor x="300" y="710" name="top"/>
  <anchor x="488" y="710" name="topright"/>
  <outline>
    <contour>
      <point x="300" y="-16" type="curve" smooth="yes"/>
      <point x="441" y="-16"/>
      <point x="520" y="79"/>
      <point x="520" y="248" type="curve" smooth="yes"/>
      <point x="520" y="710" type="line"/>
      <point x="488" y="710" type="line"/>
      <point x="488" y="248" type="line" smooth="yes"/>
      <point x="488" y="99"/>
      <point x="421" y="16"/>
      <point x="300" y="16" type="curve" smooth="yes"/>
      <point x="179" y="16"/>
      <point x="112" y="99"/>
      <point x="112" y="248" type="curve" smooth="yes"/>
      <point x="112" y="710" type="line"/>
      <point x="80" y="710" type="line"/>
      <point x="80" y="248" type="line" smooth="yes"/>
      <point x="80" y="79"/>
      <point x="159" y="-16"/>
    </contour>
  </outline>
</glyph>
<glyph name="V" format="2">
  <advance width="600"/>
  <unicode hex="0056"/>
  <anchor x="300" y="0" name="bottom"/>
  <anchor x="300" y="710" name="top"/>
  <outline>
    <contour>
      <point x="282" y="0" type="line"/>
      <point x="318" y="0" type="line"/>
      <point x="560" y="710" type="line"/>
      <point x="528" y="710" type="line"/>
      <point x="296" y="20" type="line"/>
      <point x="304" y="20" type="line"/>
      <point x="72" y="710" type="line"/>
      <point x="40" y="710" type="line"/>
    </contour>
  </outline>
</glyph>
<glyph name="W" format="2">
  <advance width="600"/>
  <unicode hex="0057"/>
  <anchor x="300" y="0" name="bottom"/>
  <anchor x="300" y="710" name="top"/>
  <outline>
    <contour>
      <point x="144" y="0" type="line"/>
      <point x="190" y="0" type="line"/>
      <point x="308" y="618" type="line"/>
      <point x="292" y="618" type="line"/>
      <point x="410" y="0" type="line"/>
      <point x="456" y="0" type="line"/>
      <point x="560" y="710" type="line"/>
      <point x="528" y="710" type="line"/>
      <point x="428" y="16" type="line"/>
      <point x="434" y="16" type="line"/>
      <point x="318" y="630" type="line"/>
      <point x="282" y="630" type="line"/>
      <point x="166" y="16" type="line"/>
      <point x="172" y="16" type="line"/>
      <point x="72" y="710" type="line"/>
      <point x="40" y="710" type="line"/>
    </contour>
  </outline>
</glyph>
<glyph name="X" format="2">
  <advance width="600"/>
  <unicode hex="0058"/>
  <anchor x="300" y="0" name="bottom"/>
  <anchor x="300" y="710" name="top"/>
  <outline>
    <contour>
      <point x="60" y="0" type="line"/>
      <point x="96" y="0" type="line"/>
      <point x="299" y="336" type="line"/>
      <point x="504" y="0" type="line"/>
      <point x="540" y="0" type="line"/>
      <point x="322" y="356" type="line"/>
      <point x="532" y="710" type="line"/>
      <point x="496" y="710" type="line"/>
      <point x="302" y="382" type="line"/>
      <point x="104" y="710" type="line"/>
      <point x="68" y="710" type="line"/>
      <point x="279" y="360" type="line"/>
    </contour>
  </outline>
</glyph>
<glyph name="Y" format="2">
  <advance width="600"/>
  <unicode hex="0059"/>
  <anchor x="300" y="0" name="bottom"/>
  <anchor x="300" y="710" name="top"/>
  <outline>
    <contour>
      <point x="284" y="0" type="line"/>
      <point x="316" y="0" type="line"/>
      <point x="316" y="290" type="line"/>
      <point x="550" y="710" type="line"/>
      <point x="512" y="710" type="line"/>
      <point x="300" y="324" type="line"/>
      <point x="88" y="710" type="line"/>
      <point x="50" y="710" type="line"/>
      <point x="284" y="290" type="line"/>
    </contour>
  </outline>
</glyph>
<glyph name="Z" format="2">
  <advance width="600"/>
  <unicode hex="005A"/>
  <anchor x="300" y="0" name="bottom"/>
  <anchor x="300" y="710" name="top"/>
  <outline>
    <contour>
      <point x="60" y="0" type="line"/>
      <point x="540" y="0" type="line"/>
      <point x="540" y="30" type="line"/>
      <point x="94" y="30" type="line"/>
      <point x="532" y="680" type="line"/>
      <point x="532" y="710" type="line"/>
      <point x="78" y="710" type="line"/>
      <point x="78" y="680" type="line"/>
      <point x="498" y="680" type="line"/>
      <point x="60" y="30" type="line"/>
    </contour>
  </outline>
</glyph>
<glyph name="bracketright" format="2">
  <advance width="600"/>
  <unicode hex="005D"/>
  <outline>
    <contour>
      <point x="160" y="-110" type="line"/>
      <point x="440" y="-110" type="line"/>
      <point x="440" y="750" type="line"/>
      <point x="160" y="750" type="line"/>
      <point x="160" y="722" type="line"/>
      <point x="408" y="722" type="line"/>
      <point x="408" y="-82" type="line"/>
      <point x="160" y="-82" type="line"/>
    </contour>
  </outline>
</glyph>
<glyph name="asciicircum" format="2">
  <advance width="600"/>
  <unicode hex="005E"/>
  <outline>
    <contour>
      <point x="140" y="383" type="line"/>
      <point x="174" y="383" type="line"/>
      <point x="302" y="695" type="line"/>
      <point x="298" y="695" type="line"/>
      <point x="426" y="383" type="line"/>
      <point x="460" y="383" type="line"/>
      <point x="324" y="710" type="line"/>
      <point x="276" y="710" type="line"/>
    </contour>
  </outline>
</glyph>
<glyph name="grave" format="2">
  <advance width="600"/>
  <unicode hex="0060"/>
  <outline>
    <contour>
      <point x="326" y="500" type="line"/>
      <point x="360" y="500" type="line"/>
      <point x="282" y="726" type="line"/>
      <point x="240" y="726" type="line"/>
    </contour>
  </outline>
</glyph>
<glyph name="a" format="2">
  <advance width="600"/>
  <unicode hex="0061"/>
  <anchor x="272" y="0" name="bottom"/>
  <anchor x="540" y="0" name="ogonek"/>
  <anchor x="278" y="530" name="top"/>
  <outline>
    <contour>
      <point x="234" y="-12" type="curve" smooth="yes"/>
      <point x="338" y="-12"/>
      <point x="414" y="51"/>
      <point x="438" y="122" type="curve"/>
      <point x="430" y="122" type="line"/>
      <point x="430" y="20"/>
      <point x="458" y="-2"/>
      <point x="506" y="-2" type="curve" smooth="yes"/>
      <point x="516" y="-2"/>
      <point x="534" y="-1"/>
      <point x="540" y="0" type="curve"/>
      <point x="540" y="30" type="line"/>
      <point x="510" y="30" type="line" smooth="yes"/>
      <point x="478" y="30"/>
      <point x="462" y="43"/>
      <point x="462" y="102" type="curve" smooth="yes"/>
      <point x="462" y="326" type="line" smooth="yes"/>
      <point x="462" y="472"/>
      <point x="394" y="542"/>
      <point x="276" y="542" type="curve" smooth="yes"/>
      <point x="163" y="542"/>
      <point x="91" y="481"/>
      <point x="73" y="373" type="curve"/>
      <point x="106" y="370" type="line"/>
      <point x="121" y="461"/>
      <point x="180" y="512"/>
      <point x="276" y="512" type="curve" smooth="yes"/>
      <point x="380" y="512"/>
      <point x="432" y="454"/>
      <point x="432" y="316" type="curve"/>
      <point x="225" y="276" type="line" smooth="yes"/>
      <point x="131" y="258"/>
      <point x="64" y="210"/>
      <point x="64" y="130" type="curve" smooth="yes"/>
      <point x="64" y="44"/>
      <point x="132" y="-12"/>
    </contour>
    <contour>
      <point x="234" y="18" type="curve" smooth="yes"/>
      <point x="146" y="18"/>
      <point x="96" y="58"/>
      <point x="96" y="132" type="curve" smooth="yes"/>
      <point x="96" y="196"/>
      <point x="150" y="231"/>
      <point x="234" y="248" type="curve" smooth="yes"/>
      <point x="432" y="287" type="line"/>
      <point x="432" y="204" type="line" smooth="yes"/>
      <point x="432" y="98"/>
      <point x="352" y="18"/>
    </contour>
  </outline>
</glyph>
<glyph name="b" format="2">
  <advance width="600"/>
  <unicode hex="0062"/>
  <anchor x="300" y="0" name="bottom"/>
  <anchor x="300" y="530" name="top"/>
  <outline>
    <contour>
      <point x="324" y="-12" type="curve" smooth="yes"/>
      <point x="460" y="-12"/>
      <point x="545" y="95"/>
      <point x="545" y="265" type="curve" smooth="yes"/>
      <point x="545" y="433"/>
      <point x="460" y="542"/>
      <point x="324" y="542" type="curve" smooth="yes"/>
      <point x="233" y="542"/>
      <point x="163" y="477"/>
      <point x="137" y="390" type="curve"/>
      <point x="140" y="386" type="line"/>
      <point x="140" y="710" type="line"/>
      <point x="110" y="710" type="line"/>
      <point x="110" y="0" type="line"/>
      <point x="132" y="0" type="line"/>
      <point x="135" y="148" type="line"/>
      <point x="132" y="143" type="line"/>
      <point x="159" y="58"/>
      <point x="229" y="-12"/>
    </contour>
    <contour>
      <point x="324" y="18" type="curve" smooth="yes"/>
      <point x="214" y="18"/>
      <point x="140" y="119"/>
      <point x="140" y="265" type="curve" smooth="yes"/>
      <point x="140" y="408"/>
      <point x="214" y="512"/>
      <point x="324" y="512" type="curve" smooth="yes"/>
      <point x="440" y="512"/>
      <point x="513" y="415"/>
      <point x="513" y="265" type="curve" smooth="yes"/>
      <point x="513" y="113"/>
      <point x="440" y="18"/>
    </contour>
  </outline>
</glyph>
<glyph name="c" format="2">
  <advance width="600"/>
  <unicode hex="0063"/>
  <anchor x="314" y="0" name="bottom"/>
  <anchor x="314" y="530" name="top"/>
  <outline>
    <contour>
      <point x="315" y="-12" type="curve" smooth="yes"/>
      <point x="425" y="-12"/>
      <point x="496" y="67"/>
      <point x="520" y="175" type="curve"/>
      <point x="488" y="178" type="line"/>
      <point x="468" y="78"/>
      <point x="403" y="18"/>
      <point x="315" y="18" type="curve" smooth="yes"/>
      <point x="197" y="18"/>
      <point x="122" y="113"/>
      <point x="122" y="265" type="curve" smooth="yes"/>
      <point x="122" y="417"/>
      <point x="197" y="512"/>
      <point x="315" y="512" type="curve" smooth="yes"/>
      <point x="403" y="512"/>
      <point x="462" y="457"/>
      <point x="486" y="363" type="curve"/>
      <point x="518" y="365" type="line"/>
      <point x="492" y="465"/>
      <point x="425" y="542"/>
      <point x="315" y="542" type="curve" smooth="yes"/>
      <point x="165" y="542"/>
      <point x="90" y="415"/>
      <point x="90" y="265" type="curve" smooth="yes"/>
      <point x="90" y="115"/>
      <point x="165" y="-12"/>
    </contour>
  </outline>
</glyph>
<glyph name="d" format="2">
  <advance width="600"/>
  <unicode hex="0064"/>
  <anchor x="300" y="0" name="bottom"/>
  <anchor x="442" y="618" name="center"/>
  <anchor x="300" y="530" name="top"/>
  <anchor x="518" y="530" name="topright"/>
  <outline>
    <contour>
      <point x="276" y="-12" type="curve" smooth="yes"/>
      <point x="371" y="-12"/>
      <point x="441" y="58"/>
      <point x="468" y="143" type="curve"/>
      <point x="465" y="148" type="line"/>
      <point x="468" y="0" type="line"/>
      <point x="490" y="0" type="line"/>
      <point x="490" y="710" type="line"/>
      <point x="460" y="710" type="line"/>
      <point x="460" y="386" type="line"/>
      <point x="463" y="390" type="line"/>
      <point x="437" y="477"/>
      <point x="367" y="542"/>
      <point x="276" y="542" type="curve" smooth="yes"/>
      <point x="140" y="542"/>
      <point x="55" y="433"/>
      <point x="55" y="265" type="curve" smooth="yes"/>
      <point x="55" y="95"/>
      <point x="140" y="-12"/>
    </contour>
    <contour>
      <point x="276" y="18" type="curve" smooth="yes"/>
      <point x="160" y="18"/>
      <point x="87" y="113"/>
      <point x="87" y="265" type="curve" smooth="yes"/>
      <point x="87" y="415"/>
      <point x="160" y="512"/>
      <point x="276" y="512" type="curve" smooth="yes"/>
      <point x="386" y="512"/>
      <point x="460" y="408"/>
      <point x="460" y="265" type="curve" smooth="yes"/>
      <point x="460" y="119"/>
      <point x="386" y="18"/>
    </contour>
  </outline>
</glyph>
<glyph name="e" format="2">
  <advance width="600"/>
  <unicode hex="0065"/>
  <anchor x="304" y="0" name="bottom"/>
  <anchor x="431" y="25" name="ogonek"/>
  <anchor x="300" y="530" name="top"/>
  <outline>
    <contour>
      <point x="305" y="-12" type="curve" smooth="yes"/>
      <point x="413" y="-12"/>
      <point x="488" y="53"/>
      <point x="514" y="143" type="curve"/>
      <point x="481" y="145" type="line"/>
      <point x="459" y="69"/>
      <point x="399" y="18"/>
      <point x="305" y="18" type="curve" smooth="yes"/>
      <point x="187" y="18"/>
      <point x="109" y="110"/>
      <point x="107" y="260" type="curve"/>
      <point x="525" y="260" type="line"/>
      <point x="525" y="272" type="line" smooth="yes"/>
      <point x="525" y="416"/>
      <point x="453" y="542"/>
      <point x="301" y="542" type="curve" smooth="yes"/>
      <point x="151" y="542"/>
      <point x="75" y="415"/>
      <point x="75" y="265" type="curve" smooth="yes"/>
      <point x="75" y="115"/>
      <point x="153" y="-12"/>
    </contour>
    <contour>
      <point x="107" y="288" type="line"/>
      <point x="114" y="427"/>
      <point x="189" y="512"/>
      <point x="301" y="512" type="curve" smooth="yes"/>
      <point x="421" y="512"/>
      <point x="488" y="424"/>
      <point x="492" y="288" type="curve"/>
    </contour>
  </outline>
</glyph>
<glyph name="f" format="2">
  <advance width="600"/>
  <unicode hex="0066"/>
  <anchor x="300" y="0" name="bottom"/>
  <anchor x="302" y="710" name="top"/>
  <outline>
    <contour>
      <point x="240" y="0" type="line"/>
      <point x="270" y="0" type="line"/>
      <point x="270" y="604" type="line" smooth="yes"/>
      <point x="270" y="654"/>
      <point x="298" y="682"/>
      <point x="348" y="682" type="curve" smooth="yes"/>
      <point x="520" y="682" type="line"/>
      <point x="520" y="710" type="line"/>
      <point x="350" y="710" type="line" smooth="yes"/>
      <point x="282" y="710"/>
      <point x="240" y="668"/>
      <point x="240" y="600" type="curve" smooth="yes"/>
    </contour>
    <contour>
      <point x="80" y="502" type="line"/>
      <point x="510" y="502" type="line"/>
      <point x="510" y="530" type="line"/>
      <point x="80" y="530" type="line"/>
    </contour>
  </outline>
</glyph>
<glyph name="g" format="2">
  <advance width="600"/>
  <unicode hex="0067"/>
  <anchor x="300" y="-150" name="bottom"/>
  <anchor x="291" y="530" name="top"/>
  <outline>
    <contour>
      <point x="292" y="-162" type="curve" smooth="yes"/>
      <point x="424" y="-162"/>
      <point x="505" y="-80"/>
      <point x="505" y="55" type="curve" smooth="yes"/>
      <point x="505" y="530" type="line"/>
      <point x="475" y="530" type="line"/>
      <point x="475" y="402" type="line"/>
      <point x="447" y="482"/>
      <point x="381" y="542"/>
      <point x="289" y="542" type="curve" smooth="yes"/>
      <point x="155" y="542"/>
      <point x="70" y="441"/>
      <point x="70" y="285" type="curve" smooth="yes"/>
      <point x="70" y="125"/>
      <point x="155" y="25"/>
      <point x="289" y="25" type="curve" smooth="yes"/>
      <point x="379" y="25"/>
      <point x="443" y="79"/>
      <point x="475" y="159" type="curve"/>
      <point x="475" y="57" type="line" smooth="yes"/>
      <point x="475" y="-63"/>
      <point x="407" y="-132"/>
      <point x="292" y="-132" type="curve" smooth="yes"/>
      <point x="194" y="-132"/>
      <point x="132" y="-80"/>
      <point x="128" y="-4" type="curve"/>
      <point x="96" y="-6" type="line"/>
      <point x="100" y="-96"/>
      <point x="181" y="-162"/>
    </contour>
    <contour>
      <point x="289" y="55" type="curve" smooth="yes"/>
      <point x="175" y="55"/>
      <point x="102" y="144"/>
      <point x="102" y="285" type="curve" smooth="yes"/>
      <point x="102" y="423"/>
      <point x="175" y="512"/>
      <point x="289" y="512" type="curve" smooth="yes"/>
      <point x="401" y="512"/>
      <point x="475" y="415"/>
      <point x="475" y="285" type="curve" smooth="yes"/>
      <point x="475" y="144"/>
      <point x="401" y="55"/>
    </contour>
  </outline>
</glyph>
<glyph name="h" format="2">
  <advance width="600"/>
  <unicode hex="0068"/>
  <anchor x="300" y="0" name="bottom"/>
  <anchor x="170" y="618" name="center"/>
  <anchor x="135" y="710" name="top"/>
  <outline>
    <contour>
      <point x="120" y="0" type="line"/>
      <point x="150" y="0" type="line"/>
      <point x="150" y="317" type="line" smooth="yes"/>
      <point x="150" y="431"/>
      <point x="214" y="512"/>
      <point x="324" y="512" type="curve" smooth="yes"/>
      <point x="434" y="512"/>
      <point x="476" y="432"/>
      <point x="476" y="317" type="curve" smooth="yes"/>
      <point x="476" y="0" type="line"/>
      <point x="506" y="0" type="line"/>
      <point x="506" y="341" type="line" smooth="yes"/>
      <point x="506" y="453"/>
      <point x="451" y="542"/>
      <point x="332" y="542" type="curve" smooth="yes"/>
      <point x="236" y="542"/>
      <point x="154" y="489"/>
      <point x="146" y="385" type="curve"/>
      <point x="150" y="385" type="line"/>
      <point x="150" y="710" type="line"/>
      <point x="120" y="710" type="line"/>
    </contour>
  </outline>
</glyph>
<glyph name="k" format="2">
  <advance width="600"/>
  <unicode hex="006B"/>
  <anchor x="328" y="0" name="bottom"/>
  <anchor x="129" y="710" name="top"/>
  <outline>
    <contour>
      <point x="114" y="0" type="line"/>
      <point x="144" y="0" type="line"/>
      <point x="144" y="156" type="line"/>
      <point x="275" y="284" type="line"/>
      <point x="514" y="0" type="line"/>
      <point x="550" y="0" type="line"/>
      <point x="295" y="302" type="line"/>
      <point x="530" y="530" type="line"/>
      <point x="490" y="530" type="line"/>
      <point x="144" y="194" type="line"/>
      <point x="144" y="710" type="line"/>
      <point x="114" y="710" type="line"/>
    </contour>
  </outline>
</glyph>
<glyph name="l" format="2">
  <advance width="600"/>
  <unicode hex="006C"/>
  <anchor x="310" y="0" name="bottom"/>
  <anchor x="320" y="356" name="center"/>
  <anchor x="300" y="710" name="top"/>
  <anchor x="400" y="530" name="topright"/>
  <outline>
    <contour>
      <point x="300" y="10" type="line"/>
      <point x="330" y="10" type="line"/>
      <point x="330" y="600" type="line" smooth="yes"/>
      <point x="330" y="668"/>
      <point x="288" y="710"/>
      <point x="220" y="710" type="curve" smooth="yes"/>
      <point x="100" y="710" type="line"/>
      <point x="100" y="682" type="line"/>
      <point x="222" y="682" type="line" smooth="yes"/>
      <point x="272" y="682"/>
      <point x="300" y="654"/>
      <point x="300" y="604" type="curve" smooth="yes"/>
    </contour>
    <contour>
      <point x="80" y="0" type="line"/>
      <point x="520" y="0" type="line"/>
      <point x="520" y="28" type="line"/>
      <point x="80" y="28" type="line"/>
    </contour>
  </outline>
</glyph>
<glyph name="m" format="2">
  <advance width="600"/>
  <unicode hex="006D"/>
  <anchor x="300" y="0" name="bottom"/>
  <anchor x="300" y="530" name="top"/>
  <outline>
    <contour>
      <point x="50" y="0" type="line"/>
      <point x="80" y="0" type="line"/>
      <point x="80" y="340" type="line" smooth="yes"/>
      <point x="80" y="433"/>
      <point x="130" y="512"/>
      <point x="190" y="512" type="curve" smooth="yes"/>
      <point x="254" y="512"/>
      <point x="285" y="448"/>
      <point x="285" y="340" type="curve" smooth="yes"/>
      <point x="285" y="0" type="line"/>
      <point x="315" y="0" type="line"/>
      <point x="315" y="340" type="line" smooth="yes"/>
      <point x="315" y="436"/>
      <point x="367" y="512"/>
      <point x="428" y="512" type="curve" smooth="yes"/>
      <point x="491" y="512"/>
      <point x="520" y="466"/>
      <point x="520" y="352" type="curve" smooth="yes"/>
      <point x="520" y="0" type="line"/>
      <point x="550" y="0" type="line"/>
      <point x="550" y="354" type="line" smooth="yes"/>
      <point x="550" y="484"/>
      <point x="512" y="542"/>
      <point x="432" y="542" type="curve" smooth="yes"/>
      <point x="360" y="542"/>
      <point x="314" y="482"/>
      <point x="298" y="364" type="curve"/>
      <point x="310" y="364" type="line"/>
      <point x="302" y="482"/>
      <point x="266" y="542"/>
      <point x="194" y="542" type="curve" smooth="yes"/>
      <point x="126" y="542"/>
      <point x="88" y="487"/>
      <point x="72" y="382" type="curve"/>
      <point x="80" y="380" type="line"/>
      <point x="78" y="530" type="line"/>
      <point x="50" y="530" type="line"/>
    </contour>
  </outline>
</glyph>
<glyph name="n" format="2">
  <advance width="600"/>
  <unicode hex="006E"/>
  <anchor x="300" y="0" name="bottom"/>
  <anchor x="300" y="530" name="top"/>
  <outline>
    <contour>
      <point x="104" y="0" type="line"/>
      <point x="134" y="0" type="line"/>
      <point x="134" y="317" type="line" smooth="yes"/>
      <point x="134" y="431"/>
      <point x="202" y="512"/>
      <point x="312" y="512" type="curve" smooth="yes"/>
      <point x="422" y="512"/>
      <point x="466" y="431"/>
      <point x="466" y="317" type="curve" smooth="yes"/>
      <point x="466" y="0" type="line"/>
      <point x="496" y="0" type="line"/>
      <point x="496" y="341" type="line" smooth="yes"/>
      <point x="496" y="453"/>
      <point x="438" y="542"/>
      <point x="318" y="542" type="curve" smooth="yes"/>
      <point x="223" y="542"/>
      <point x="139" y="488"/>
      <point x="129" y="384" type="curve"/>
      <point x="134" y="384" type="line"/>
      <point x="132" y="530" type="line"/>
      <point x="104" y="530" type="line"/>
    </contour>
  </outline>
</glyph>
<glyph name="o" format="2">
  <advance width="600"/>
  <unicode hex="006F"/>
  <anchor x="300" y="0" name="bottom"/>
  <anchor x="300" y="265" name="center"/>
  <anchor x="375" y="0" name="ogonek"/>
  <anchor x="300" y="530" name="top"/>
  <anchor x="370" y="530" name="topright"/>
  <outline>
    <contour>
      <point x="300" y="-12" type="curve" smooth="yes"/>
      <point x="438" y="-12"/>
      <point x="522" y="95"/>
      <point x="522" y="265" type="curve" smooth="yes"/>
      <point x="522" y="435"/>
      <point x="438" y="542"/>
      <point x="300" y="542" type="curve" smooth="yes"/>
      <point x="162" y="542"/>
      <point x="78" y="435"/>
      <point x="78" y="265" type="curve" smooth="yes"/>
      <point x="78" y="95"/>
      <point x="162" y="-12"/>
    </contour>
    <contour>
      <point x="300" y="18" type="curve" smooth="yes"/>
      <point x="181" y="18"/>
      <point x="110" y="113"/>
      <point x="110" y="265" type="curve" smooth="yes"/>
      <point x="110" y="417"/>
      <point x="181" y="512"/>
      <point x="300" y="512" type="curve" smooth="yes"/>
      <point x="419" y="512"/>
      <point x="490" y="417"/>
      <point x="490" y="265" type="curve" smooth="yes"/>
      <point x="490" y="113"/>
      <point x="419" y="18"/>
    </contour>
  </outline>
</glyph>
<glyph name="p" format="2">
  <advance width="600"/>
  <unicode hex="0070"/>
  <anchor x="300" y="0" name="bottom"/>
  <anchor x="300" y="530" name="top"/>
  <outline>
    <contour>
      <point x="90" y="-150" type="line"/>
      <point x="120" y="-150" type="line"/>
      <point x="120" y="173" type="line"/>
      <point x="113" y="162" type="line"/>
      <point x="127" y="74"/>
      <point x="210" y="-12"/>
      <point x="310" y="-12" type="curve" smooth="yes"/>
      <point x="442" y="-12"/>
      <point x="525" y="95"/>
      <point x="525" y="265" type="curve" smooth="yes"/>
      <point x="525" y="435"/>
      <point x="442" y="542"/>
      <point x="308" y="542" type="curve" smooth="yes"/>
      <point x="210" y="542"/>
      <point x="135" y="476"/>
      <point x="109" y="360" type="curve"/>
      <point x="118" y="355" type="line"/>
      <point x="116" y="530" type="line"/>
      <point x="90" y="530" type="line"/>
    </contour>
    <contour>
      <point x="310" y="18" type="curve" smooth="yes"/>
      <point x="200" y="18"/>
      <point x="120" y="125"/>
      <point x="120" y="265" type="curve" smooth="yes"/>
      <point x="120" y="405"/>
      <point x="198" y="512"/>
      <point x="308" y="512" type="curve" smooth="yes"/>
      <point x="422" y="512"/>
      <point x="493" y="417"/>
      <point x="493" y="265" type="curve" smooth="yes"/>
      <point x="493" y="113"/>
      <point x="423" y="18"/>
    </contour>
  </outline>
</glyph>
<glyph name="q" format="2">
  <advance width="600"/>
  <unicode hex="0071"/>
  <anchor x="300" y="0" name="bottom"/>
  <anchor x="300" y="530" name="top"/>
  <outline>
    <contour>
      <point x="510" y="-150" type="line"/>
      <point x="510" y="530" type="line"/>
      <point x="484" y="530" type="line"/>
      <point x="482" y="355" type="line"/>
      <point x="491" y="360" type="line"/>
      <point x="465" y="476"/>
      <point x="390" y="542"/>
      <point x="292" y="542" type="curve" smooth="yes"/>
      <point x="158" y="542"/>
      <point x="75" y="435"/>
      <point x="75" y="265" type="curve" smooth="yes"/>
      <point x="75" y="95"/>
      <point x="158" y="-12"/>
      <point x="290" y="-12" type="curve" smooth="yes"/>
      <point x="390" y="-12"/>
      <point x="473" y="74"/>
      <point x="487" y="162" type="curve"/>
      <point x="480" y="173" type="line"/>
      <point x="480" y="-150" type="line"/>
    </contour>
    <contour>
      <point x="290" y="18" type="curve" smooth="yes"/>
      <point x="177" y="18"/>
      <point x="107" y="113"/>
      <point x="107" y="265" type="curve" smooth="yes"/>
      <point x="107" y="417"/>
      <point x="178" y="512"/>
      <point x="292" y="512" type="curve" smooth="yes"/>
      <point x="402" y="512"/>
      <point x="480" y="405"/>
      <point x="480" y="265" type="curve" smooth="yes"/>
      <point x="480" y="125"/>
      <point x="400" y="18"/>
    </contour>
  </outline>
</glyph>
<glyph name="r" format="2">
  <advance width="600"/>
  <unicode hex="0072"/>
  <anchor x="268" y="0" name="bottom"/>
  <anchor x="319" y="530" name="top"/>
  <outline>
    <contour>
      <point x="100" y="0" type="line"/>
      <point x="460" y="0" type="line"/>
      <point x="460" y="28" type="line"/>
      <point x="269" y="28" type="line"/>
      <point x="283" y="14" type="line"/>
      <point x="283" y="328" type="line" smooth="yes"/>
      <point x="283" y="418"/>
      <point x="340" y="500"/>
      <point x="420" y="500" type="curve" smooth="yes"/>
      <point x="520" y="500" type="line"/>
      <point x="520" y="530" type="line"/>
      <point x="426" y="530" type="line" smooth="yes"/>
      <point x="345" y="530"/>
      <point x="302" y="485"/>
      <point x="278" y="400" type="curve"/>
      <point x="281" y="397" type="line"/>
      <point x="277" y="530" type="line"/>
      <point x="100" y="530" type="line"/>
      <point x="100" y="502" type="line"/>
      <point x="267" y="502" type="line"/>
      <point x="253" y="516" type="line"/>
      <point x="253" y="14" type="line"/>
      <point x="267" y="28" type="line"/>
      <point x="100" y="28" type="line"/>
    </contour>
  </outline>
</glyph>
<glyph name="s" format="2">
  <advance width="600"/>
  <unicode hex="0073"/>
  <anchor x="308" y="0" name="bottom"/>
  <anchor x="298" y="530" name="top"/>
  <outline>
    <contour>
      <point x="311" y="-12" type="curve" smooth="yes"/>
      <point x="440" y="-12"/>
      <point x="510" y="38"/>
      <point x="510" y="130" type="curve" smooth="yes"/>
      <point x="510" y="208"/>
      <point x="464" y="250"/>
      <point x="308" y="273" type="curve" smooth="yes"/>
      <point x="172" y="293"/>
      <point x="140" y="320"/>
      <point x="140" y="390" type="curve" smooth="yes"/>
      <point x="140" y="468"/>
      <point x="198" y="512"/>
      <point x="294" y="512" type="curve" smooth="yes"/>
      <point x="400" y="512"/>
      <point x="454" y="449"/>
      <point x="464" y="379" type="curve"/>
      <point x="495" y="385" type="line"/>
      <point x="479" y="471"/>
      <point x="414" y="542"/>
      <point x="294" y="542" type="curve" smooth="yes"/>
      <point x="180" y="542"/>
      <point x="108" y="482"/>
      <point x="108" y="390" type="curve" smooth="yes"/>
      <point x="108" y="312"/>
      <point x="140" y="271"/>
      <point x="294" y="246" type="curve" smooth="yes"/>
      <point x="456" y="220"/>
      <point x="478" y="186"/>
      <point x="478" y="128" type="curve" smooth="yes"/>
      <point x="478" y="56"/>
      <point x="423" y="18"/>
      <point x="311" y="18" type="curve" smooth="yes"/>
      <point x="195" y="18"/>
      <point x="125" y="75"/>
      <point x="121" y="159" type="curve"/>
      <point x="90" y="155" type="line"/>
      <point x="96" y="61"/>
      <point x="175" y="-12"/>
    </contour>
  </outline>
</glyph>
<glyph name="t" format="2">
  <advance width="600"/>
  <unicode hex="0074"/>
  <anchor x="380" y="0" name="bottom"/>
  <anchor x="270" y="325" name="center"/>
  <anchor x="261" y="530" name="top"/>
  <anchor x="333" y="596" name="topright"/>
  <outline>
    <contour>
      <point x="358" y="0" type="curve" smooth="yes"/>
      <point x="500" y="0" type="line"/>
      <point x="500" y="28" type="line"/>
      <point x="354" y="28" type="line" smooth="yes"/>
      <point x="305" y="28"/>
      <point x="276" y="57"/>
      <point x="276" y="108" type="curve" smooth="yes"/>
      <point x="276" y="654" type="line"/>
      <point x="246" y="654" type="line"/>
      <point x="246" y="112" type="line" smooth="yes"/>
      <point x="246" y="42"/>
      <point x="288" y="0"/>
    </contour>
    <contour>
      <point x="60" y="502" type="line"/>
      <point x="500" y="502" type="line"/>
      <point x="500" y="530" type="line"/>
      <point x="60" y="530" type="line"/>
    </contour>
  </outline>
</glyph>
<glyph name="u" format="2">
  <advance width="600"/>
  <unicode hex="0075"/>
  <anchor x="293" y="0" name="bottom"/>
  <anchor x="486" y="0" name="ogonek"/>
  <anchor x="293" y="530" name="top"/>
  <anchor x="456" y="530" name="topright"/>
  <outline>
    <contour>
      <point x="274" y="-12" type="curve" smooth="yes"/>
      <point x="381" y="-12"/>
      <point x="451" y="46"/>
      <point x="462" y="145" type="curve"/>
      <point x="457" y="145" type="line"/>
      <point x="460" y="0" type="line"/>
      <point x="486" y="0" type="line"/>
      <point x="486" y="530" type="line"/>
      <point x="456" y="530" type="line"/>
      <point x="456" y="213" type="line" smooth="yes"/>
      <point x="456" y="94"/>
      <point x="388" y="18"/>
      <point x="282" y="18" type="curve" smooth="yes"/>
      <point x="184" y="18"/>
      <point x="130" y="81"/>
      <point x="130" y="202" type="curve" smooth="yes"/>
      <point x="130" y="530" type="line"/>
      <point x="100" y="530" type="line"/>
      <point x="100" y="189" type="line" smooth="yes"/>
      <point x="100" y="63"/>
      <point x="168" y="-12"/>
    </contour>
  </outline>
</glyph>
<glyph name="v" format="2">
  <advance width="600"/>
  <unicode hex="0076"/>
  <anchor x="300" y="0" name="bottom"/>
  <anchor x="300" y="530" name="top"/>
  <outline>
    <contour>
      <point x="281" y="0" type="line"/>
      <point x="319" y="0" type="line"/>
      <point x="520" y="530" type="line"/>
      <point x="488" y="530" type="line"/>
      <point x="300" y="28" type="line"/>
      <point x="112" y="530" type="line"/>
      <point x="80" y="530" type="line"/>
    </contour>
  </outline>
</glyph>
<glyph name="w" format="2">
  <advance width="600"/>
  <unicode hex="0077"/>
  <anchor x="300" y="0" name="bottom"/>
  <anchor x="300" y="530" name="top"/>
  <outline>
    <contour>
      <point x="160" y="0" type="line"/>
      <point x="196" y="0" type="line"/>
      <point x="300" y="414" type="line"/>
      <point x="404" y="0" type="line"/>
      <point x="440" y="0" type="line"/>
      <point x="570" y="530" type="line"/>
      <point x="538" y="530" type="line"/>
      <point x="422" y="30" type="line"/>
      <point x="315" y="460" type="line"/>
      <point x="285" y="460" type="line"/>
      <point x="178" y="30" type="line"/>
      <point x="62" y="530" type="line"/>
      <point x="30" y="530" type="line"/>
    </contour>
  </outline>
</glyph>
<glyph name="x" format="2">
  <advance width="600"/>
  <unicode hex="0078"/>
  <anchor x="300" y="0" name="bottom"/>
  <anchor x="300" y="530" name="top"/>
  <outline>
    <contour>
      <point x="82" y="0" type="line"/>
      <point x="118" y="0" type="line"/>
      <point x="302" y="249" type="line"/>
      <point x="483" y="0" type="line"/>
      <point x="518" y="0" type="line"/>
      <point x="320" y="266" type="line"/>
      <point x="511" y="530" type="line"/>
      <point x="475" y="530" type="line"/>
      <point x="300" y="284" type="line"/>
      <point x="124" y="530" type="line"/>
      <point x="89" y="530" type="line"/>
      <point x="280" y="266" type="line"/>
    </contour>
  </outline>
</glyph>
<glyph name="y" format="2">
  <advance width="600"/>
  <unicode hex="0079"/>
  <anchor x="447" y="0" name="bottom"/>
  <anchor x="307" y="530" name="top"/>
  <outline>
    <contour>
      <point x="140" y="-150" type="line"/>
      <point x="180" y="-150" type="line" smooth="yes"/>
      <point x="249" y="-150"/>
      <point x="278" y="-127"/>
      <point x="302" y="-64" type="curve" smooth="yes"/>
      <point x="525" y="530" type="line"/>
      <point x="493" y="530" type="line"/>
      <point x="307" y="30" type="line"/>
      <point x="107" y="530" type="line"/>
      <point x="75" y="530" type="line"/>
      <point x="285" y="10" type="line"/>
      <point x="301" y="10" type="line"/>
      <point x="278" y="-52" type="line" smooth="yes"/>
      <point x="258" y="-106"/>
      <point x="237" y="-122"/>
      <point x="180" y="-122" type="curve" smooth="yes"/>
      <point x="140" y="-122" type="line"/>
    </contour>
  </outline>
</glyph>
<glyph name="z" format="2">
  <advance width="600"/>
  <unicode hex="007A"/>
  <anchor x="301" y="0" name="bottom"/>
  <anchor x="301" y="530" name="top"/>
  <outline>
    <contour>
      <point x="90" y="0" type="line"/>
      <point x="510" y="0" type="line"/>
      <point x="510" y="28" type="line"/>
      <point x="124" y="28" type="line"/>
      <point x="502" y="500" type="line"/>
      <point x="502" y="530" type="line"/>
      <point x="100" y="530" type="line"/>
      <point x="100" y="502" type="line"/>
      <point x="468" y="502" type="line"/>
      <point x="90" y="30" type="line"/>
    </contour>
  </outline>
</glyph>
<glyph name="braceleft" format="2">
  <advance width="600"/>
  <unicode hex="007B"/>
  <outline>
    <contour>
      <point x="430" y="-114" type="curve" smooth="yes"/>
      <point x="480" y="-114" type="line"/>
      <point x="480" y="-84" type="line"/>
      <point x="430" y="-84" type="line" smooth="yes"/>
      <point x="342" y="-84"/>
      <point x="298" y="-22"/>
      <point x="298" y="56" type="curve" smooth="yes"/>
      <point x="298" y="148" type="line" smooth="yes"/>
      <point x="298" y="253"/>
      <point x="255" y="309"/>
      <point x="187" y="316" type="curve"/>
      <point x="187" y="320" type="line"/>
      <point x="254" y="327"/>
      <point x="298" y="384"/>
      <point x="298" y="488" type="curve" smooth="yes"/>
      <point x="298" y="580" type="line" smooth="yes"/>
      <point x="298" y="661"/>
      <point x="342" y="720"/>
      <point x="430" y="720" type="curve" smooth="yes"/>
      <point x="480" y="720" type="line"/>
      <point x="480" y="750" type="line"/>
      <point x="430" y="750" type="line" smooth="yes"/>
      <point x="329" y="750"/>
      <point x="266" y="686"/>
      <point x="266" y="580" type="curve" smooth="yes"/>
      <point x="266" y="488" type="line" smooth="yes"/>
      <point x="266" y="383"/>
      <point x="230" y="334"/>
      <point x="120" y="334" type="curve"/>
      <point x="120" y="302" type="line"/>
      <point x="230" y="302"/>
      <point x="266" y="253"/>
      <point x="266" y="148" type="curve" smooth="yes"/>
      <point x="266" y="56" type="line" smooth="yes"/>
      <point x="266" y="-50"/>
      <point x="329" y="-114"/>
    </contour>
  </outline>
</glyph>
<glyph name="asciitilde" format="2">
  <advance width="600"/>
  <unicode hex="007E"/>
  <outline>
    <contour>
      <point x="391" y="263" type="curve" smooth="yes"/>
      <point x="456" y="263"/>
      <point x="496" y="312"/>
      <point x="501" y="398" type="curve"/>
      <point x="469" y="398" type="line"/>
      <point x="466" y="336"/>
      <point x="435" y="293"/>
      <point x="390" y="293" type="curve" smooth="yes"/>
      <point x="363" y="293"/>
      <point x="343" y="304"/>
      <point x="305" y="348" type="curve" smooth="yes"/>
      <point x="275" y="382"/>
      <point x="247" y="404"/>
      <point x="207" y="404" type="curve" smooth="yes"/>
      <point x="144" y="404"/>
      <point x="104" y="355"/>
      <point x="99" y="268" type="curve"/>
      <point x="131" y="268" type="line"/>
      <point x="134" y="331"/>
      <point x="165" y="374"/>
      <point x="207" y="374" type="curve" smooth="yes"/>
      <point x="241" y="374"/>
      <point x="258" y="358"/>
      <point x="293" y="318" type="curve" smooth="yes"/>
      <point x="327" y="280"/>
      <point x="353" y="263"/>
    </contour>
  </outline>
</glyph>
<glyph name="cent" format="2">
  <advance width="600"/>
  <unicode hex="00A2"/>
  <anchor x="309" y="86" name="bottom"/>
  <anchor x="309" y="616" name="top"/>
  <outline>
    <contour>
      <point x="256" y="-16" type="line"/>
      <point x="286" y="-16" type="line"/>
      <point x="349" y="726" type="line"/>
      <point x="319" y="726" type="line"/>
    </contour>
    <component base="c" xOffset="-5" yOffset="86"/>
  </outline>
</glyph>
<glyph name="sterling" format="2">
  <advance width="600"/>
  <unicode hex="00A3"/>
  <outline>
    <contour>
      <point x="50" y="0" type="line"/>
      <point x="550" y="0" type="line"/>
      <point x="550" y="30" type="line"/>
      <point x="94" y="30" type="line"/>
      <point x="193" y="102"/>
      <point x="233" y="207"/>
      <point x="218" y="339" type="curve"/>
      <point x="412" y="339" type="line"/>
      <point x="412" y="369" type="line"/>
      <point x="212" y="369" type="line"/>
      <point x="188" y="436"/>
      <point x="179" y="485"/>
      <point x="179" y="527" type="curve" smooth="yes"/>
      <point x="179" y="620"/>
      <point x="239" y="694"/>
      <point x="330" y="694" type="curve" smooth="yes"/>
      <point x="436" y="694"/>
      <point x="485" y="638"/>
      <point x="496" y="545" type="curve"/>
      <point x="529" y="549" type="line"/>
      <point x="519" y="659"/>
      <point x="454" y="726"/>
      <point x="330" y="726" type="curve" smooth="yes"/>
      <point x="219" y="726"/>
      <point x="146" y="639"/>
      <point x="146" y="529" type="curve" smooth="yes"/>
      <point x="146" y="468"/>
      <point x="162" y="430"/>
      <point x="180" y="369" type="curve"/>
      <point x="50" y="369" type="line"/>
      <point x="50" y="339" type="line"/>
      <point x="186" y="339" type="line"/>
      <point x="190" y="317"/>
      <point x="192" y="297"/>
      <point x="192" y="269" type="curve" smooth="yes"/>
      <point x="192" y="169"/>
      <point x="132" y="86"/>
      <point x="50" y="29" type="curve"/>
    </contour>
  </outline>
</glyph>
<glyph name="currency" format="2">
  <advance width="600"/>
  <unicode hex="00A4"/>
  <outline>
    <contour>
      <point x="300" y="177" type="curve" smooth="yes"/>
      <point x="410" y="177"/>
      <point x="500" y="267"/>
      <point x="500" y="377" type="curve" smooth="yes"/>
      <point x="500" y="487"/>
      <point x="410" y="577"/>
      <point x="300" y="577" type="curve" smooth="yes"/>
      <point x="190" y="577"/>
      <point x="100" y="487"/>
      <point x="100" y="377" type="curve" smooth="yes"/>
      <point x="100" y="267"/>
      <point x="190" y="177"/>
    </contour>
    <contour>
      <point x="300" y="207" type="curve" smooth="yes"/>
      <point x="208" y="207"/>
      <point x="130" y="285"/>
      <point x="130" y="377" type="curve" smooth="yes"/>
      <point x="130" y="469"/>
      <point x="208" y="547"/>
      <point x="300" y="547" type="curve" smooth="yes"/>
      <point x="391" y="547"/>
      <point x="470" y="469"/>
      <point x="470" y="377" type="curve" smooth="yes"/>
      <point x="470" y="285"/>
      <point x="391" y="207"/>
    </contour>
    <contour>
      <point x="84" y="140" type="line"/>
      <point x="186" y="243" type="line"/>
      <point x="165" y="264" type="line"/>
      <point x="63" y="161" type="line"/>
    </contour>
    <contour>
      <point x="517" y="139" type="line"/>
      <point x="538" y="160" type="line"/>
      <point x="433" y="265" type="line"/>
      <point x="412" y="244" type="line"/>
    </contour>
    <contour>
      <point x="436" y="491" type="line"/>
      <point x="539" y="595" type="line"/>
      <point x="518" y="616" type="line"/>
      <point x="415" y="512" type="line"/>
    </contour>
    <contour>
      <point x="164" y="492" type="line"/>
      <point x="185" y="513" type="line"/>
      <point x="83" y="615" type="line"/>
      <point x="62" y="594" type="line"/>
    </contour>
  </outline>
</glyph>
<glyph name="yen" format="2">
  <advance width="600"/>
  <unicode hex="00A5"/>
  <anchor x="300" y="0" name="bottom"/>
  <anchor x="300" y="710" name="top"/>
  <outline>
    <contour>
      <point x="84" y="167" type="line"/>
      <point x="516" y="167" type="line"/>
      <point x="516" y="197" type="line"/>
      <point x="84" y="197" type="line"/>
    </contour>
    <contour>
      <point x="84" y="279" type="line"/>
      <point x="516" y="279" type="line"/>
      <point x="516" y="309" type="line"/>
      <point x="84" y="309" type="line"/>
    </contour>
    <component base="Y"/>
  </outline>
</glyph>
<glyph name="section" format="2">
  <advance width="600"/>
  <unicode hex="00A7"/>
  <outline>
    <contour>
      <point x="312" y="-64" type="curve" smooth="yes"/>
      <point x="407" y="-64"/>
      <point x="508" y="-25"/>
      <point x="508" y="80" type="curve" smooth="yes"/>
      <point x="508" y="141"/>
      <point x="464" y="182"/>
      <point x="372" y="206" type="curve"/>
      <point x="449" y="221"/>
      <point x="508" y="257"/>
      <point x="508" y="330" type="curve" smooth="yes"/>
      <point x="508" y="403"/>
      <point x="464" y="448"/>
      <point x="307" y="473" type="curve" smooth="yes"/>
      <point x="193" y="491"/>
      <point x="142" y="527"/>
      <point x="142" y="585" type="curve" smooth="yes"/>
      <point x="142" y="646"/>
      <point x="208" y="694"/>
      <point x="293" y="694" type="curve" smooth="yes"/>
      <point x="396" y="694"/>
      <point x="443" y="636"/>
      <point x="457" y="553" type="curve"/>
      <point x="491" y="556" type="line"/>
      <point x="478" y="651"/>
      <point x="412" y="726"/>
      <point x="297" y="726" type="curve" smooth="yes"/>
      <point x="188" y="726"/>
      <point x="112" y="667"/>
      <point x="112" y="584" type="curve" smooth="yes"/>
      <point x="112" y="523"/>
      <point x="159" y="480"/>
      <point x="248" y="460" type="curve"/>
      <point x="152" y="446"/>
      <point x="109" y="393"/>
      <point x="109" y="332" type="curve" smooth="yes"/>
      <point x="109" y="243"/>
      <point x="191" y="214"/>
      <point x="290" y="199" type="curve" smooth="yes"/>
      <point x="430" y="178"/>
      <point x="478" y="130"/>
      <point x="478" y="81" type="curve" smooth="yes"/>
      <point x="478" y="2"/>
      <point x="383" y="-32"/>
      <point x="312" y="-32" type="curve" smooth="yes"/>
      <point x="193" y="-32"/>
      <point x="136" y="29"/>
      <point x="126" y="119" type="curve"/>
      <point x="92" y="115" type="line"/>
      <point x="104" y="15"/>
      <point x="174" y="-64"/>
    </contour>
    <contour>
      <point x="334" y="228" type="curve" smooth="yes"/>
      <point x="194" y="228"/>
      <point x="139" y="271"/>
      <point x="139" y="335" type="curve" smooth="yes"/>
      <point x="139" y="395"/>
      <point x="201" y="438"/>
      <point x="277" y="438" type="curve" smooth="yes"/>
      <point x="403" y="438"/>
      <point x="478" y="394"/>
      <point x="478" y="332" type="curve" smooth="yes"/>
      <point x="478" y="273"/>
      <point x="417" y="228"/>
    </contour>
  </outline>
</glyph>
<glyph name="copyright" format="2">
  <advance width="600"/>
  <unicode hex="00A9"/>
  <outline>
    <contour>
      <point x="299" y="-12" type="curve" smooth="yes"/>
      <point x="464" y="-12"/>
      <point x="580" y="140"/>
      <point x="580" y="357" type="curve" smooth="yes"/>
      <point x="580" y="574"/>
      <point x="464" y="726"/>
      <point x="299" y="726" type="curve" smooth="yes"/>
      <point x="134" y="726"/>
      <point x="20" y="574"/>
      <point x="20" y="357" type="curve" smooth="yes"/>
      <point x="20" y="140"/>
      <point x="134" y="-12"/>
    </contour>
    <contour>
      <point x="299" y="18" type="curve" smooth="yes"/>
      <point x="151" y="18"/>
      <point x="50" y="158"/>
      <point x="50" y="357" type="curve" smooth="yes"/>
      <point x="50" y="556"/>
      <point x="151" y="696"/>
      <point x="299" y="696" type="curve" smooth="yes"/>
      <point x="448" y="696"/>
      <point x="550" y="556"/>
      <point x="550" y="357" type="curve" smooth="yes"/>
      <point x="550" y="158"/>
      <point x="448" y="18"/>
    </contour>
    <contour>
      <point x="305" y="144" type="curve" smooth="yes"/>
      <point x="393" y="144"/>
      <point x="456" y="205"/>
      <point x="468" y="303" type="curve"/>
      <point x="438" y="308" type="line"/>
      <point x="426" y="222"/>
      <point x="379" y="174"/>
      <point x="305" y="174" type="curve" smooth="yes"/>
      <point x="215" y="174"/>
      <point x="159" y="250"/>
      <point x="159" y="356" type="curve" smooth="yes"/>
      <point x="159" y="461"/>
      <point x="215" y="537"/>
      <point x="305" y="537" type="curve" smooth="yes"/>
      <point x="377" y="537"/>
      <point x="423" y="492"/>
      <point x="435" y="411" type="curve"/>
      <point x="465" y="416" type="line"/>
      <point x="454" y="509"/>
      <point x="392" y="567"/>
      <point x="305" y="567" type="curve" smooth="yes"/>
      <point x="197" y="567"/>
      <point x="129" y="479"/>
      <point x="129" y="356" type="curve" smooth="yes"/>
      <point x="129" y="231"/>
      <point x="197" y="144"/>
    </contour>
  </outline>
</glyph>
<glyph name="ordfeminine" format="2">
  <advance width="600"/>
  <unicode hex="00AA"/>
  <outline>
    <contour>
      <point x="247" y="376" type="curve" smooth="yes"/>
      <point x="309" y="376"/>
      <point x="364" y="415"/>
      <point x="379" y="461" type="curve"/>
      <point x="372" y="461" type="line"/>
      <point x="372" y="399"/>
      <point x="390" y="380"/>
      <point x="422" y="380" type="curve" smooth="yes"/>
      <point x="427" y="380"/>
      <point x="431" y="380"/>
      <point x="434" y="381" type="curve"/>
      <point x="434" y="405" type="line"/>
      <point x="427" y="405" type="line" smooth="yes"/>
      <point x="408" y="405"/>
      <point x="399" y="413"/>
      <point x="399" y="444" type="curve" smooth="yes"/>
      <point x="399" y="585" type="line" smooth="yes"/>
      <point x="399" y="681"/>
      <point x="356" y="726"/>
      <point x="277" y="726" type="curve" smooth="yes"/>
      <point x="203" y="726"/>
      <point x="157" y="687"/>
      <point x="146" y="621" type="curve"/>
      <point x="173" y="619" type="line"/>
      <point x="183" y="673"/>
      <point x="218" y="701"/>
      <point x="277" y="701" type="curve" smooth="yes"/>
      <point x="342" y="701"/>
      <point x="373" y="667"/>
      <point x="373" y="581" type="curve"/>
      <point x="241" y="556" type="line" smooth="yes"/>
      <point x="182" y="545"/>
      <point x="140" y="516"/>
      <point x="140" y="464" type="curve" smooth="yes"/>
      <point x="140" y="410"/>
      <point x="183" y="376"/>
    </contour>
    <contour>
      <point x="249" y="400" type="curve" smooth="yes"/>
      <point x="197" y="400"/>
      <point x="167" y="423"/>
      <point x="167" y="466" type="curve" smooth="yes"/>
      <point x="167" y="505"/>
      <point x="200" y="525"/>
      <point x="247" y="534" type="curve" smooth="yes"/>
      <point x="373" y="557" type="line"/>
      <point x="373" y="511" type="line" smooth="yes"/>
      <point x="373" y="448"/>
      <point x="319" y="400"/>
    </contour>
  </outline>
</glyph>
<glyph name="logicalnot" format="2">
  <advance width="600"/>
  <unicode hex="00AC"/>
  <outline>
    <contour>
      <point x="482" y="66" type="line"/>
      <point x="510" y="66" type="line"/>
      <point x="510" y="315" type="line"/>
      <point x="90" y="315" type="line"/>
      <point x="90" y="287" type="line"/>
      <point x="482" y="287" type="line"/>
    </contour>
  </outline>
</glyph>
<glyph name="registered" format="2">
  <advance width="600"/>
  <unicode hex="00AE"/>
  <outline>
    <contour>
      <point x="301" y="187" type="curve" smooth="yes"/>
      <point x="450" y="187"/>
      <point x="570" y="308"/>
      <point x="570" y="456" type="curve" smooth="yes"/>
      <point x="570" y="606"/>
      <point x="450" y="726"/>
      <point x="301" y="726" type="curve" smooth="yes"/>
      <point x="151" y="726"/>
      <point x="30" y="606"/>
      <point x="30" y="456" type="curve" smooth="yes"/>
      <point x="30" y="308"/>
      <point x="151" y="187"/>
    </contour>
    <contour>
      <point x="301" y="211" type="curve" smooth="yes"/>
      <point x="167" y="211"/>
      <point x="55" y="323"/>
      <point x="55" y="456" type="curve" smooth="yes"/>
      <point x="55" y="590"/>
      <point x="167" y="702"/>
      <point x="301" y="702" type="curve" smooth="yes"/>
      <point x="435" y="702"/>
      <point x="545" y="590"/>
      <point x="545" y="456" type="curve" smooth="yes"/>
      <point x="545" y="323"/>
      <point x="435" y="211"/>
    </contour>
    <contour>
      <point x="198" y="300" type="line"/>
      <point x="225" y="300" type="line"/>
      <point x="225" y="431" type="line"/>
      <point x="317" y="431" type="line"/>
      <point x="384" y="300" type="line"/>
      <point x="415" y="300" type="line"/>
      <point x="343" y="438" type="line"/>
      <point x="388" y="449"/>
      <point x="411" y="479"/>
      <point x="411" y="520" type="curve" smooth="yes"/>
      <point x="411" y="576"/>
      <point x="368" y="611"/>
      <point x="298" y="611" type="curve" smooth="yes"/>
      <point x="198" y="611" type="line"/>
    </contour>
    <contour>
      <point x="225" y="458" type="line"/>
      <point x="225" y="586" type="line"/>
      <point x="306" y="586" type="line" smooth="yes"/>
      <point x="355" y="586"/>
      <point x="386" y="561"/>
      <point x="386" y="522" type="curve" smooth="yes"/>
      <point x="386" y="482"/>
      <point x="355" y="458"/>
      <point x="306" y="458" type="curve" smooth="yes"/>
    </contour>
  </outline>
</glyph>
<glyph name="degree" format="2">
  <advance width="600"/>
  <unicode hex="00B0"/>
  <outline>
    <contour>
      <point x="300" y="464" type="curve" smooth="yes"/>
      <point x="373" y="464"/>
      <point x="432" y="519"/>
      <point x="432" y="594" type="curve" smooth="yes"/>
      <point x="432" y="671"/>
      <point x="374" y="726"/>
      <point x="300" y="726" type="curve" smooth="yes"/>
      <point x="228" y="726"/>
      <point x="168" y="671"/>
      <point x="168" y="594" type="curve" smooth="yes"/>
      <point x="168" y="519"/>
      <point x="228" y="464"/>
    </contour>
    <contour>
      <point x="300" y="494" type="curve" smooth="yes"/>
      <point x="246" y="494"/>
      <point x="198" y="535"/>
      <point x="198" y="594" type="curve" smooth="yes"/>
      <point x="198" y="653"/>
      <point x="246" y="696"/>
      <point x="300" y="696" type="curve" smooth="yes"/>
      <point x="355" y="696"/>
      <point x="402" y="653"/>
      <point x="402" y="594" type="curve" smooth="yes"/>
      <point x="402" y="535"/>
      <point x="355" y="494"/>
    </contour>
  </outline>
</glyph>
<glyph name="plusminus" format="2">
  <advance width="600"/>
  <unicode hex="00B1"/>
  <outline>
    <contour>
      <point x="71" y="0" type="line"/>
      <point x="529" y="0" type="line"/>
      <point x="529" y="30" type="line"/>
      <point x="71" y="30" type="line"/>
    </contour>
    <contour>
      <point x="286" y="86" type="line"/>
      <point x="314" y="86" type="line"/>
      <point x="314" y="544" type="line"/>
      <point x="286" y="544" type="line"/>
    </contour>
    <contour>
      <point x="71" y="301" type="line"/>
      <point x="529" y="301" type="line"/>
      <point x="529" y="329" type="line"/>
      <point x="71" y="329" type="line"/>
    </contour>
  </outline>
</glyph>
<glyph name="twosuperior" format="2">
  <advance width="600"/>
  <unicode hex="00B2"/>
  <outline>
    <contour>
      <point x="168" y="323" type="curve"/>
      <point x="425" y="323" type="line"/>
      <point x="425" y="351" type="line"/>
      <point x="202" y="351" type="line"/>
      <point x="201" y="398"/>
      <point x="230" y="434"/>
      <point x="305" y="474" type="curve" smooth="yes"/>
      <point x="335" y="490" type="line" smooth="yes"/>
      <point x="405" y="527"/>
      <point x="429" y="554"/>
      <point x="429" y="608" type="curve" smooth="yes"/>
      <point x="429" y="677"/>
      <point x="382" y="718"/>
      <point x="304" y="718" type="curve" smooth="yes"/>
      <point x="227" y="718"/>
      <point x="178" y="672"/>
      <point x="169" y="592" type="curve"/>
      <point x="199" y="589" type="line"/>
      <point x="211" y="657"/>
      <point x="245" y="690"/>
      <point x="304" y="690" type="curve" smooth="yes"/>
      <point x="364" y="690"/>
      <point x="399" y="661"/>
      <point x="399" y="608" type="curve" smooth="yes"/>
      <point x="399" y="570"/>
      <point x="389" y="550"/>
      <point x="319" y="512" type="curve" smooth="yes"/>
      <point x="286" y="494" type="line" smooth="yes"/>
      <point x="198" y="446"/>
      <point x="168" y="407"/>
    </contour>
  </outline>
</glyph>
<glyph name="threesuperior" format="2">
  <advance width="600"/>
  <unicode hex="00B3"/>
  <outline>
    <contour>
      <point x="293" y="315" type="curve" smooth="yes"/>
      <point x="379" y="315"/>
      <point x="429" y="362"/>
      <point x="429" y="431" type="curve" smooth="yes"/>
      <point x="429" y="478"/>
      <point x="401" y="516"/>
      <point x="341" y="530" type="curve"/>
      <point x="386" y="543"/>
      <point x="414" y="576"/>
      <point x="414" y="622" type="curve" smooth="yes"/>
      <point x="414" y="680"/>
      <point x="373" y="718"/>
      <point x="292" y="718" type="curve" smooth="yes"/>
      <point x="220" y="718"/>
      <point x="174" y="682"/>
      <point x="166" y="622" type="curve"/>
      <point x="198" y="618" type="line"/>
      <point x="203" y="663"/>
      <point x="230" y="690"/>
      <point x="292" y="690" type="curve" smooth="yes"/>
      <point x="357" y="690"/>
      <point x="384" y="663"/>
      <point x="384" y="622" type="curve" smooth="yes"/>
      <point x="384" y="562"/>
      <point x="341" y="543"/>
      <point x="296" y="543" type="curve" smooth="yes"/>
      <point x="268" y="543" type="line"/>
      <point x="268" y="517" type="line"/>
      <point x="296" y="517" type="line" smooth="yes"/>
      <point x="363" y="517"/>
      <point x="399" y="479"/>
      <point x="399" y="431" type="curve" smooth="yes"/>
      <point x="399" y="375"/>
      <point x="365" y="343"/>
      <point x="293" y="343" type="curve" smooth="yes"/>
      <point x="213" y="343"/>
      <point x="187" y="374"/>
      <point x="183" y="428" type="curve"/>
      <point x="152" y="425" type="line"/>
      <point x="156" y="359"/>
      <point x="198" y="315"/>
    </contour>
  </outline>
</glyph>
<glyph name="acute" format="2">
  <advance width="600"/>
  <unicode hex="00B4"/>
  <outline>
    <contour>
      <point x="274" y="500" type="line"/>
      <point x="360" y="726" type="line"/>
      <point x="318" y="726" type="line"/>
      <point x="240" y="500" type="line"/>
    </contour>
  </outline>
</glyph>
<glyph name="micro" format="2">
  <advance width="600"/>
  <unicode hex="00B5"/>
  <unicode hex="03BC"/>
  <outline>
    <contour>
      <point x="107" y="-150" type="line"/>
      <point x="137" y="-150" type="line"/>
      <point x="137" y="87" type="line"/>
      <point x="163" y="23"/>
      <point x="215" y="-12"/>
      <point x="281" y="-12" type="curve" smooth="yes"/>
      <point x="367" y="-12"/>
      <point x="443" y="27"/>
      <point x="463" y="114" type="curve"/>
      <point x="465" y="0" type="line"/>
      <point x="493" y="0" type="line"/>
      <point x="493" y="530" type="line"/>
      <point x="463" y="530" type="line"/>
      <point x="463" y="213" type="line" smooth="yes"/>
      <point x="463" y="99"/>
      <point x="400" y="18"/>
      <point x="289" y="18" type="curve" smooth="yes"/>
      <point x="180" y="18"/>
      <point x="137" y="98"/>
      <point x="137" y="213" type="curve" smooth="yes"/>
      <point x="137" y="530" type="line"/>
      <point x="107" y="530" type="line"/>
    </contour>
  </outline>
</glyph>
<glyph name="paragraph" format="2">
  <advance width="600"/>
  <unicode hex="00B6"/>
  <outline>
    <contour>
      <point x="316" y="0" type="line"/>
      <point x="348" y="0" type="line"/>
      <point x="348" y="680" type="line"/>
      <point x="428" y="680" type="line"/>
      <point x="428" y="0" type="line"/>
      <point x="460" y="0" type="line"/>
      <point x="460" y="710" type="line"/>
      <point x="323" y="710" type="line" smooth="yes"/>
      <point x="177" y="710"/>
      <point x="100" y="638"/>
      <point x="100" y="508" type="curve" smooth="yes"/>
      <point x="100" y="378"/>
      <point x="177" y="306"/>
      <point x="316" y="306" type="curve"/>
    </contour>
  </outline>
</glyph>
<glyph name="onesuperior" format="2">
  <advance width="600"/>
  <unicode hex="00B9"/>
  <outline>
    <contour>
      <point x="295" y="323" type="line"/>
      <point x="323" y="323" type="line"/>
      <point x="323" y="710" type="line"/>
      <point x="301" y="710" type="line"/>
      <point x="301" y="657"/>
      <point x="271" y="631"/>
      <point x="210" y="631" type="curve" smooth="yes"/>
      <point x="197" y="631" type="line"/>
      <point x="197" y="609" type="line"/>
      <point x="295" y="609" type="line"/>
    </contour>
  </outline>
</glyph>
<glyph name="ordmasculine" format="2">
  <advance width="600"/>
  <unicode hex="00BA"/>
  <outline>
    <contour>
      <point x="300" y="376" type="curve" smooth="yes"/>
      <point x="390" y="376"/>
      <point x="446" y="444"/>
      <point x="446" y="550" type="curve" smooth="yes"/>
      <point x="446" y="658"/>
      <point x="390" y="726"/>
      <point x="300" y="726" type="curve" smooth="yes"/>
      <point x="209" y="726"/>
      <point x="154" y="657"/>
      <point x="154" y="550" type="curve" smooth="yes"/>
      <point x="154" y="444"/>
      <point x="209" y="376"/>
    </contour>
    <contour>
      <point x="300" y="401" type="curve" smooth="yes"/>
      <point x="225" y="401"/>
      <point x="182" y="459"/>
      <point x="182" y="550" type="curve" smooth="yes"/>
      <point x="182" y="643"/>
      <point x="225" y="701"/>
      <point x="300" y="701" type="curve" smooth="yes"/>
      <point x="374" y="701"/>
      <point x="418" y="643"/>
      <point x="418" y="550" type="curve" smooth="yes"/>
      <point x="418" y="459"/>
      <point x="375" y="401"/>
    </contour>
  </outline>
</glyph>
<glyph name="questiondown" format="2">
  <advance width="600"/>
  <unicode hex="00BF"/>
  <outline>
    <contour>
      <point x="288" y="-162" type="curve" smooth="yes"/>
      <point x="421" y="-162"/>
      <point x="500" y="-75"/>
      <point x="508" y="65" type="curve"/>
      <point x="476" y="67" type="line"/>
      <point x="468" y="-55"/>
      <point x="404" y="-130"/>
      <point x="288" y="-130" type="curve" smooth="yes"/>
      <point x="184" y="-130"/>
      <point x="124" y="-66"/>
      <point x="124" y="20" type="curve" smooth="yes"/>
      <point x="124" y="90"/>
      <point x="141" y="114"/>
      <point x="234" y="184" type="curve" smooth="yes"/>
      <point x="292" y="228"/>
      <point x="319" y="270"/>
      <point x="319" y="343" type="curve"/>
      <point x="287" y="343" type="line"/>
      <point x="287" y="276"/>
      <point x="266" y="242"/>
      <point x="220" y="208" type="curve" smooth="yes"/>
      <point x="121" y="135"/>
      <point x="92" y="100"/>
      <point x="92" y="20" type="curve" smooth="yes"/>
      <point x="92" y="-78"/>
      <point x="162" y="-162"/>
    </contour>
    <component base="period" xScale="-1.0" yScale="-1.0" xOffset="603" yOffset="544"/>
  </outline>
</glyph>
<glyph name="AE" format="2">
  <advance width="600"/>
  <unicode hex="00C6"/>
  <anchor x="300" y="0" name="bottom"/>
  <anchor x="300" y="710" name="top"/>
  <outline>
    <contour>
      <point x="8" y="0" type="line"/>
      <point x="42" y="0" type="line"/>
      <point x="289" y="680" type="line"/>
      <point x="313" y="680" type="line"/>
      <point x="313" y="0" type="line"/>
      <point x="590" y="0" type="line"/>
      <point x="590" y="30" type="line"/>
      <point x="345" y="30" type="line"/>
      <point x="345" y="341" type="line"/>
      <point x="570" y="341" type="line"/>
      <point x="570" y="371" type="line"/>
      <point x="345" y="371" type="line"/>
      <point x="345" y="680" type="line"/>
      <point x="582" y="680" type="line"/>
      <point x="582" y="710" type="line"/>
      <point x="267" y="710" type="line"/>
    </contour>
    <contour>
      <point x="114" y="235" type="line"/>
      <point x="321" y="235" type="line"/>
      <point x="321" y="265" type="line"/>
      <point x="125" y="265" type="line"/>
    </contour>
  </outline>
</glyph>
<glyph name="multiply" format="2">
  <advance width="600"/>
  <unicode hex="00D7"/>
  <outline>
    <contour>
      <point x="114" y="119" type="line"/>
      <point x="134" y="99" type="line"/>
      <point x="486" y="451" type="line"/>
      <point x="466" y="471" type="line"/>
    </contour>
    <contour>
      <point x="114" y="451" type="line"/>
      <point x="466" y="99" type="line"/>
      <point x="486" y="119" type="line"/>
      <point x="134" y="471" type="line"/>
    </contour>
  </outline>
</glyph>
<glyph name="Thorn" format="2">
  <advance width="600"/>
  <unicode hex="00DE"/>
  <outline>
    <contour>
      <point x="116" y="168" type="line"/>
      <point x="298" y="168" type="line" smooth="yes"/>
      <point x="453" y="168"/>
      <point x="550" y="245"/>
      <point x="550" y="368" type="curve" smooth="yes"/>
      <point x="550" y="488"/>
      <point x="453" y="563"/>
      <point x="298" y="563" type="curve" smooth="yes"/>
      <point x="116" y="563" type="line"/>
      <point x="116" y="533" type="line"/>
      <point x="298" y="533" type="line" smooth="yes"/>
      <point x="432" y="533"/>
      <point x="516" y="469"/>
      <point x="516" y="368" type="curve" smooth="yes"/>
      <point x="516" y="264"/>
      <point x="432" y="198"/>
      <point x="298" y="198" type="curve" smooth="yes"/>
      <point x="116" y="198" type="line"/>
    </contour>
    <contour>
      <point x="100" y="0" type="line"/>
      <point x="132" y="0" type="line"/>
      <point x="132" y="710" type="line"/>
      <point x="100" y="710" type="line"/>
    </contour>
  </outline>
</glyph>
<glyph name="germandbls" format="2">
  <advance width="600"/>
  <unicode hex="00DF"/>
  <outline>
    <contour>
      <point x="85" y="0" type="line"/>
      <point x="115" y="0" type="line"/>
      <point x="115" y="502" type="line" smooth="yes"/>
      <point x="115" y="614"/>
      <point x="181" y="690"/>
      <point x="282" y="690" type="curve" smooth="yes"/>
      <point x="378" y="690"/>
      <point x="443" y="631"/>
      <point x="443" y="541" type="curve" smooth="yes"/>
      <point x="443" y="447"/>
      <point x="374" y="388"/>
      <point x="270" y="388" type="curve" smooth="yes"/>
      <point x="221" y="388" type="line"/>
      <point x="221" y="360" type="line"/>
      <point x="270" y="360" type="line" smooth="yes"/>
      <point x="395" y="360"/>
      <point x="485" y="293"/>
      <point x="485" y="190" type="curve" smooth="yes"/>
      <point x="485" y="85"/>
      <point x="417" y="28"/>
      <point x="295" y="28" type="curve" smooth="yes"/>
      <point x="211" y="28" type="line"/>
      <point x="211" y="0" type="line"/>
      <point x="295" y="0" type="line" smooth="yes"/>
      <point x="433" y="0"/>
      <point x="517" y="64"/>
      <point x="517" y="190" type="curve" smooth="yes"/>
      <point x="517" y="298"/>
      <point x="433" y="373"/>
      <point x="296" y="382" type="curve"/>
      <point x="296" y="368" type="line"/>
      <point x="403" y="374"/>
      <point x="475" y="442"/>
      <point x="475" y="541" type="curve" smooth="yes"/>
      <point x="475" y="650"/>
      <point x="398" y="720"/>
      <point x="282" y="720" type="curve" smooth="yes"/>
      <point x="161" y="720"/>
      <point x="85" y="634"/>
      <point x="85" y="502" type="curve" smooth="yes"/>
    </contour>
  </outline>
</glyph>
<glyph name="ae" format="2">
  <advance width="600"/>
  <unicode hex="00E6"/>
  <anchor x="300" y="0" name="bottom"/>
  <anchor x="300" y="530" name="top"/>
  <outline>
    <contour>
      <point x="423" y="-12" type="curve" smooth="yes"/>
      <point x="504" y="-12"/>
      <point x="555" y="39"/>
      <point x="579" y="143" type="curve"/>
      <point x="547" y="145" type="line"/>
      <point x="523" y="57"/>
      <point x="486" y="18"/>
      <point x="423" y="18" type="curve" smooth="yes"/>
      <point x="339" y="18"/>
      <point x="300" y="91"/>
      <point x="298" y="260" type="curve"/>
      <point x="580" y="260" type="line"/>
      <point x="580" y="270" type="line" smooth="yes"/>
      <point x="580" y="454"/>
      <point x="524" y="542"/>
      <point x="427" y="542" type="curve" smooth="yes"/>
      <point x="324" y="542"/>
      <point x="268" y="447"/>
      <point x="268" y="265" type="curve" smooth="yes"/>
      <point x="268" y="80"/>
      <point x="317" y="-12"/>
    </contour>
    <contour>
      <point x="135" y="-12" type="curve" smooth="yes"/>
      <point x="228" y="-12"/>
      <point x="283" y="65"/>
      <point x="287" y="192" type="curve"/>
      <point x="298" y="320" type="line"/>
      <point x="298" y="468"/>
      <point x="252" y="542"/>
      <point x="164" y="542" type="curve" smooth="yes"/>
      <point x="85" y="542"/>
      <point x="41" y="486"/>
      <point x="27" y="373" type="curve"/>
      <point x="59" y="370" type="line"/>
      <point x="68" y="461"/>
      <point x="104" y="512"/>
      <point x="164" y="512" type="curve" smooth="yes"/>
      <point x="231" y="512"/>
      <point x="266" y="427"/>
      <point x="266" y="295" type="curve"/>
      <point x="154" y="274" type="line" smooth="yes"/>
      <point x="70" y="258"/>
      <point x="20" y="204"/>
      <point x="20" y="131" type="curve" smooth="yes"/>
      <point x="20" y="41"/>
      <point x="62" y="-12"/>
    </contour>
    <contour>
      <point x="140" y="18" type="curve" smooth="yes"/>
      <point x="86" y="18"/>
      <point x="53" y="55"/>
      <point x="53" y="131" type="curve" smooth="yes"/>
      <point x="53" y="192"/>
      <point x="92" y="233"/>
      <point x="166" y="246" type="curve" smooth="yes"/>
      <point x="266" y="264" type="line"/>
      <point x="266" y="219" type="line" smooth="yes"/>
      <point x="266" y="100"/>
      <point x="219" y="18"/>
    </contour>
    <contour>
      <point x="298" y="288" type="line"/>
      <point x="303" y="426"/>
      <point x="348" y="512"/>
      <point x="427" y="512" type="curve" smooth="yes"/>
      <point x="504" y="512"/>
      <point x="548" y="420"/>
      <point x="548" y="288" type="curve"/>
    </contour>
  </outline>
</glyph>
<glyph name="eth" format="2">
  <advance width="600"/>
  <unicode hex="00F0"/>
  <outline>
    <contour>
      <point x="252" y="562" type="line"/>
      <point x="550" y="669" type="line"/>
      <point x="540" y="697" type="line"/>
      <point x="242" y="590" type="line"/>
    </contour>
    <contour>
      <point x="492" y="255" type="curve"/>
      <point x="520" y="255" type="line"/>
      <point x="520" y="513"/>
      <point x="444" y="664"/>
      <point x="188" y="722" type="curve"/>
      <point x="178" y="694" type="line"/>
      <point x="408" y="650"/>
      <point x="492" y="511"/>
    </contour>
    <contour>
      <point x="295" y="-12" type="curve" smooth="yes"/>
      <point x="430" y="-12"/>
      <point x="520" y="85"/>
      <point x="520" y="255" type="curve" smooth="yes"/>
      <point x="520" y="395"/>
      <point x="430" y="502"/>
      <point x="295" y="502" type="curve" smooth="yes"/>
      <point x="160" y="502"/>
      <point x="70" y="405"/>
      <point x="70" y="245" type="curve" smooth="yes"/>
      <point x="70" y="85"/>
      <point x="160" y="-12"/>
    </contour>
    <contour>
      <point x="295" y="18" type="curve" smooth="yes"/>
      <point x="176" y="18"/>
      <point x="102" y="103"/>
      <point x="102" y="245" type="curve" smooth="yes"/>
      <point x="102" y="387"/>
      <point x="176" y="472"/>
      <point x="295" y="472" type="curve" smooth="yes"/>
      <point x="414" y="472"/>
      <point x="488" y="387"/>
      <point x="488" y="255" type="curve" smooth="yes"/>
      <point x="488" y="103"/>
      <point x="414" y="18"/>
    </contour>
  </outline>
</glyph>
<glyph name="divide" format="2">
  <advance width="600"/>
  <unicode hex="00F7"/>
  <outline>
    <contour>
      <point x="300" y="68" type="curve" smooth="yes"/>
      <point x="320" y="68"/>
      <point x="334" y="83"/>
      <point x="334" y="102" type="curve" smooth="yes"/>
      <point x="334" y="122"/>
      <point x="320" y="136"/>
      <point x="300" y="136" type="curve" smooth="yes"/>
      <point x="280" y="136"/>
      <point x="266" y="122"/>
      <point x="266" y="102" type="curve" smooth="yes"/>
      <point x="266" y="83"/>
      <point x="280" y="68"/>
    </contour>
    <contour>
      <point x="300" y="410" type="curve" smooth="yes"/>
      <point x="320" y="410"/>
      <point x="334" y="425"/>
      <point x="334" y="444" type="curve" smooth="yes"/>
      <point x="334" y="464"/>
      <point x="320" y="478"/>
      <point x="300" y="478" type="curve" smooth="yes"/>
      <point x="280" y="478"/>
      <point x="266" y="464"/>
      <point x="266" y="444" type="curve" smooth="yes"/>
      <point x="266" y="425"/>
      <point x="280" y="410"/>
    </contour>
    <contour>
      <point x="80" y="260" type="line"/>
      <point x="520" y="260" type="line"/>
      <point x="520" y="290" type="line"/>
      <point x="80" y="290" type="line"/>
    </contour>
  </outline>
</glyph>
<glyph name="thorn" format="2">
  <advance width="600"/>
  <unicode hex="00FE"/>
  <anchor x="300" y="0" name="bottom"/>
  <anchor x="300" y="530" name="top"/>
  <outline>
    <contour>
      <point x="85" y="-150" type="line"/>
      <point x="117" y="-150" type="line"/>
      <point x="117" y="142" type="line"/>
      <point x="113" y="139" type="line"/>
      <point x="150" y="40"/>
      <point x="221" y="-12"/>
      <point x="300" y="-12" type="curve" smooth="yes"/>
      <point x="436" y="-12"/>
      <point x="522" y="95"/>
      <point x="522" y="265" type="curve" smooth="yes"/>
      <point x="522" y="433"/>
      <point x="436" y="539"/>
      <point x="300" y="539" type="curve" smooth="yes"/>
      <point x="218" y="539"/>
      <point x="140" y="481"/>
      <point x="114" y="382" type="curve"/>
      <point x="117" y="379" type="line"/>
      <point x="117" y="710" type="line"/>
      <point x="85" y="710" type="line"/>
    </contour>
    <contour>
      <point x="304" y="17" type="curve" smooth="yes"/>
      <point x="199" y="17"/>
      <point x="117" y="126"/>
      <point x="117" y="265" type="curve" smooth="yes"/>
      <point x="117" y="402"/>
      <point x="199" y="509"/>
      <point x="304" y="509" type="curve" smooth="yes"/>
      <point x="420" y="509"/>
      <point x="493" y="415"/>
      <point x="493" y="265" type="curve" smooth="yes"/>
      <point x="493" y="113"/>
      <point x="420" y="17"/>
    </contour>
  </outline>
</glyph>
<glyph name="dcaron" format="2">
  <advance width="600"/>
  <unicode hex="010F"/>
  <outline>
    <contour>
      <point x="251" y="-12" type="curve" smooth="yes"/>
      <point x="341" y="-12"/>
      <point x="411" y="58"/>
      <point x="438" y="143" type="curve"/>
      <point x="435" y="148" type="line"/>
      <point x="438" y="0" type="line"/>
      <point x="460" y="0" type="line"/>
      <point x="460" y="710" type="line"/>
      <point x="430" y="710" type="line"/>
      <point x="430" y="386" type="line"/>
      <point x="433" y="390" type="line"/>
      <point x="407" y="477"/>
      <point x="337" y="542"/>
      <point x="251" y="542" type="curve" smooth="yes"/>
      <point x="115" y="542"/>
      <point x="40" y="433"/>
      <point x="40" y="265" type="curve" smooth="yes"/>
      <point x="40" y="95"/>
      <point x="115" y="-12"/>
    </contour>
    <contour>
      <point x="251" y="18" type="curve" smooth="yes"/>
      <point x="135" y="18"/>
      <point x="72" y="113"/>
      <point x="72" y="265" type="curve" smooth="yes"/>
      <point x="72" y="415"/>
      <point x="135" y="512"/>
      <point x="251" y="512" type="curve" smooth="yes"/>
      <point x="356" y="512"/>
      <point x="430" y="408"/>
      <point x="430" y="265" type="curve" smooth="yes"/>
      <point x="430" y="119"/>
      <point x="356" y="18"/>
    </contour>
    <contour>
      <point x="508" y="502" type="line"/>
      <point x="534" y="502" type="line"/>
      <point x="580" y="710" type="line"/>
      <point x="542" y="710" type="line"/>
    </contour>
  </outline>
</glyph>
<glyph name="idotless" format="2">
  <advance width="600"/>
  <unicode hex="0131"/>
  <anchor x="300" y="0" name="bottom"/>
  <anchor x="540" y="0" name="ogonek"/>
  <anchor x="335" y="530" name="top"/>
  <outline>
    <contour>
      <point x="100" y="0" type="line"/>
      <point x="320" y="0" type="line"/>
      <point x="350" y="0" type="line"/>
      <point x="540" y="0" type="line"/>
      <point x="540" y="28" type="line"/>
      <point x="350" y="28" type="line"/>
      <point x="350" y="530" type="line"/>
      <point x="110" y="530" type="line"/>
      <point x="110" y="502" type="line"/>
      <point x="334" y="502" type="line"/>
      <point x="320" y="516" type="line"/>
      <point x="320" y="28" type="line"/>
      <point x="100" y="28" type="line"/>
    </contour>
  </outline>
</glyph>
<glyph name="Eng" format="2">
  <advance width="600"/>
  <unicode hex="014A"/>
  <anchor x="310" y="0" name="bottom"/>
  <anchor x="308" y="710" name="top"/>
  <outline>
    <contour>
      <point x="299" y="-150" type="line"/>
      <point x="396" y="-150" type="line" smooth="yes"/>
      <point x="474" y="-150"/>
      <point x="520" y="-100"/>
      <point x="520" y="-30" type="curve" smooth="yes"/>
      <point x="520" y="33" type="line"/>
      <point x="488" y="33" type="line"/>
      <point x="488" y="-30" type="line" smooth="yes"/>
      <point x="488" y="-91"/>
      <point x="450" y="-120"/>
      <point x="396" y="-120" type="curve" smooth="yes"/>
      <point x="299" y="-120" type="line"/>
    </contour>
    <component base="N"/>
  </outline>
</glyph>
<glyph name="eng" format="2">
  <advance width="600"/>
  <unicode hex="014B"/>
  <anchor x="300" y="0" name="bottom"/>
  <anchor x="300" y="530" name="top"/>
  <outline>
    <contour>
      <point x="296" y="-150" type="line"/>
      <point x="372" y="-150" type="line" smooth="yes"/>
      <point x="445" y="-150"/>
      <point x="496" y="-100"/>
      <point x="496" y="-30" type="curve" smooth="yes"/>
      <point x="496" y="33" type="line"/>
      <point x="466" y="33" type="line"/>
      <point x="466" y="-30" type="line" smooth="yes"/>
      <point x="466" y="-83"/>
      <point x="428" y="-120"/>
      <point x="374" y="-120" type="curve" smooth="yes"/>
      <point x="296" y="-120" type="line"/>
    </contour>
    <component base="n"/>
  </outline>
</glyph>
<glyph name="OE" format="2">
  <advance width="600"/>
  <unicode hex="0152"/>
  <anchor x="300" y="0" name="bottom"/>
  <anchor x="300" y="710" name="top"/>
  <outline>
    <contour>
      <point x="175" y="-16" type="curve" smooth="yes"/>
      <point x="287" y="-16"/>
      <point x="336" y="124"/>
      <point x="336" y="354" type="curve" smooth="yes"/>
      <point x="336" y="584"/>
      <point x="287" y="726"/>
      <point x="175" y="726" type="curve" smooth="yes"/>
      <point x="65" y="726"/>
      <point x="10" y="603"/>
      <point x="10" y="354" type="curve" smooth="yes"/>
      <point x="10" y="107"/>
      <point x="65" y="-16"/>
    </contour>
    <contour>
      <point x="175" y="16" type="curve" smooth="yes"/>
      <point x="87" y="16"/>
      <point x="44" y="127"/>
      <point x="44" y="354" type="curve" smooth="yes"/>
      <point x="44" y="582"/>
      <point x="87" y="694"/>
      <point x="175" y="694" type="curve" smooth="yes"/>
      <point x="263" y="694"/>
      <point x="306" y="581"/>
      <point x="306" y="354" type="curve" smooth="yes"/>
      <point x="306" y="128"/>
      <point x="263" y="16"/>
    </contour>
    <contour>
      <point x="308" y="0" type="line"/>
      <point x="590" y="0" type="line"/>
      <point x="590" y="30" type="line"/>
      <point x="340" y="30" type="line"/>
      <point x="340" y="339" type="line"/>
      <point x="570" y="339" type="line"/>
      <point x="570" y="369" type="line"/>
      <point x="340" y="369" type="line"/>
      <point x="340" y="680" type="line"/>
      <point x="582" y="680" type="line"/>
      <point x="582" y="710" type="line"/>
      <point x="308" y="710" type="line"/>
    </contour>
  </outline>
</glyph>
<glyph name="oe" format="2">
  <advance width="600"/>
  <unicode hex="0153"/>
  <outline>
    <contour>
      <point x="430" y="-12" type="curve" smooth="yes"/>
      <point x="507" y="-12"/>
      <point x="557" y="39"/>
      <point x="581" y="143" type="curve"/>
      <point x="549" y="145" type="line"/>
      <point x="525" y="57"/>
      <point x="489" y="18"/>
      <point x="430" y="18" type="curve" smooth="yes"/>
      <point x="342" y="18"/>
      <point x="303" y="92"/>
      <point x="301" y="260" type="curve"/>
      <point x="582" y="260" type="line"/>
      <point x="582" y="272" type="line" smooth="yes"/>
      <point x="582" y="444"/>
      <point x="528" y="542"/>
      <point x="430" y="542" type="curve" smooth="yes"/>
      <point x="328" y="542"/>
      <point x="273" y="445"/>
      <point x="273" y="265" type="curve" smooth="yes"/>
      <point x="273" y="77"/>
      <point x="324" y="-12"/>
    </contour>
    <contour>
      <point x="160" y="-12" type="curve" smooth="yes"/>
      <point x="249" y="-12"/>
      <point x="297" y="85"/>
      <point x="297" y="265" type="curve" smooth="yes"/>
      <point x="297" y="445"/>
      <point x="249" y="542"/>
      <point x="160" y="542" type="curve" smooth="yes"/>
      <point x="69" y="542"/>
      <point x="18" y="443"/>
      <point x="18" y="265" type="curve" smooth="yes"/>
      <point x="18" y="87"/>
      <point x="69" y="-12"/>
    </contour>
    <contour>
      <point x="160" y="18" type="curve" smooth="yes"/>
      <point x="89" y="18"/>
      <point x="50" y="106"/>
      <point x="50" y="265" type="curve" smooth="yes"/>
      <point x="50" y="424"/>
      <point x="89" y="512"/>
      <point x="160" y="512" type="curve" smooth="yes"/>
      <point x="230" y="512"/>
      <point x="269" y="423"/>
      <point x="269" y="265" type="curve" smooth="yes"/>
      <point x="269" y="107"/>
      <point x="230" y="18"/>
    </contour>
    <contour>
      <point x="301" y="288" type="line"/>
      <point x="306" y="430"/>
      <point x="353" y="512"/>
      <point x="430" y="512" type="curve" smooth="yes"/>
      <point x="505" y="512"/>
      <point x="545" y="437"/>
      <point x="550" y="288" type="curve"/>
    </contour>
  </outline>
</glyph>
<glyph name="tcaron" format="2">
  <advance width="600"/>
  <unicode hex="0165"/>
  <anchor x="380" y="0" name="bottom"/>
  <anchor x="270" y="325" name="center"/>
  <anchor x="261" y="530" name="top"/>
  <anchor x="333" y="596" name="topright"/>
  <outline>
    <contour>
      <point x="364" y="578" type="line"/>
      <point x="390" y="578" type="line"/>
      <point x="436" y="786" type="line"/>
      <point x="398" y="786" type="line"/>
    </contour>
    <component base="t"/>
  </outline>
</glyph>
<glyph name="Schwa" format="2">
  <advance width="600"/>
  <unicode hex="018F"/>
  <outline>
    <contour>
      <point x="301" y="-15" type="curve" smooth="yes"/>
      <point x="454" y="-15"/>
      <point x="560" y="128"/>
      <point x="560" y="356" type="curve" smooth="yes"/>
      <point x="560" y="573"/>
      <point x="458" y="726"/>
      <point x="301" y="726" type="curve" smooth="yes"/>
      <point x="196" y="726"/>
      <point x="99" y="641"/>
      <point x="60" y="509" type="curve"/>
      <point x="94" y="506" type="line"/>
      <point x="133" y="621"/>
      <point x="216" y="694"/>
      <point x="301" y="694" type="curve" smooth="yes"/>
      <point x="435" y="694"/>
      <point x="524" y="558"/>
      <point x="527" y="365" type="curve"/>
      <point x="48" y="365" type="line"/>
      <point x="48" y="356" type="line" smooth="yes"/>
      <point x="48" y="138"/>
      <point x="148" y="-15"/>
    </contour>
    <contour>
      <point x="301" y="17" type="curve" smooth="yes"/>
      <point x="176" y="17"/>
      <point x="90" y="148"/>
      <point x="82" y="335" type="curve"/>
      <point x="527" y="335" type="line"/>
      <point x="519" y="138"/>
      <point x="426" y="17"/>
    </contour>
  </outline>
</glyph>
<glyph name="florin" format="2">
  <advance width="600"/>
  <unicode hex="0192"/>
  <outline>
    <contour>
      <point x="80" y="0" type="line"/>
      <point x="150" y="0" type="line" smooth="yes"/>
      <point x="219" y="0"/>
      <point x="263" y="49"/>
      <point x="273" y="136" type="curve" smooth="yes"/>
      <point x="323" y="580" type="line" smooth="yes"/>
      <point x="330" y="644"/>
      <point x="361" y="680"/>
      <point x="410" y="680" type="curve" smooth="yes"/>
      <point x="520" y="680" type="line"/>
      <point x="520" y="710" type="line"/>
      <point x="414" y="710" type="line" smooth="yes"/>
      <point x="345" y="710"/>
      <point x="301" y="662"/>
      <point x="292" y="576" type="curve" smooth="yes"/>
      <point x="243" y="132" type="line" smooth="yes"/>
      <point x="236" y="69"/>
      <point x="202" y="30"/>
      <point x="156" y="30" type="curve" smooth="yes"/>
      <point x="80" y="30" type="line"/>
    </contour>
    <contour>
      <point x="161" y="500" type="line"/>
      <point x="520" y="500" type="line"/>
      <point x="520" y="530" type="line"/>
      <point x="161" y="530" type="line"/>
    </contour>
  </outline>
</glyph>
<glyph name="Uhorn" format="2">
  <advance width="600"/>
  <unicode hex="01AF"/>
  <anchor x="256" y="0" name="bottom"/>
  <anchor x="256" y="710" name="top"/>
  <outline>
    <contour>
      <point x="256" y="-16" type="curve" smooth="yes"/>
      <point x="397" y="-16"/>
      <point x="476" y="79"/>
      <point x="476" y="248" type="curve" smooth="yes"/>
      <point x="476" y="710" type="line"/>
      <point x="444" y="710" type="line"/>
      <point x="444" y="248" type="line" smooth="yes"/>
      <point x="444" y="99"/>
      <point x="377" y="16"/>
      <point x="256" y="16" type="curve" smooth="yes"/>
      <point x="135" y="16"/>
      <point x="68" y="99"/>
      <point x="68" y="248" type="curve" smooth="yes"/>
      <point x="68" y="710" type="line"/>
      <point x="36" y="710" type="line"/>
      <point x="36" y="248" type="line" smooth="yes"/>
      <point x="36" y="79"/>
      <point x="115" y="-16"/>
    </contour>
    <contour>
      <point x="448" y="690" type="line"/>
      <point x="480" y="690" type="line" smooth="yes"/>
      <point x="540" y="690"/>
      <point x="564" y="716"/>
      <point x="564" y="762" type="curve" smooth="yes"/>
      <point x="564" y="789"/>
      <point x="556" y="819"/>
      <point x="550" y="834" type="curve"/>
      <point x="520" y="834" type="line"/>
      <point x="526" y="816"/>
      <point x="534" y="788"/>
      <point x="534" y="760" type="curve" smooth="yes"/>
      <point x="534" y="726"/>
      <point x="516" y="710"/>
      <point x="476" y="710" type="curve" smooth="yes"/>
      <point x="444" y="710" type="line"/>
    </contour>
  </outline>
</glyph>
<glyph name="uhorn" format="2">
  <advance width="600"/>
  <unicode hex="01B0"/>
  <anchor x="250" y="0" name="bottom"/>
  <anchor x="443" y="0" name="ogonek"/>
  <anchor x="250" y="530" name="top"/>
  <outline>
    <contour>
      <point x="231" y="-12" type="curve" smooth="yes"/>
      <point x="338" y="-12"/>
      <point x="408" y="46"/>
      <point x="419" y="145" type="curve"/>
      <point x="414" y="145" type="line"/>
      <point x="417" y="0" type="line"/>
      <point x="443" y="0" type="line"/>
      <point x="443" y="530" type="line"/>
      <point x="413" y="530" type="line"/>
      <point x="413" y="213" type="line" smooth="yes"/>
      <point x="413" y="94"/>
      <point x="345" y="18"/>
      <point x="239" y="18" type="curve" smooth="yes"/>
      <point x="141" y="18"/>
      <point x="87" y="81"/>
      <point x="87" y="202" type="curve" smooth="yes"/>
      <point x="87" y="530" type="line"/>
      <point x="57" y="530" type="line"/>
      <point x="57" y="189" type="line" smooth="yes"/>
      <point x="57" y="63"/>
      <point x="125" y="-12"/>
    </contour>
    <contour>
      <point x="417" y="510" type="line"/>
      <point x="459" y="510" type="line" smooth="yes"/>
      <point x="519" y="510"/>
      <point x="543" y="536"/>
      <point x="543" y="582" type="curve" smooth="yes"/>
      <point x="543" y="609"/>
      <point x="535" y="639"/>
      <point x="529" y="654" type="curve"/>
      <point x="499" y="654" type="line"/>
      <point x="505" y="636"/>
      <point x="513" y="608"/>
      <point x="513" y="580" type="curve" smooth="yes"/>
      <point x="513" y="546"/>
      <point x="495" y="530"/>
      <point x="451" y="530" type="curve" smooth="yes"/>
      <point x="413" y="530" type="line"/>
    </contour>
  </outline>
</glyph>
<glyph name="Gstroke" format="2">
  <advance width="600"/>
  <unicode hex="01E4"/>
  <outline>
    <contour>
      <point x="304" y="-16" type="curve" smooth="yes"/>
      <point x="444" y="-16"/>
      <point x="536" y="98"/>
      <point x="536" y="306" type="curve" smooth="yes"/>
      <point x="536" y="330" type="line"/>
      <point x="300" y="330" type="line"/>
      <point x="300" y="302" type="line"/>
      <point x="506" y="302" type="line"/>
      <point x="506" y="117"/>
      <point x="424" y="16"/>
      <point x="304" y="16" type="curve" smooth="yes"/>
      <point x="163" y="16"/>
      <point x="78" y="146"/>
      <point x="78" y="354" type="curve" smooth="yes"/>
      <point x="78" y="563"/>
      <point x="163" y="694"/>
      <point x="304" y="694" type="curve" smooth="yes"/>
      <point x="393" y="694"/>
      <point x="470" y="618"/>
      <point x="499" y="497" type="curve"/>
      <point x="532" y="501" type="line"/>
      <point x="503" y="639"/>
      <point x="413" y="726"/>
      <point x="304" y="726" type="curve" smooth="yes"/>
      <point x="142" y="726"/>
      <point x="44" y="583"/>
      <point x="44" y="354" type="curve" smooth="yes"/>
      <point x="44" y="127"/>
      <point x="142" y="-16"/>
    </contour>
    <contour>
      <point x="300" y="170" type="line"/>
      <point x="576" y="170" type="line"/>
      <point x="576" y="196" type="line"/>
      <point x="300" y="196" type="line"/>
    </contour>
  </outline>
</glyph>
<glyph name="gstroke" format="2">
  <advance width="600"/>
  <unicode hex="01E5"/>
  <anchor x="290" y="-150" name="bottom"/>
  <anchor x="281" y="530" name="top"/>
  <outline>
    <contour>
      <point x="285" y="266" type="line"/>
      <point x="570" y="266" type="line"/>
      <point x="570" y="294" type="line"/>
      <point x="285" y="294" type="line"/>
    </contour>
    <component base="g" xOffset="-10"/>
  </outline>
</glyph>
<glyph name="jdotless" format="2">
  <advance width="600"/>
  <unicode hex="0237"/>
  <anchor x="300" y="-150" name="bottom"/>
  <anchor x="402" y="530" name="top"/>
  <outline>
    <contour>
      <point x="130" y="-150" type="line"/>
      <point x="276" y="-150" type="line" smooth="yes"/>
      <point x="374" y="-150"/>
      <point x="420" y="-102"/>
      <point x="420" y="0" type="curve" smooth="yes"/>
      <point x="420" y="530" type="line"/>
      <point x="130" y="530" type="line"/>
      <point x="130" y="502" type="line"/>
      <point x="404" y="502" type="line"/>
      <point x="390" y="516" type="line"/>
      <point x="390" y="0" type="line" smooth="yes"/>
      <point x="390" y="-83"/>
      <point x="353" y="-122"/>
      <point x="276" y="-122" type="curve" smooth="yes"/>
      <point x="130" y="-122" type="line"/>
    </contour>
  </outline>
</glyph>
<glyph name="verticallinemod" format="2">
  <advance width="600"/>
  <unicode hex="02C8"/>
  <outline>
    <contour>
      <point x="286" y="427" type="line"/>
      <point x="314" y="427" type="line"/>
      <point x="320" y="640" type="line"/>
      <point x="320" y="710" type="line"/>
      <point x="280" y="710" type="line"/>
      <point x="280" y="640" type="line"/>
    </contour>
  </outline>
</glyph>
<glyph name="gravecomb" format="2">
  <unicode hex="0300"/>
  <anchor x="345" y="530" name="_top"/>
  <anchor x="345" y="734" name="top"/>
  <outline>
    <contour>
      <point x="334" y="610" type="line"/>
      <point x="360" y="610" type="line"/>
      <point x="288" y="726" type="line"/>
      <point x="254" y="726" type="line"/>
    </contour>
  </outline>
</glyph>
<glyph name="acutecomb" format="2">
  <unicode hex="0301"/>
  <anchor x="263" y="530" name="_top"/>
  <anchor x="263" y="734" name="top"/>
  <outline>
    <contour>
      <point x="247" y="610" type="line"/>
      <point x="273" y="610" type="line"/>
      <point x="353" y="726" type="line"/>
      <point x="319" y="726" type="line"/>
    </contour>
  </outline>
</glyph>
<glyph name="circumflexcomb" format="2">
  <unicode hex="0302"/>
  <anchor x="300" y="530" name="_top"/>
  <outline>
    <contour>
      <point x="200" y="610" type="line"/>
      <point x="228" y="610" type="line"/>
      <point x="305" y="716" type="line"/>
      <point x="295" y="716" type="line"/>
      <point x="372" y="610" type="line"/>
      <point x="400" y="610" type="line"/>
      <point x="311" y="734" type="line"/>
      <point x="289" y="734" type="line"/>
    </contour>
  </outline>
</glyph>
<glyph name="tildecomb" format="2">
  <unicode hex="0303"/>
  <anchor x="300" y="530" name="_top"/>
  <outline>
    <contour>
      <point x="362" y="630" type="curve" smooth="yes"/>
      <point x="404" y="630"/>
      <point x="428" y="665"/>
      <point x="432" y="723" type="curve"/>
      <point x="406" y="723" type="line"/>
      <point x="402" y="673"/>
      <point x="388" y="654"/>
      <point x="362" y="654" type="curve" smooth="yes"/>
      <point x="346" y="654"/>
      <point x="334" y="660"/>
      <point x="316" y="678" type="curve" smooth="yes"/>
      <point x="296" y="699"/>
      <point x="276" y="714"/>
      <point x="244" y="714" type="curve" smooth="yes"/>
      <point x="202" y="714"/>
      <point x="172" y="681"/>
      <point x="168" y="625" type="curve"/>
      <point x="194" y="625" type="line"/>
      <point x="196" y="669"/>
      <point x="214" y="690"/>
      <point x="244" y="690" type="curve" smooth="yes"/>
      <point x="268" y="690"/>
      <point x="282" y="680"/>
      <point x="298" y="662" type="curve" smooth="yes"/>
      <point x="317" y="641"/>
      <point x="334" y="630"/>
    </contour>
  </outline>
</glyph>
<glyph name="macroncomb" format="2">
  <unicode hex="0304"/>
  <anchor x="300" y="530" name="_top"/>
  <outline>
    <contour>
      <point x="176" y="644" type="line"/>
      <point x="424" y="644" type="line"/>
      <point x="424" y="672" type="line"/>
      <point x="176" y="672" type="line"/>
    </contour>
  </outline>
</glyph>
<glyph name="brevecomb" format="2">
  <unicode hex="0306"/>
  <anchor x="300" y="530" name="_top"/>
  <outline>
    <contour>
      <point x="300" y="618" type="curve" smooth="yes"/>
      <point x="370" y="618"/>
      <point x="414" y="664"/>
      <point x="424" y="734" type="curve"/>
      <point x="398" y="734" type="line"/>
      <point x="390" y="676"/>
      <point x="352" y="646"/>
      <point x="300" y="646" type="curve" smooth="yes"/>
      <point x="248" y="646"/>
      <point x="210" y="676"/>
      <point x="202" y="734" type="curve"/>
      <point x="176" y="734" type="line"/>
      <point x="186" y="664"/>
      <point x="230" y="618"/>
    </contour>
  </outline>
</glyph>
<glyph name="dotaccentcomb" format="2">
  <unicode hex="0307"/>
  <anchor x="300" y="530" name="_top"/>
  <anchor x="300" y="698" name="top"/>
  <outline>
    <contour>
      <point x="283" y="628" type="line"/>
      <point x="317" y="628" type="line"/>
      <point x="317" y="698" type="line"/>
      <point x="283" y="698" type="line"/>
    </contour>
  </outline>
</glyph>
<glyph name="dieresiscomb" format="2">
  <unicode hex="0308"/>
  <anchor x="300" y="530" name="_top"/>
  <outline>
    <contour>
      <point x="219" y="628" type="line"/>
      <point x="253" y="628" type="line"/>
      <point x="253" y="698" type="line"/>
      <point x="219" y="698" type="line"/>
    </contour>
    <contour>
      <point x="347" y="628" type="line"/>
      <point x="381" y="628" type="line"/>
      <point x="381" y="698" type="line"/>
      <point x="347" y="698" type="line"/>
    </contour>
  </outline>
</glyph>
<glyph name="hookabovecomb" format="2">
  <unicode hex="0309"/>
  <anchor x="296" y="530" name="_top"/>
  <anchor x="296" y="730" name="top"/>
  <outline>
    <contour>
      <point x="308" y="592" type="line"/>
      <point x="336" y="616"/>
      <point x="356" y="634"/>
      <point x="356" y="672" type="curve" smooth="yes"/>
      <point x="356" y="704"/>
      <point x="336" y="730"/>
      <point x="294" y="730" type="curve" smooth="yes"/>
      <point x="272" y="730"/>
      <point x="256" y="726"/>
      <point x="244" y="720" type="curve"/>
      <point x="244" y="698" type="line"/>
      <point x="258" y="704"/>
      <point x="274" y="708"/>
      <point x="292" y="708" type="curve" smooth="yes"/>
      <point x="320" y="708"/>
      <point x="332" y="694"/>
      <point x="332" y="670" type="curve" smooth="yes"/>
      <point x="332" y="636"/>
      <point x="311" y="618"/>
      <point x="282" y="592" type="curve"/>
    </contour>
  </outline>
</glyph>
<glyph name="ringcomb" format="2">
  <unicode hex="030A"/>
  <anchor x="301" y="530" name="_top"/>
  <outline>
    <contour>
      <point x="300" y="592" type="curve" smooth="yes"/>
      <point x="342" y="592"/>
      <point x="372" y="622"/>
      <point x="372" y="663" type="curve" smooth="yes"/>
      <point x="372" y="704"/>
      <point x="341" y="734"/>
      <point x="300" y="734" type="curve" smooth="yes"/>
      <point x="258" y="734"/>
      <point x="228" y="704"/>
      <point x="228" y="663" type="curve" smooth="yes"/>
      <point x="228" y="621"/>
      <point x="258" y="592"/>
    </contour>
    <contour>
      <point x="300" y="617" type="curve" smooth="yes"/>
      <point x="272" y="617"/>
      <point x="254" y="635"/>
      <point x="254" y="663" type="curve" smooth="yes"/>
      <point x="254" y="691"/>
      <point x="272" y="708"/>
      <point x="300" y="708" type="curve" smooth="yes"/>
      <point x="328" y="708"/>
      <point x="346" y="691"/>
      <point x="346" y="663" type="curve" smooth="yes"/>
      <point x="346" y="635"/>
      <point x="328" y="617"/>
    </contour>
  </outline>
</glyph>
<glyph name="horncomb" format="2">
  <unicode hex="031B"/>
  <anchor x="235" y="530" name="_topright"/>
  <outline>
    <contour>
      <point x="239" y="510" type="line"/>
      <point x="281" y="510" type="line" smooth="yes"/>
      <point x="341" y="510"/>
      <point x="365" y="536"/>
      <point x="365" y="582" type="curve" smooth="yes"/>
      <point x="365" y="609"/>
      <point x="357" y="639"/>
      <point x="351" y="654" type="curve"/>
      <point x="321" y="654" type="line"/>
      <point x="327" y="636"/>
      <point x="335" y="608"/>
      <point x="335" y="580" type="curve" smooth="yes"/>
      <point x="335" y="546"/>
      <point x="317" y="530"/>
      <point x="273" y="530" type="curve" smooth="yes"/>
      <point x="235" y="530" type="line"/>
    </contour>
  </outline>
</glyph>
<glyph name="dotbelowcomb" format="2">
  <unicode hex="0323"/>
  <anchor x="300" y="0" name="_bottom"/>
  <anchor x="300" y="-150" name="bottom"/>
  <outline>
    <contour>
      <point x="283" y="-150" type="line"/>
      <point x="317" y="-150" type="line"/>
      <point x="317" y="-90" type="line"/>
      <point x="283" y="-90" type="line"/>
    </contour>
  </outline>
</glyph>
<glyph name="cedillacomb" format="2">
  <unicode hex="0327"/>
  <anchor x="307" y="0" name="_bottom"/>
  <outline>
    <contour>
      <point x="299" y="-204" type="curve" smooth="yes"/>
      <point x="355" y="-204"/>
      <point x="393" y="-176"/>
      <point x="393" y="-126" type="curve" smooth="yes"/>
      <point x="393" y="-74"/>
      <point x="357" y="-50"/>
      <point x="295" y="-48" type="curve"/>
      <point x="323" y="4" type="line"/>
      <point x="295" y="4" type="line"/>
      <point x="265" y="-54" type="line"/>
      <point x="279" y="-72" type="line"/>
      <point x="342" y="-72"/>
      <point x="365" y="-89"/>
      <point x="365" y="-124" type="curve" smooth="yes"/>
      <point x="365" y="-162"/>
      <point x="339" y="-178"/>
      <point x="297" y="-178" type="curve" smooth="yes"/>
      <point x="255" y="-178"/>
      <point x="235" y="-160"/>
      <point x="227" y="-134" type="curve"/>
      <point x="203" y="-144" type="line"/>
      <point x="215" y="-182"/>
      <point x="249" y="-204"/>
    </contour>
  </outline>
</glyph>
<glyph name="ogonekcomb" format="2">
  <unicode hex="0328"/>
  <anchor x="324" y="0" name="_ogonek"/>
  <outline>
    <contour>
      <point x="304" y="-192" type="curve" smooth="yes"/>
      <point x="330" y="-192"/>
      <point x="348" y="-185"/>
      <point x="366" y="-173" type="curve"/>
      <point x="352" y="-151" type="line"/>
      <point x="340" y="-160"/>
      <point x="324" y="-166"/>
      <point x="304" y="-166" type="curve" smooth="yes"/>
      <point x="282" y="-166"/>
      <point x="264" y="-152"/>
      <point x="264" y="-122" type="curve" smooth="yes"/>
      <point x="264" y="-94"/>
      <point x="280" y="-65"/>
      <point x="300" y="-36" type="curve" smooth="yes"/>
      <point x="324" y="0" type="line"/>
      <point x="298" y="3" type="line"/>
      <point x="276" y="-28" type="line" smooth="yes"/>
      <point x="247" y="-68"/>
      <point x="234" y="-98"/>
      <point x="234" y="-128" type="curve" smooth="yes"/>
      <point x="234" y="-174"/>
      <point x="266" y="-192"/>
    </contour>
  </outline>
</glyph>
<glyph name="strokeshortcomb" format="2">
  <unicode hex="0335"/>
  <anchor x="300" y="349" name="_center"/>
  <outline>
    <contour>
      <point x="170" y="336" type="line"/>
      <point x="430" y="336" type="line"/>
      <point x="430" y="362" type="line"/>
      <point x="170" y="362" type="line"/>
    </contour>
  </outline>
</glyph>
<glyph name="strokelongcomb" format="2">
  <unicode hex="0336"/>
  <anchor x="300" y="571" name="_center"/>
  <outline>
    <contour>
      <point x="30" y="557" type="line"/>
      <point x="570" y="557" type="line"/>
      <point x="570" y="585" type="line"/>
      <point x="30" y="585" type="line"/>
    </contour>
  </outline>
</glyph>
<glyph name="slashlongcomb" format="2">
  <unicode hex="0338"/>
  <anchor x="300" y="263" name="_center"/>
  <outline>
    <contour>
      <point x="100" y="-16" type="line"/>
      <point x="128" y="-16" type="line"/>
      <point x="500" y="542" type="line"/>
      <point x="472" y="542" type="line"/>
    </contour>
  </outline>
</glyph>
<glyph name="Lambda" format="2">
  <advance width="600"/>
  <unicode hex="039B"/>
  <outline>
    <contour>
      <point x="48" y="0" type="line"/>
      <point x="81" y="0" type="line"/>
      <point x="300" y="678" type="line"/>
      <point x="519" y="0" type="line"/>
      <point x="552" y="0" type="line"/>
      <point x="319" y="710" type="line"/>
      <point x="281" y="710" type="line"/>
    </contour>
  </outline>
</glyph>
<glyph name="Omega" format="2">
  <advance width="600"/>
  <unicode hex="03A9"/>
  <outline>
    <contour>
      <point x="21" y="0" type="line"/>
      <point x="250" y="0" type="line"/>
      <point x="250" y="33" type="line"/>
      <point x="148" y="48"/>
      <point x="53" y="194"/>
      <point x="53" y="364" type="curve" smooth="yes"/>
      <point x="53" y="567"/>
      <point x="156" y="694"/>
      <point x="300" y="694" type="curve" smooth="yes"/>
      <point x="444" y="694"/>
      <point x="547" y="567"/>
      <point x="547" y="364" type="curve" smooth="yes"/>
      <point x="547" y="194"/>
      <point x="452" y="48"/>
      <point x="350" y="33" type="curve"/>
      <point x="350" y="0" type="line"/>
      <point x="579" y="0" type="line"/>
      <point x="579" y="30" type="line"/>
      <point x="398" y="30" type="line"/>
      <point x="500" y="64"/>
      <point x="581" y="211"/>
      <point x="581" y="364" type="curve" smooth="yes"/>
      <point x="581" y="586"/>
      <point x="465" y="726"/>
      <point x="300" y="726" type="curve" smooth="yes"/>
      <point x="135" y="726"/>
      <point x="19" y="586"/>
      <point x="19" y="364" type="curve" smooth="yes"/>
      <point x="19" y="211"/>
      <point x="100" y="64"/>
      <point x="202" y="30" type="curve"/>
      <point x="21" y="30" type="line"/>
    </contour>
  </outline>
</glyph>
<glyph name="lambda" format="2">
  <advance width="600"/>
  <unicode hex="03BB"/>
  <outline>
    <contour>
      <point x="526" y="0" type="curve" smooth="yes"/>
      <point x="540" y="0" type="line"/>
      <point x="540" y="30" type="line"/>
      <point x="505" y="30" type="line" smooth="yes"/>
      <point x="469" y="30"/>
      <point x="455" y="95"/>
      <point x="444" y="130" type="curve" smooth="yes"/>
      <point x="298" y="576" type="line" smooth="yes"/>
      <point x="265" y="676"/>
      <point x="234" y="710"/>
      <point x="168" y="710" type="curve" smooth="yes"/>
      <point x="124" y="710" type="line"/>
      <point x="124" y="680" type="line"/>
      <point x="168" y="680" type="line" smooth="yes"/>
      <point x="217" y="680"/>
      <point x="240" y="653"/>
      <point x="265" y="576" type="curve" smooth="yes"/>
      <point x="411" y="134" type="line" smooth="yes"/>
      <point x="444" y="35"/>
      <point x="444" y="0"/>
    </contour>
    <contour>
      <point x="69" y="0" type="line"/>
      <point x="101" y="0" type="line"/>
      <point x="306" y="502" type="line"/>
      <point x="286" y="530" type="line"/>
    </contour>
  </outline>
</glyph>
<glyph name="pi" format="2">
  <advance width="600"/>
  <unicode hex="03C0"/>
  <outline>
    <contour>
      <point x="534" y="0" type="curve" smooth="yes"/>
      <point x="556" y="0" type="line"/>
      <point x="556" y="27" type="line"/>
      <point x="530" y="27" type="line" smooth="yes"/>
      <point x="482" y="27"/>
      <point x="452" y="57"/>
      <point x="452" y="107" type="curve" smooth="yes"/>
      <point x="452" y="516" type="line"/>
      <point x="422" y="516" type="line"/>
      <point x="422" y="112" type="line" smooth="yes"/>
      <point x="422" y="43"/>
      <point x="465" y="0"/>
    </contour>
    <contour>
      <point x="152" y="0" type="line"/>
      <point x="182" y="0" type="line"/>
      <point x="182" y="516" type="line"/>
      <point x="152" y="516" type="line"/>
    </contour>
    <contour>
      <point x="43" y="500" type="line"/>
      <point x="556" y="500" type="line"/>
      <point x="556" y="530" type="line"/>
      <point x="43" y="530" type="line"/>
    </contour>
  </outline>
</glyph>
<glyph name="Dje-cy" format="2">
  <advance width="600"/>
  <unicode hex="0402"/>
  <outline>
    <contour>
      <point x="377" y="-16" type="curve" smooth="yes"/>
      <point x="507" y="-16"/>
      <point x="590" y="68"/>
      <point x="590" y="229" type="curve" smooth="yes"/>
      <point x="590" y="375"/>
      <point x="511" y="470"/>
      <point x="380" y="470" type="curve" smooth="yes"/>
      <point x="284" y="470"/>
      <point x="219" y="410"/>
      <point x="193" y="370" type="curve"/>
      <point x="205" y="362" type="line"/>
      <point x="205" y="700" type="line"/>
      <point x="173" y="700" type="line"/>
      <point x="173" y="0" type="line"/>
      <point x="205" y="0" type="line"/>
      <point x="205" y="342" type="line"/>
      <point x="237" y="390"/>
      <point x="300" y="438"/>
      <point x="380" y="438" type="curve" smooth="yes"/>
      <point x="493" y="438"/>
      <point x="556" y="359"/>
      <point x="556" y="227" type="curve" smooth="yes"/>
      <point x="556" y="79"/>
      <point x="483" y="16"/>
      <point x="377" y="16" type="curve" smooth="yes"/>
      <point x="355" y="16"/>
      <point x="323" y="18"/>
      <point x="301" y="22" type="curve"/>
      <point x="301" y="-10" type="line"/>
      <point x="323" y="-14"/>
      <point x="348" y="-16"/>
    </contour>
    <contour>
      <point x="10" y="680" type="line"/>
      <point x="526" y="680" type="line"/>
      <point x="526" y="710" type="line"/>
      <point x="10" y="710" type="line"/>
    </contour>
  </outline>
</glyph>
<glyph name="E-cy" format="2">
  <advance width="600"/>
  <unicode hex="0404"/>
  <anchor x="309" y="0" name="bottom"/>
  <anchor x="305" y="710" name="top"/>
  <outline>
    <contour>
      <point x="73" y="345" type="line"/>
      <point x="456" y="345" type="line"/>
      <point x="456" y="375" type="line"/>
      <point x="73" y="375" type="line"/>
    </contour>
    <component base="C" xOffset="5"/>
  </outline>
</glyph>
<glyph name="Lje-cy" format="2">
  <advance width="600"/>
  <unicode hex="0409"/>
  <outline>
    <contour>
      <point x="10" y="0" type="line"/>
      <point x="21" y="0" type="line" smooth="yes"/>
      <point x="87" y="0"/>
      <point x="119" y="34"/>
      <point x="127" y="138" type="curve" smooth="yes"/>
      <point x="167" y="680" type="line"/>
      <point x="326" y="680" type="line"/>
      <point x="340" y="710" type="line"/>
      <point x="139" y="710" type="line"/>
      <point x="97" y="144" type="line" smooth="yes"/>
      <point x="90" y="48"/>
      <point x="67" y="30"/>
      <point x="19" y="30" type="curve" smooth="yes"/>
      <point x="10" y="30" type="line"/>
    </contour>
    <contour>
      <point x="308" y="0" type="line"/>
      <point x="380" y="0" type="line" smooth="yes"/>
      <point x="510" y="0"/>
      <point x="590" y="79"/>
      <point x="590" y="215" type="curve" smooth="yes"/>
      <point x="590" y="348"/>
      <point x="510" y="425"/>
      <point x="380" y="425" type="curve" smooth="yes"/>
      <point x="340" y="425" type="line"/>
      <point x="340" y="710" type="line"/>
      <point x="308" y="700" type="line"/>
    </contour>
    <contour>
      <point x="340" y="30" type="line"/>
      <point x="340" y="395" type="line"/>
      <point x="380" y="395" type="line" smooth="yes"/>
      <point x="492" y="395"/>
      <point x="556" y="334"/>
      <point x="556" y="215" type="curve" smooth="yes"/>
      <point x="556" y="93"/>
      <point x="492" y="30"/>
      <point x="380" y="30" type="curve" smooth="yes"/>
    </contour>
  </outline>
</glyph>
<glyph name="Nje-cy" format="2">
  <advance width="600"/>
  <unicode hex="040A"/>
  <outline>
    <contour>
      <point x="40" y="0" type="line"/>
      <point x="72" y="0" type="line"/>
      <point x="72" y="359" type="line"/>
      <point x="63" y="349" type="line"/>
      <point x="296" y="349" type="line"/>
      <point x="296" y="379" type="line"/>
      <point x="63" y="379" type="line"/>
      <point x="72" y="370" type="line"/>
      <point x="72" y="710" type="line"/>
      <point x="40" y="710" type="line"/>
    </contour>
    <contour>
      <point x="288" y="0" type="line"/>
      <point x="370" y="0" type="line" smooth="yes"/>
      <point x="500" y="0"/>
      <point x="580" y="72"/>
      <point x="580" y="202" type="curve" smooth="yes"/>
      <point x="580" y="332"/>
      <point x="500" y="399"/>
      <point x="370" y="399" type="curve" smooth="yes"/>
      <point x="320" y="399" type="line"/>
      <point x="320" y="710" type="line"/>
      <point x="288" y="710" type="line"/>
    </contour>
    <contour>
      <point x="320" y="30" type="line"/>
      <point x="320" y="369" type="line"/>
      <point x="370" y="369" type="line" smooth="yes"/>
      <point x="482" y="369"/>
      <point x="546" y="318"/>
      <point x="546" y="202" type="curve" smooth="yes"/>
      <point x="546" y="86"/>
      <point x="482" y="30"/>
      <point x="370" y="30" type="curve" smooth="yes"/>
    </contour>
  </outline>
</glyph>
<glyph name="Tshe-cy" format="2">
  <advance width="600"/>
  <unicode hex="040B"/>
  <outline>
    <contour>
      <point x="170" y="0" type="line"/>
      <point x="202" y="0" type="line"/>
      <point x="202" y="346" type="line"/>
      <point x="236" y="388"/>
      <point x="314" y="438"/>
      <point x="390" y="438" type="curve" smooth="yes"/>
      <point x="491" y="438"/>
      <point x="548" y="388"/>
      <point x="548" y="278" type="curve" smooth="yes"/>
      <point x="548" y="0" type="line"/>
      <point x="580" y="0" type="line"/>
      <point x="580" y="280" type="line" smooth="yes"/>
      <point x="580" y="405"/>
      <point x="507" y="469"/>
      <point x="392" y="469" type="curve" smooth="yes"/>
      <point x="298" y="469"/>
      <point x="216" y="404"/>
      <point x="190" y="374" type="curve"/>
      <point x="202" y="366" type="line"/>
      <point x="202" y="696" type="line"/>
      <point x="170" y="696" type="line"/>
    </contour>
    <contour>
      <point x="0" y="680" type="line"/>
      <point x="460" y="680" type="line"/>
      <point x="460" y="710" type="line"/>
      <point x="0" y="710" type="line"/>
    </contour>
  </outline>
</glyph>
<glyph name="Dzhe-cy" format="2">
  <advance width="600"/>
  <unicode hex="040F"/>
  <outline>
    <contour>
      <point x="80" y="0" type="line"/>
      <point x="520" y="0" type="line"/>
      <point x="520" y="710" type="line"/>
      <point x="488" y="710" type="line"/>
      <point x="488" y="30" type="line"/>
      <point x="112" y="30" type="line"/>
      <point x="112" y="710" type="line"/>
      <point x="80" y="710" type="line"/>
    </contour>
    <contour>
      <point x="285" y="-150" type="line"/>
      <point x="315" y="-150" type="line"/>
      <point x="315" y="15" type="line"/>
      <point x="285" y="15" type="line"/>
    </contour>
  </outline>
</glyph>
<glyph name="Be-cy" format="2">
  <advance width="600"/>
  <unicode hex="0411"/>
  <anchor x="287" y="0" name="bottom"/>
  <anchor x="287" y="710" name="top"/>
  <outline>
    <contour>
      <point x="80" y="0" type="line"/>
      <point x="310" y="0" type="line" smooth="yes"/>
      <point x="460" y="0"/>
      <point x="550" y="79"/>
      <point x="550" y="205" type="curve" smooth="yes"/>
      <point x="550" y="328"/>
      <point x="460" y="405"/>
      <point x="310" y="405" type="curve" smooth="yes"/>
      <point x="112" y="405" type="line"/>
      <point x="112" y="694" type="line"/>
      <point x="98" y="680" type="line"/>
      <point x="489" y="680" type="line"/>
      <point x="489" y="710" type="line"/>
      <point x="80" y="710" type="line"/>
    </contour>
    <contour>
      <point x="112" y="30" type="line"/>
      <point x="112" y="375" type="line"/>
      <point x="310" y="375" type="line" smooth="yes"/>
      <point x="442" y="375"/>
      <point x="516" y="314"/>
      <point x="516" y="205" type="curve" smooth="yes"/>
      <point x="516" y="93"/>
      <point x="442" y="30"/>
      <point x="310" y="30" type="curve" smooth="yes"/>
    </contour>
  </outline>
</glyph>
<glyph name="Ge-cy" format="2">
  <advance width="600"/>
  <unicode hex="0413"/>
  <anchor x="326" y="710" name="top"/>
  <outline>
    <contour>
      <point x="100" y="0" type="line"/>
      <point x="132" y="0" type="line"/>
      <point x="132" y="680" type="line"/>
      <point x="540" y="680" type="line"/>
      <point x="540" y="710" type="line"/>
      <point x="100" y="710" type="line"/>
    </contour>
  </outline>
</glyph>
<glyph name="De-cy" format="2">
  <advance width="600"/>
  <unicode hex="0414"/>
  <outline>
    <contour>
      <point x="20" y="-150" type="line"/>
      <point x="50" y="-150" type="line"/>
      <point x="50" y="0" type="line"/>
      <point x="548" y="0" type="line"/>
      <point x="548" y="-150" type="line"/>
      <point x="580" y="-150" type="line"/>
      <point x="580" y="30" type="line"/>
      <point x="512" y="30" type="line"/>
      <point x="512" y="710" type="line"/>
      <point x="200" y="710" type="line"/>
      <point x="150" y="190" type="line" smooth="yes"/>
      <point x="142" y="104"/>
      <point x="120" y="56"/>
      <point x="84" y="30" type="curve"/>
      <point x="20" y="30" type="line"/>
    </contour>
    <contour>
      <point x="118" y="30" type="line"/>
      <point x="144" y="46"/>
      <point x="171" y="94"/>
      <point x="180" y="180" type="curve" smooth="yes"/>
      <point x="230" y="680" type="line"/>
      <point x="480" y="680" type="line"/>
      <point x="480" y="30" type="line"/>
    </contour>
  </outline>
</glyph>
<glyph name="Zhe-cy" format="2">
  <advance width="600"/>
  <unicode hex="0416"/>
  <outline>
    <contour>
      <point x="552" y="0" type="line"/>
      <point x="590" y="0" type="line"/>
      <point x="344" y="355" type="line"/>
      <point x="582" y="710" type="line"/>
      <point x="544" y="710" type="line"/>
      <point x="310" y="355" type="line"/>
    </contour>
    <contour>
      <point x="284" y="0" type="line"/>
      <point x="316" y="0" type="line"/>
      <point x="316" y="710" type="line"/>
      <point x="284" y="710" type="line"/>
    </contour>
    <contour>
      <point x="48" y="0" type="line"/>
      <point x="290" y="355" type="line"/>
      <point x="56" y="710" type="line"/>
      <point x="18" y="710" type="line"/>
      <point x="256" y="355" type="line"/>
      <point x="10" y="0" type="line"/>
    </contour>
  </outline>
</glyph>
<glyph name="Ze-cy" format="2">
  <advance width="600"/>
  <unicode hex="0417"/>
  <outline>
    <contour>
      <point x="303" y="-16" type="curve" smooth="yes"/>
      <point x="442" y="-16"/>
      <point x="530" y="69"/>
      <point x="530" y="186" type="curve" smooth="yes"/>
      <point x="530" y="298"/>
      <point x="465" y="360"/>
      <point x="344" y="372" type="curve"/>
      <point x="344" y="354" type="line"/>
      <point x="465" y="368"/>
      <point x="530" y="423"/>
      <point x="530" y="530" type="curve" smooth="yes"/>
      <point x="530" y="642"/>
      <point x="444" y="726"/>
      <point x="303" y="726" type="curve" smooth="yes"/>
      <point x="171" y="726"/>
      <point x="89" y="657"/>
      <point x="70" y="547" type="curve"/>
      <point x="102" y="544" type="line"/>
      <point x="118" y="638"/>
      <point x="189" y="694"/>
      <point x="303" y="694" type="curve" smooth="yes"/>
      <point x="424" y="694"/>
      <point x="496" y="626"/>
      <point x="496" y="530" type="curve" smooth="yes"/>
      <point x="496" y="432"/>
      <point x="433" y="378"/>
      <point x="330" y="378" type="curve" smooth="yes"/>
      <point x="184" y="378" type="line"/>
      <point x="184" y="348" type="line"/>
      <point x="330" y="348" type="line" smooth="yes"/>
      <point x="438" y="348"/>
      <point x="496" y="287"/>
      <point x="496" y="186" type="curve" smooth="yes"/>
      <point x="496" y="76"/>
      <point x="417" y="16"/>
      <point x="303" y="16" type="curve" smooth="yes"/>
      <point x="195" y="16"/>
      <point x="112" y="78"/>
      <point x="102" y="177" type="curve"/>
      <point x="70" y="174" type="line"/>
      <point x="80" y="57"/>
      <point x="178" y="-16"/>
    </contour>
  </outline>
</glyph>
<glyph name="Ii-cy" format="2">
  <advance width="600"/>
  <unicode hex="0418"/>
  <anchor x="580" y="0" name="bottomright"/>
  <anchor x="300" y="710" name="top"/>
  <outline>
    <contour>
      <point x="80" y="0" type="line"/>
      <point x="127" y="0" type="line"/>
      <point x="495" y="693" type="line"/>
      <point x="488" y="694" type="line"/>
      <point x="488" y="0" type="line"/>
      <point x="520" y="0" type="line"/>
      <point x="520" y="710" type="line"/>
      <point x="473" y="710" type="line"/>
      <point x="105" y="17" type="line"/>
      <point x="112" y="16" type="line"/>
      <point x="112" y="710" type="line"/>
      <point x="80" y="710" type="line"/>
    </contour>
  </outline>
</glyph>
<glyph name="Ka-cy" format="2">
  <advance width="600"/>
  <unicode hex="041A"/>
  <anchor x="298" y="710" name="top"/>
  <outline>
    <contour>
      <point x="482" y="0" type="line"/>
      <point x="520" y="0" type="line"/>
      <point x="162" y="355" type="line"/>
      <point x="510" y="710" type="line"/>
      <point x="472" y="710" type="line"/>
      <point x="124" y="355" type="line"/>
    </contour>
    <contour>
      <point x="100" y="0" type="line"/>
      <point x="132" y="0" type="line"/>
      <point x="132" y="710" type="line"/>
      <point x="100" y="710" type="line"/>
    </contour>
  </outline>
</glyph>
<glyph name="El-cy" format="2">
  <advance width="600"/>
  <unicode hex="041B"/>
  <outline>
    <contour>
      <point x="30" y="0" type="line"/>
      <point x="41" y="0" type="line" smooth="yes"/>
      <point x="107" y="0"/>
      <point x="137" y="34"/>
      <point x="147" y="138" type="curve" smooth="yes"/>
      <point x="201" y="680" type="line"/>
      <point x="508" y="680" type="line"/>
      <point x="508" y="0" type="line"/>
      <point x="540" y="0" type="line"/>
      <point x="540" y="710" type="line"/>
      <point x="173" y="710" type="line"/>
      <point x="117" y="144" type="line" smooth="yes"/>
      <point x="108" y="48"/>
      <point x="87" y="30"/>
      <point x="39" y="30" type="curve" smooth="yes"/>
      <point x="30" y="30" type="line"/>
    </contour>
  </outline>
</glyph>
<glyph name="Pe-cy" format="2">
  <advance width="600"/>
  <unicode hex="041F"/>
  <outline>
    <contour>
      <point x="80" y="0" type="line"/>
      <point x="112" y="0" type="line"/>
      <point x="112" y="680" type="line"/>
      <point x="488" y="680" type="line"/>
      <point x="488" y="0" type="line"/>
      <point x="520" y="0" type="line"/>
      <point x="520" y="710" type="line"/>
      <point x="80" y="710" type="line"/>
    </contour>
  </outline>
</glyph>
<glyph name="U-cy" format="2">
  <advance width="600"/>
  <unicode hex="0423"/>
  <anchor x="300" y="710" name="top"/>
  <outline>
    <contour>
      <point x="114" y="0" type="line"/>
      <point x="175" y="0" type="line" smooth="yes"/>
      <point x="234" y="0"/>
      <point x="270" y="27"/>
      <point x="290" y="78" type="curve" smooth="yes"/>
      <point x="536" y="710" type="line"/>
      <point x="502" y="710" type="line"/>
      <point x="264" y="94" type="line" smooth="yes"/>
      <point x="245" y="46"/>
      <point x="221" y="30"/>
      <point x="174" y="30" type="curve" smooth="yes"/>
      <point x="114" y="30" type="line"/>
    </contour>
    <contour>
      <point x="283" y="190" type="line"/>
      <point x="306" y="190" type="line"/>
      <point x="311" y="200" type="line"/>
      <point x="98" y="710" type="line"/>
      <point x="64" y="710" type="line"/>
    </contour>
  </outline>
</glyph>
<glyph name="Ef-cy" format="2">
  <advance width="600"/>
  <unicode hex="0424"/>
  <outline>
    <contour>
      <point x="283" y="73" type="curve" smooth="yes"/>
      <point x="315" y="73" type="line" smooth="yes"/>
      <point x="481" y="73"/>
      <point x="578" y="185"/>
      <point x="578" y="355" type="curve" smooth="yes"/>
      <point x="578" y="525"/>
      <point x="481" y="637"/>
      <point x="315" y="637" type="curve" smooth="yes"/>
      <point x="283" y="637" type="line" smooth="yes"/>
      <point x="117" y="637"/>
      <point x="22" y="525"/>
      <point x="22" y="355" type="curve" smooth="yes"/>
      <point x="22" y="185"/>
      <point x="117" y="73"/>
    </contour>
    <contour>
      <point x="315" y="103" type="curve" smooth="yes"/>
      <point x="283" y="103" type="line" smooth="yes"/>
      <point x="137" y="103"/>
      <point x="56" y="203"/>
      <point x="56" y="355" type="curve" smooth="yes"/>
      <point x="56" y="507"/>
      <point x="137" y="607"/>
      <point x="283" y="607" type="curve" smooth="yes"/>
      <point x="315" y="607" type="line" smooth="yes"/>
      <point x="461" y="607"/>
      <point x="544" y="507"/>
      <point x="544" y="355" type="curve" smooth="yes"/>
      <point x="544" y="203"/>
      <point x="461" y="103"/>
    </contour>
    <contour>
      <point x="283" y="-16" type="line"/>
      <point x="315" y="-16" type="line"/>
      <point x="315" y="726" type="line"/>
      <point x="283" y="726" type="line"/>
    </contour>
  </outline>
</glyph>
<glyph name="Tse-cy" format="2">
  <advance width="600"/>
  <unicode hex="0426"/>
  <outline>
    <contour>
      <point x="62" y="0" type="line"/>
      <point x="502" y="0" type="line"/>
      <point x="502" y="710" type="line"/>
      <point x="470" y="710" type="line"/>
      <point x="470" y="30" type="line"/>
      <point x="94" y="30" type="line"/>
      <point x="94" y="710" type="line"/>
      <point x="62" y="710" type="line"/>
    </contour>
    <contour>
      <point x="538" y="-150" type="line"/>
      <point x="570" y="-150" type="line"/>
      <point x="570" y="30" type="line"/>
      <point x="482" y="30" type="line"/>
      <point x="482" y="0" type="line"/>
      <point x="538" y="0" type="line"/>
    </contour>
  </outline>
</glyph>
<glyph name="Che-cy" format="2">
  <advance width="600"/>
  <unicode hex="0427"/>
  <outline>
    <contour>
      <point x="488" y="0" type="line"/>
      <point x="520" y="0" type="line"/>
      <point x="520" y="710" type="line"/>
      <point x="488" y="710" type="line"/>
      <point x="488" y="368" type="line"/>
      <point x="454" y="322"/>
      <point x="372" y="272"/>
      <point x="276" y="272" type="curve" smooth="yes"/>
      <point x="155" y="272"/>
      <point x="92" y="332"/>
      <point x="92" y="452" type="curve" smooth="yes"/>
      <point x="92" y="710" type="line"/>
      <point x="60" y="710" type="line"/>
      <point x="60" y="450" type="line" smooth="yes"/>
      <point x="60" y="315"/>
      <point x="139" y="241"/>
      <point x="274" y="241" type="curve" smooth="yes"/>
      <point x="388" y="241"/>
      <point x="474" y="306"/>
      <point x="500" y="340" type="curve"/>
      <point x="488" y="348" type="line"/>
    </contour>
  </outline>
</glyph>
<glyph name="Sha-cy" format="2">
  <advance width="600"/>
  <unicode hex="0428"/>
  <outline>
    <contour>
      <point x="70" y="0" type="line"/>
      <point x="530" y="0" type="line"/>
      <point x="530" y="710" type="line"/>
      <point x="498" y="710" type="line"/>
      <point x="498" y="30" type="line"/>
      <point x="316" y="30" type="line"/>
      <point x="316" y="710" type="line"/>
      <point x="284" y="710" type="line"/>
      <point x="284" y="30" type="line"/>
      <point x="102" y="30" type="line"/>
      <point x="102" y="710" type="line"/>
      <point x="70" y="710" type="line"/>
    </contour>
  </outline>
</glyph>
<glyph name="Shcha-cy" format="2">
  <advance width="600"/>
  <unicode hex="0429"/>
  <outline>
    <contour>
      <point x="60" y="0" type="line"/>
      <point x="500" y="0" type="line"/>
      <point x="500" y="710" type="line"/>
      <point x="468" y="710" type="line"/>
      <point x="468" y="30" type="line"/>
      <point x="296" y="30" type="line"/>
      <point x="296" y="710" type="line"/>
      <point x="264" y="710" type="line"/>
      <point x="264" y="30" type="line"/>
      <point x="92" y="30" type="line"/>
      <point x="92" y="710" type="line"/>
      <point x="60" y="710" type="line"/>
    </contour>
    <contour>
      <point x="536" y="-150" type="line"/>
      <point x="568" y="-150" type="line"/>
      <point x="568" y="30" type="line"/>
      <point x="487" y="30" type="line"/>
      <point x="467" y="0" type="line"/>
      <point x="536" y="0" type="line"/>
    </contour>
  </outline>
</glyph>
<glyph name="Hardsign-cy" format="2">
  <advance width="600"/>
  <unicode hex="042A"/>
  <outline>
    <contour>
      <point x="123" y="0" type="line"/>
      <point x="330" y="0" type="line" smooth="yes"/>
      <point x="480" y="0"/>
      <point x="570" y="79"/>
      <point x="570" y="215" type="curve" smooth="yes"/>
      <point x="570" y="348"/>
      <point x="480" y="425"/>
      <point x="330" y="425" type="curve" smooth="yes"/>
      <point x="155" y="425" type="line"/>
      <point x="155" y="710" type="line"/>
      <point x="20" y="710" type="line"/>
      <point x="20" y="680" type="line"/>
      <point x="137" y="680" type="line"/>
      <point x="123" y="694" type="line"/>
    </contour>
    <contour>
      <point x="155" y="30" type="line"/>
      <point x="155" y="395" type="line"/>
      <point x="330" y="395" type="line" smooth="yes"/>
      <point x="462" y="395"/>
      <point x="536" y="334"/>
      <point x="536" y="215" type="curve" smooth="yes"/>
      <point x="536" y="93"/>
      <point x="462" y="30"/>
      <point x="330" y="30" type="curve" smooth="yes"/>
    </contour>
  </outline>
</glyph>
<glyph name="Yeru-cy" format="2">
  <advance width="600"/>
  <unicode hex="042B"/>
  <outline>
    <contour>
      <point x="40" y="0" type="line"/>
      <point x="220" y="0" type="line" smooth="yes"/>
      <point x="370" y="0"/>
      <point x="460" y="79"/>
      <point x="460" y="215" type="curve" smooth="yes"/>
      <point x="460" y="348"/>
      <point x="370" y="425"/>
      <point x="220" y="425" type="curve" smooth="yes"/>
      <point x="72" y="425" type="line"/>
      <point x="72" y="710" type="line"/>
      <point x="40" y="710" type="line"/>
    </contour>
    <contour>
      <point x="72" y="30" type="line"/>
      <point x="72" y="395" type="line"/>
      <point x="220" y="395" type="line" smooth="yes"/>
      <point x="352" y="395"/>
      <point x="426" y="334"/>
      <point x="426" y="215" type="curve" smooth="yes"/>
      <point x="426" y="93"/>
      <point x="352" y="30"/>
      <point x="220" y="30" type="curve" smooth="yes"/>
    </contour>
    <contour>
      <point x="530" y="0" type="line"/>
      <point x="560" y="0" type="line"/>
      <point x="560" y="710" type="line"/>
      <point x="530" y="710" type="line"/>
    </contour>
  </outline>
</glyph>
<glyph name="Softsign-cy" format="2">
  <advance width="600"/>
  <unicode hex="042C"/>
  <outline>
    <contour>
      <point x="80" y="0" type="line"/>
      <point x="310" y="0" type="line" smooth="yes"/>
      <point x="460" y="0"/>
      <point x="550" y="79"/>
      <point x="550" y="215" type="curve" smooth="yes"/>
      <point x="550" y="348"/>
      <point x="460" y="425"/>
      <point x="310" y="425" type="curve" smooth="yes"/>
      <point x="112" y="425" type="line"/>
      <point x="112" y="710" type="line"/>
      <point x="80" y="710" type="line"/>
    </contour>
    <contour>
      <point x="112" y="30" type="line"/>
      <point x="112" y="395" type="line"/>
      <point x="310" y="395" type="line" smooth="yes"/>
      <point x="442" y="395"/>
      <point x="516" y="334"/>
      <point x="516" y="215" type="curve" smooth="yes"/>
      <point x="516" y="93"/>
      <point x="442" y="30"/>
      <point x="310" y="30" type="curve" smooth="yes"/>
    </contour>
  </outline>
</glyph>
<glyph name="Yu-cy" format="2">
  <advance width="600"/>
  <unicode hex="042E"/>
  <outline>
    <contour>
      <point x="373" y="-16" type="curve" smooth="yes"/>
      <point x="505" y="-16"/>
      <point x="570" y="104"/>
      <point x="570" y="354" type="curve" smooth="yes"/>
      <point x="570" y="604"/>
      <point x="505" y="726"/>
      <point x="373" y="726" type="curve" smooth="yes"/>
      <point x="242" y="726"/>
      <point x="176" y="604"/>
      <point x="176" y="354" type="curve" smooth="yes"/>
      <point x="176" y="104"/>
      <point x="242" y="-16"/>
    </contour>
    <contour>
      <point x="30" y="0" type="line"/>
      <point x="62" y="0" type="line"/>
      <point x="62" y="710" type="line"/>
      <point x="30" y="710" type="line"/>
    </contour>
    <contour>
      <point x="46" y="349" type="line"/>
      <point x="196" y="349" type="line"/>
      <point x="196" y="379" type="line"/>
      <point x="46" y="379" type="line"/>
    </contour>
    <contour>
      <point x="373" y="16" type="curve" smooth="yes"/>
      <point x="263" y="16"/>
      <point x="210" y="120"/>
      <point x="210" y="354" type="curve" smooth="yes"/>
      <point x="210" y="588"/>
      <point x="263" y="694"/>
      <point x="373" y="694" type="curve" smooth="yes"/>
      <point x="483" y="694"/>
      <point x="536" y="588"/>
      <point x="536" y="354" type="curve" smooth="yes"/>
      <point x="536" y="120"/>
      <point x="483" y="16"/>
    </contour>
  </outline>
</glyph>
<glyph name="Ya-cy" format="2">
  <advance width="600"/>
  <unicode hex="042F"/>
  <anchor x="317" y="0" name="bottom"/>
  <anchor x="321" y="710" name="top"/>
  <outline>
    <contour>
      <point x="503" y="0" type="line"/>
      <point x="535" y="0" type="line"/>
      <point x="535" y="710" type="line"/>
      <point x="285" y="710" type="line" smooth="yes"/>
      <point x="148" y="710"/>
      <point x="65" y="630"/>
      <point x="65" y="504" type="curve" smooth="yes"/>
      <point x="65" y="372"/>
      <point x="148" y="298"/>
      <point x="285" y="298" type="curve" smooth="yes"/>
      <point x="503" y="298" type="line"/>
    </contour>
    <contour>
      <point x="65" y="0" type="line"/>
      <point x="99" y="0" type="line"/>
      <point x="294" y="307" type="line"/>
      <point x="262" y="310" type="line"/>
    </contour>
    <contour>
      <point x="285" y="328" type="line" smooth="yes"/>
      <point x="166" y="328"/>
      <point x="99" y="390"/>
      <point x="99" y="504" type="curve" smooth="yes"/>
      <point x="99" y="618"/>
      <point x="166" y="680"/>
      <point x="285" y="680" type="curve" smooth="yes"/>
      <point x="503" y="680" type="line"/>
      <point x="503" y="328" type="line"/>
    </contour>
  </outline>
</glyph>
<glyph name="be-cy" format="2">
  <advance width="600"/>
  <unicode hex="0431"/>
  <outline>
    <contour>
      <point x="301" y="-12" type="curve" smooth="yes"/>
      <point x="441" y="-12"/>
      <point x="524" y="88"/>
      <point x="524" y="236" type="curve" smooth="yes"/>
      <point x="524" y="380"/>
      <point x="439" y="484"/>
      <point x="313" y="484" type="curve" smooth="yes"/>
      <point x="189" y="484"/>
      <point x="119" y="402"/>
      <point x="101" y="298" type="curve"/>
      <point x="105" y="298" type="line"/>
      <point x="105" y="492"/>
      <point x="155" y="567"/>
      <point x="317" y="592" type="curve" smooth="yes"/>
      <point x="415" y="607"/>
      <point x="449" y="642"/>
      <point x="449" y="710" type="curve"/>
      <point x="419" y="710" type="line"/>
      <point x="419" y="658"/>
      <point x="401" y="637"/>
      <point x="311" y="620" type="curve" smooth="yes"/>
      <point x="143" y="588"/>
      <point x="76" y="516"/>
      <point x="76" y="290" type="curve" smooth="yes"/>
      <point x="76" y="95"/>
      <point x="161" y="-12"/>
    </contour>
    <contour>
      <point x="301" y="18" type="curve" smooth="yes"/>
      <point x="181" y="18"/>
      <point x="114" y="111"/>
      <point x="114" y="236" type="curve" smooth="yes"/>
      <point x="114" y="362"/>
      <point x="195" y="454"/>
      <point x="311" y="454" type="curve" smooth="yes"/>
      <point x="423" y="454"/>
      <point x="492" y="366"/>
      <point x="492" y="236" type="curve" smooth="yes"/>
      <point x="492" y="106"/>
      <point x="421" y="18"/>
    </contour>
  </outline>
</glyph>
<glyph name="ve-cy" format="2">
  <advance width="600"/>
  <unicode hex="0432"/>
  <outline>
    <contour>
      <point x="106" y="0" type="line"/>
      <point x="350" y="0" type="line" smooth="yes"/>
      <point x="457" y="0"/>
      <point x="514" y="52"/>
      <point x="514" y="140" type="curve" smooth="yes"/>
      <point x="514" y="221"/>
      <point x="449" y="276"/>
      <point x="346" y="276" type="curve"/>
      <point x="346" y="271" type="line"/>
      <point x="436" y="271"/>
      <point x="492" y="320"/>
      <point x="492" y="396" type="curve" smooth="yes"/>
      <point x="492" y="478"/>
      <point x="437" y="530"/>
      <point x="326" y="530" type="curve" smooth="yes"/>
      <point x="106" y="530" type="line"/>
    </contour>
    <contour>
      <point x="136" y="28" type="line"/>
      <point x="136" y="258" type="line"/>
      <point x="338" y="258" type="line" smooth="yes"/>
      <point x="427" y="258"/>
      <point x="482" y="210"/>
      <point x="482" y="140" type="curve" smooth="yes"/>
      <point x="482" y="62"/>
      <point x="437" y="28"/>
      <point x="350" y="28" type="curve" smooth="yes"/>
    </contour>
    <contour>
      <point x="136" y="286" type="line"/>
      <point x="136" y="502" type="line"/>
      <point x="326" y="502" type="line" smooth="yes"/>
      <point x="420" y="502"/>
      <point x="460" y="460"/>
      <point x="460" y="396" type="curve" smooth="yes"/>
      <point x="460" y="326"/>
      <point x="413" y="286"/>
      <point x="330" y="286" type="curve" smooth="yes"/>
    </contour>
  </outline>
</glyph>
<glyph name="ge-cy" format="2">
  <advance width="600"/>
  <unicode hex="0433"/>
  <anchor x="300" y="530" name="top"/>
  <outline>
    <contour>
      <point x="130" y="0" type="line"/>
      <point x="160" y="0" type="line"/>
      <point x="160" y="520" type="line"/>
      <point x="153" y="502" type="line"/>
      <point x="490" y="502" type="line"/>
      <point x="490" y="530" type="line"/>
      <point x="130" y="530" type="line"/>
    </contour>
  </outline>
</glyph>
<glyph name="de-cy" format="2">
  <advance width="600"/>
  <unicode hex="0434"/>
  <outline>
    <contour>
      <point x="80" y="18" type="curve"/>
      <point x="108" y="8" type="line"/>
      <point x="142" y="30"/>
      <point x="190" y="60"/>
      <point x="206" y="180" type="curve" smooth="yes"/>
      <point x="248" y="502" type="line"/>
      <point x="460" y="502" type="line"/>
      <point x="460" y="10" type="line"/>
      <point x="490" y="10" type="line"/>
      <point x="490" y="530" type="line"/>
      <point x="220" y="530" type="line"/>
      <point x="178" y="190" type="line" smooth="yes"/>
      <point x="165" y="84"/>
      <point x="126" y="48"/>
    </contour>
    <contour>
      <point x="50" y="-120" type="line"/>
      <point x="80" y="-120" type="line"/>
      <point x="80" y="0" type="line"/>
      <point x="520" y="0" type="line"/>
      <point x="520" y="-120" type="line"/>
      <point x="550" y="-120" type="line"/>
      <point x="550" y="28" type="line"/>
      <point x="50" y="28" type="line"/>
    </contour>
  </outline>
</glyph>
<glyph name="zhe-cy" format="2">
  <advance width="600"/>
  <unicode hex="0436"/>
  <outline>
    <contour>
      <point x="285" y="0" type="line"/>
      <point x="315" y="0" type="line"/>
      <point x="315" y="530" type="line"/>
      <point x="285" y="530" type="line"/>
    </contour>
    <contour>
      <point x="536" y="0" type="line"/>
      <point x="570" y="0" type="line"/>
      <point x="340" y="265" type="line"/>
      <point x="559" y="530" type="line"/>
      <point x="525" y="530" type="line"/>
      <point x="308" y="265" type="line"/>
    </contour>
    <contour>
      <point x="64" y="0" type="line"/>
      <point x="292" y="265" type="line"/>
      <point x="75" y="530" type="line"/>
      <point x="41" y="530" type="line"/>
      <point x="260" y="265" type="line"/>
      <point x="30" y="0" type="line"/>
    </contour>
  </outline>
</glyph>
<glyph name="ze-cy" format="2">
  <advance width="600"/>
  <unicode hex="0437"/>
  <anchor x="300" y="0" name="bottom"/>
  <anchor x="300" y="530" name="top"/>
  <outline>
    <contour>
      <point x="298" y="-12" type="curve" smooth="yes"/>
      <point x="416" y="-12"/>
      <point x="488" y="42"/>
      <point x="488" y="144" type="curve" smooth="yes"/>
      <point x="488" y="222"/>
      <point x="436" y="278"/>
      <point x="340" y="290" type="curve"/>
      <point x="340" y="278" type="line"/>
      <point x="438" y="286"/>
      <point x="481" y="334"/>
      <point x="481" y="396" type="curve" smooth="yes"/>
      <point x="481" y="482"/>
      <point x="423" y="542"/>
      <point x="304" y="542" type="curve" smooth="yes"/>
      <point x="188" y="542"/>
      <point x="124" y="488"/>
      <point x="114" y="402" type="curve"/>
      <point x="144" y="400" type="line"/>
      <point x="152" y="469"/>
      <point x="206" y="514"/>
      <point x="304" y="514" type="curve" smooth="yes"/>
      <point x="403" y="514"/>
      <point x="449" y="466"/>
      <point x="449" y="396" type="curve" smooth="yes"/>
      <point x="449" y="333"/>
      <point x="412" y="298"/>
      <point x="312" y="298" type="curve" smooth="yes"/>
      <point x="232" y="298" type="line"/>
      <point x="232" y="270" type="line"/>
      <point x="312" y="270" type="line" smooth="yes"/>
      <point x="397" y="270"/>
      <point x="456" y="224"/>
      <point x="456" y="144" type="curve" smooth="yes"/>
      <point x="456" y="56"/>
      <point x="400" y="16"/>
      <point x="298" y="16" type="curve" smooth="yes"/>
      <point x="202" y="16"/>
      <point x="148" y="68"/>
      <point x="142" y="154" type="curve"/>
      <point x="112" y="152" type="line"/>
      <point x="118" y="52"/>
      <point x="184" y="-12"/>
    </contour>
  </outline>
</glyph>
<glyph name="ii-cy" format="2">
  <advance width="600"/>
  <unicode hex="0438"/>
  <anchor x="300" y="530" name="top"/>
  <outline>
    <contour>
      <point x="100" y="0" type="line"/>
      <point x="140" y="0" type="line"/>
      <point x="478" y="508" type="line"/>
      <point x="470" y="510" type="line"/>
      <point x="470" y="0" type="line"/>
      <point x="500" y="0" type="line"/>
      <point x="500" y="530" type="line"/>
      <point x="460" y="530" type="line"/>
      <point x="122" y="22" type="line"/>
      <point x="130" y="20" type="line"/>
      <point x="130" y="530" type="line"/>
      <point x="100" y="530" type="line"/>
    </contour>
  </outline>
</glyph>
<glyph name="ka-cy" format="2">
  <advance width="600"/>
  <unicode hex="043A"/>
  <anchor x="280" y="0" name="bottom"/>
  <anchor x="280" y="530" name="top"/>
  <outline>
    <contour>
      <point x="458" y="0" type="line"/>
      <point x="500" y="0" type="line"/>
      <point x="160" y="265" type="line"/>
      <point x="489" y="530" type="line"/>
      <point x="447" y="530" type="line"/>
      <point x="122" y="265" type="line"/>
    </contour>
    <contour>
      <point x="100" y="0" type="line"/>
      <point x="130" y="0" type="line"/>
      <point x="130" y="530" type="line"/>
      <point x="100" y="530" type="line"/>
    </contour>
  </outline>
</glyph>
<glyph name="el-cy" format="2">
  <advance width="600"/>
  <unicode hex="043B"/>
  <anchor x="300" y="0" name="bottom"/>
  <outline>
    <contour>
      <point x="80" y="-4" type="line"/>
      <point x="95" y="-4" type="line" smooth="yes"/>
      <point x="152" y="-4"/>
      <point x="177" y="19"/>
      <point x="184" y="92" type="curve" smooth="yes"/>
      <point x="223" y="502" type="line"/>
      <point x="490" y="502" type="line"/>
      <point x="490" y="0" type="line"/>
      <point x="520" y="0" type="line"/>
      <point x="520" y="530" type="line"/>
      <point x="195" y="530" type="line"/>
      <point x="152" y="94" type="line" smooth="yes"/>
      <point x="146" y="36"/>
      <point x="132" y="24"/>
      <point x="95" y="24" type="curve" smooth="yes"/>
      <point x="80" y="24" type="line"/>
    </contour>
  </outline>
</glyph>
<glyph name="em-cy" format="2">
  <advance width="600"/>
  <unicode hex="043C"/>
  <outline>
    <contour>
      <point x="50" y="0" type="line"/>
      <point x="80" y="0" type="line"/>
      <point x="80" y="488" type="line"/>
      <point x="74" y="487" type="line"/>
      <point x="286" y="0" type="line"/>
      <point x="314" y="0" type="line"/>
      <point x="526" y="487" type="line"/>
      <point x="520" y="488" type="line"/>
      <point x="520" y="0" type="line"/>
      <point x="550" y="0" type="line"/>
      <point x="550" y="530" type="line"/>
      <point x="514" y="530" type="line"/>
      <point x="294" y="17" type="line"/>
      <point x="306" y="17" type="line"/>
      <point x="86" y="530" type="line"/>
      <point x="50" y="530" type="line"/>
    </contour>
  </outline>
</glyph>
<glyph name="en-cy" format="2">
  <advance width="600"/>
  <unicode hex="043D"/>
  <outline>
    <contour>
      <point x="100" y="0" type="line"/>
      <point x="130" y="0" type="line"/>
      <point x="130" y="530" type="line"/>
      <point x="100" y="530" type="line"/>
    </contour>
    <contour>
      <point x="122" y="280" type="line"/>
      <point x="479" y="280" type="line"/>
      <point x="479" y="308" type="line"/>
      <point x="122" y="308" type="line"/>
    </contour>
    <contour>
      <point x="470" y="0" type="line"/>
      <point x="500" y="0" type="line"/>
      <point x="500" y="530" type="line"/>
      <point x="470" y="530" type="line"/>
    </contour>
  </outline>
</glyph>
<glyph name="pe-cy" format="2">
  <advance width="600"/>
  <unicode hex="043F"/>
  <outline>
    <contour>
      <point x="100" y="0" type="line"/>
      <point x="130" y="0" type="line"/>
      <point x="130" y="502" type="line"/>
      <point x="470" y="502" type="line"/>
      <point x="470" y="0" type="line"/>
      <point x="500" y="0" type="line"/>
      <point x="500" y="530" type="line"/>
      <point x="100" y="530" type="line"/>
    </contour>
  </outline>
</glyph>
<glyph name="te-cy" format="2">
  <advance width="600"/>
  <unicode hex="0442"/>
  <outline>
    <contour>
      <point x="285" y="0" type="line"/>
      <point x="315" y="0" type="line"/>
      <point x="315" y="502" type="line"/>
      <point x="514" y="502" type="line"/>
      <point x="514" y="530" type="line"/>
      <point x="86" y="530" type="line"/>
      <point x="86" y="502" type="line"/>
      <point x="285" y="502" type="line"/>
    </contour>
  </outline>
</glyph>
<glyph name="ef-cy" format="2">
  <advance width="600"/>
  <unicode hex="0444"/>
  <outline>
    <contour>
      <point x="284" y="-150" type="line"/>
      <point x="316" y="-150" type="line"/>
      <point x="316" y="0" type="line"/>
      <point x="470" y="0"/>
      <point x="570" y="85"/>
      <point x="570" y="265" type="curve" smooth="yes"/>
      <point x="570" y="445"/>
      <point x="470" y="530"/>
      <point x="316" y="530" type="curve"/>
      <point x="316" y="710" type="line"/>
      <point x="284" y="710" type="line"/>
      <point x="284" y="530" type="line"/>
      <point x="130" y="530"/>
      <point x="30" y="445"/>
      <point x="30" y="265" type="curve" smooth="yes"/>
      <point x="30" y="85"/>
      <point x="130" y="0"/>
      <point x="284" y="0" type="curve"/>
    </contour>
    <contour>
      <point x="284" y="30" type="line"/>
      <point x="150" y="30"/>
      <point x="62" y="103"/>
      <point x="62" y="265" type="curve" smooth="yes"/>
      <point x="62" y="427"/>
      <point x="150" y="500"/>
      <point x="284" y="500" type="curve"/>
    </contour>
    <contour>
      <point x="316" y="30" type="curve"/>
      <point x="316" y="500" type="line"/>
      <point x="450" y="500"/>
      <point x="538" y="427"/>
      <point x="538" y="265" type="curve" smooth="yes"/>
      <point x="538" y="103"/>
      <point x="450" y="30"/>
    </contour>
  </outline>
</glyph>
<glyph name="tse-cy" format="2">
  <advance width="600"/>
  <unicode hex="0446"/>
  <outline>
    <contour>
      <point x="80" y="0" type="line"/>
      <point x="480" y="0" type="line"/>
      <point x="480" y="530" type="line"/>
      <point x="450" y="530" type="line"/>
      <point x="450" y="28" type="line"/>
      <point x="110" y="28" type="line"/>
      <point x="110" y="530" type="line"/>
      <point x="80" y="530" type="line"/>
    </contour>
    <contour>
      <point x="490" y="-120" type="line"/>
      <point x="520" y="-120" type="line"/>
      <point x="520" y="28" type="line"/>
      <point x="460" y="28" type="line"/>
      <point x="460" y="0" type="line"/>
      <point x="490" y="0" type="line"/>
    </contour>
  </outline>
</glyph>
<glyph name="che-cy" format="2">
  <advance width="600"/>
  <unicode hex="0447"/>
  <outline>
    <contour>
      <point x="450" y="0" type="line"/>
      <point x="480" y="0" type="line"/>
      <point x="480" y="530" type="line"/>
      <point x="450" y="530" type="line"/>
      <point x="450" y="260" type="line"/>
      <point x="424" y="230"/>
      <point x="360" y="186"/>
      <point x="266" y="186" type="curve" smooth="yes"/>
      <point x="176" y="186"/>
      <point x="130" y="218"/>
      <point x="130" y="319" type="curve" smooth="yes"/>
      <point x="130" y="530" type="line"/>
      <point x="100" y="530" type="line"/>
      <point x="100" y="316" type="line" smooth="yes"/>
      <point x="100" y="196"/>
      <point x="166" y="158"/>
      <point x="264" y="158" type="curve" smooth="yes"/>
      <point x="367" y="158"/>
      <point x="443" y="210"/>
      <point x="465" y="238" type="curve"/>
      <point x="450" y="246" type="line"/>
    </contour>
  </outline>
</glyph>
<glyph name="sha-cy" format="2">
  <advance width="600"/>
  <unicode hex="0448"/>
  <outline>
    <contour>
      <point x="70" y="0" type="line"/>
      <point x="530" y="0" type="line"/>
      <point x="530" y="530" type="line"/>
      <point x="500" y="530" type="line"/>
      <point x="500" y="28" type="line"/>
      <point x="315" y="28" type="line"/>
      <point x="315" y="530" type="line"/>
      <point x="285" y="530" type="line"/>
      <point x="285" y="28" type="line"/>
      <point x="100" y="28" type="line"/>
      <point x="100" y="530" type="line"/>
      <point x="70" y="530" type="line"/>
    </contour>
  </outline>
</glyph>
<glyph name="shcha-cy" format="2">
  <advance width="600"/>
  <unicode hex="0449"/>
  <outline>
    <contour>
      <point x="50" y="0" type="line"/>
      <point x="510" y="0" type="line"/>
      <point x="510" y="530" type="line"/>
      <point x="480" y="530" type="line"/>
      <point x="480" y="28" type="line"/>
      <point x="295" y="28" type="line"/>
      <point x="295" y="530" type="line"/>
      <point x="265" y="530" type="line"/>
      <point x="265" y="28" type="line"/>
      <point x="80" y="28" type="line"/>
      <point x="80" y="530" type="line"/>
      <point x="50" y="530" type="line"/>
    </contour>
    <contour>
      <point x="520" y="-120" type="line"/>
      <point x="550" y="-120" type="line"/>
      <point x="550" y="28" type="line"/>
      <point x="490" y="28" type="line"/>
      <point x="490" y="0" type="line"/>
      <point x="520" y="0" type="line"/>
    </contour>
  </outline>
</glyph>
<glyph name="hardsign-cy" format="2">
  <advance width="600"/>
  <unicode hex="044A"/>
  <anchor x="300" y="530" name="top"/>
  <outline>
    <contour>
      <point x="40" y="502" type="line"/>
      <point x="184" y="502" type="line"/>
      <point x="170" y="516" type="line"/>
      <point x="170" y="0" type="line"/>
      <point x="360" y="0" type="line" smooth="yes"/>
      <point x="500" y="0"/>
      <point x="560" y="58"/>
      <point x="560" y="154" type="curve" smooth="yes"/>
      <point x="560" y="250"/>
      <point x="500" y="308"/>
      <point x="360" y="308" type="curve" smooth="yes"/>
      <point x="200" y="308" type="line"/>
      <point x="200" y="530" type="line"/>
      <point x="40" y="530" type="line"/>
    </contour>
    <contour>
      <point x="200" y="28" type="line"/>
      <point x="200" y="280" type="line"/>
      <point x="360" y="280" type="line" smooth="yes"/>
      <point x="486" y="280"/>
      <point x="528" y="234"/>
      <point x="528" y="154" type="curve" smooth="yes"/>
      <point x="528" y="74"/>
      <point x="486" y="28"/>
      <point x="360" y="28" type="curve" smooth="yes"/>
    </contour>
  </outline>
</glyph>
